<svg id="ersidrqehkte1" xmlns="http://www.w3.org/2000/svg" xmlns:xlink="http://www.w3.org/1999/xlink" viewBox="0 0 1134.446910 709.783820" shape-rendering="geometricPrecision" text-rendering="geometricPrecision"><g id="ersidrqehkte2" transform="matrix(0.99979133857603 0.02042741560603 -0.02042741560603 0.99979133857603 105.36291896303143 -180.28765369447595)"/><path id="ersidrqehkte3" d="M179.708680,490.147000C177.853680,486.506370,176.129570,482.745630,174.584680,478.968780L176.435270,478.210960C177.960170,481.937040,179.660850,485.647490,181.490930,489.238800ZM170.405000,467.404310C169.178000,463.510760,168.099340,459.516620,167.198460,455.533710L169.149630,455.092300C170.037820,459.021990,171.101780,462.961930,172.312230,466.802750ZM164.987000,443.438490C164.420100,439.402360,164.013850,435.286640,163.778500,431.204610L165.775570,431.089370C166.007020,435.117200,166.408380,439.178240,166.967460,443.160170ZM165.569520,418.958020L163.570520,418.911150C163.666710,414.823260,163.932340,410.696300,164.359580,406.645520L166.348840,406.855520C165.926940,410.852550,165.664730,414.924330,165.569520,418.958000ZM168.116880,394.857930L166.152030,394.484880C166.913750,390.474140,167.852720,386.446300,168.943030,382.513200L170.870760,383.047380C169.794610,386.927750,168.868340,390.901380,168.116880,394.857930ZM174.594420,371.505390L172.718420,370.813000C174.132480,366.981950,175.725750,363.161640,177.453770,359.458510L179.266270,360.304210C177.561210,363.957540,175.989440,367.726090,174.594420,371.505390ZM448.498710,365.323260C446.935240,361.615740,445.195490,357.924820,443.327330,354.352550L445.099790,353.425800C446.993340,357.046890,448.757020,360.788100,450.341490,364.545910ZM184.847840,349.528820L183.111510,348.536640C185.136900,344.993640,187.336610,341.489270,189.649590,338.120130L191.298000,339.252000C189.016290,342.576190,186.845880,346.033710,184.847840,349.528820ZM437.267760,343.845230C435.113950,340.443380,432.791190,337.087910,430.363950,333.872570L431.960630,332.667500C434.420630,335.926770,436.774630,339.327650,438.957210,342.775410ZM198.571000,329.540540L197.020220,328.276870C199.600300,325.111340,202.342480,322.014660,205.172070,319.071790L206.613480,320.457540C203.822000,323.361340,201.115900,326.417000,198.571000,329.540540ZM422.665730,324.498540C419.983110,321.491700,417.143270,318.560060,414.224810,315.784670L415.603230,314.335450C418.560750,317.148450,421.439160,320.119630,424.157910,323.166510ZM215.371760,312.064000L214.048520,310.565000C217.108580,307.863830,220.319030,305.255920,223.590520,302.814000L224.786810,304.416540C221.558770,306.826190,218.391290,309.398940,215.371760,312.064000ZM405.099300,307.791000C401.962090,305.262680,398.681300,302.833480,395.348810,300.571760L396.471810,298.916490C399.849740,301.209490,403.174450,303.670880,406.354130,306.233380ZM234.794610,297.568380L233.734070,295.873060C237.196960,293.707060,240.789730,291.660660,244.413270,289.790540L245.330270,291.567890C241.755550,293.412610,238.211120,295.431660,234.794610,297.568380ZM385.038270,294.177750C381.524590,292.194840,377.889830,290.336930,374.235040,288.655750L375.070980,286.838360C378.775570,288.542950,382.459650,290.426260,386.021180,292.435530ZM256.323420,286.458000L255.555840,284.611320C259.324840,283.045890,263.204280,281.619620,267.086610,280.372550L267.697930,282.276850C263.868340,283.506850,260.041190,284.913590,256.323420,286.458000ZM363.011900,284.045410C359.226740,282.671410,355.335140,281.438960,351.445490,280.382810L351.969910,278.453120C355.912290,279.523430,359.857110,280.772460,363.694520,282.165520ZM279.388360,279.050780L278.937190,277.102530C282.908870,276.181640,286.973320,275.415530,291.016780,274.824700L291.305840,276.803700C287.316590,277.386730,283.307310,278.142590,279.388360,279.050800ZM339.615410,277.692380C335.662290,276.963860,331.621760,276.390620,327.606140,275.989250L327.805360,273.999020C331.875180,274.406250,335.970880,274.986810,339.977720,275.725580ZM303.367860,275.546380L303.241860,273.550290C307.309730,273.293450,311.457190,273.202140,315.532860,273.275870L315.496730,275.275870C311.471860,275.202160,307.382500,275.293470,303.367860,275.546400Z" transform="matrix(-0.91232886734280 0.90430985653956 0.91510031087465 0.92321500654660 136.45013516975837 -354.41834425697056)" fill="rgb(63,61,86)" stroke="none" stroke-width="1" stroke-dashoffset="568.620000" stroke-dasharray="0"/><g id="ersidrqehkte4" transform="matrix(0.99983920032653 0.01793247028165 -0.01793247028165 0.99983920032653 15.73385745092980 -16.25943604471939)"><path id="ersidrqehkte5" d="M454.522150,382.532240C453.986510,380.628920,453.404480,378.710460,452.791680,376.830090L454.693050,376.209980C455.314140,378.116230,455.904480,380.061050,456.446960,381.990250Z" transform="matrix(1 0 0 1 -32.77660000000000 -95.10809999999999)" fill="rgb(63,61,86)" stroke="none" stroke-width="1"/><ellipse id="ersidrqehkte6" rx="33.312400" ry="2.498430" transform="matrix(1 0 0 1 420.73700000000002 312.39299999999997)" fill="rgb(108,99,255)" stroke="none" stroke-width="1"/><rect id="ersidrqehkte7" width="168.228000" height="2" rx="0" ry="0" transform="matrix(1 0 0 1 438.22600000000000 291.40499999999997)" fill="rgb(63,61,86)" stroke="none" stroke-width="1"/><path id="ersidrqehkte8" d="M453.513360,406.002460C443.302235,406.002316,435.024572,397.724498,435.024620,387.513373C435.024668,377.302248,443.302408,369.024508,453.513533,369.024460C463.724658,369.024412,472.002476,377.302075,472.002620,387.513200C471.991190,397.719798,463.719958,405.991030,453.513360,406.002460ZM453.513360,371.024460C444.406741,371.024604,437.024482,378.407091,437.024620,387.513710C437.024758,396.620329,444.407241,404.002593,453.513860,404.002460C462.620479,404.002327,470.002747,396.619849,470.002620,387.513230C469.992243,378.410840,462.615751,371.034553,453.513360,371.024430Z" transform="matrix(1 0 0 1 -32.77660000000000 -95.10809999999999)" fill="rgb(63,61,86)" stroke="none" stroke-width="1"/></g><path id="ersidrqehkte9" d="M442.326840,270.531270L440.326840,270.531270C440.326840,268.529800,440.362000,266.499040,440.431840,264.496110L442.430840,264.565450C442.362000,266.545910,442.326840,268.552750,442.326840,270.531270Z" transform="matrix(1 0 0 1 -32.77660000000000 -95.10809999999999)" fill="rgb(63,61,86)" stroke="none" stroke-width="1"/><path id="ersidrqehkte10" d="M443.278500,252.539080L441.289240,252.327160C441.717950,248.299330,442.297540,244.238790,443.012390,240.258320L444.981140,240.611830C444.274590,244.545430,443.701840,248.558610,443.278500,252.539080ZM447.536310,228.837910L445.598810,228.343770C446.599810,224.418470,447.757020,220.482930,449.037290,216.646010L450.934750,217.278820C449.669120,221.070820,448.526060,224.959490,447.536310,228.837910ZM766.499200,207.737320C765.004090,204.025890,763.354670,200.322770,761.596860,196.731950L763.393730,195.853040C765.172050,199.486830,766.841000,203.233900,768.354670,206.990250ZM455.161800,205.984390L453.315120,205.215840C454.870300,201.478530,456.582700,197.747570,458.405940,194.126480L460.192070,195.025890C458.390800,198.604510,456.698420,202.291000,455.161800,205.984390ZM755.915220,186.106000C753.904480,182.649950,751.742370,179.220750,749.487480,175.914110L751.139830,174.787110C753.422050,178.133300,755.609550,181.603020,757.643730,185.100110ZM465.997220,184.459000L464.280000,183.433610C466.352760,179.960950,468.581760,176.514660,470.904000,173.190930L472.543650,174.336440C470.248230,177.621110,468.045590,181.026870,465.997250,184.459000ZM742.346830,166.207050C739.859520,163.067890,737.230620,159.981460,734.532380,157.033220L736.006990,155.682630C738.737450,158.666030,741.398590,161.788630,743.915190,164.964860ZM479.796080,164.709000L478.242370,163.449230C480.793640,160.302750,483.489440,157.209980,486.255550,154.256850L487.715550,155.624040C484.981620,158.543000,482.317070,161.599630,479.796080,164.709000ZM726.084160,148.439000C723.176940,145.686070,720.135920,143.004430,717.044160,140.467810L718.311740,138.921910C721.440650,141.487830,724.517800,144.201700,727.459200,146.986850ZM496.260920,147.127480L494.901550,145.659700C497.871270,142.910190,500.978210,140.231970,504.136900,137.700230L505.387900,139.260780C502.266290,141.763200,499.195490,144.409680,496.260920,147.127460ZM707.459160,133.161170C704.191590,130.849650,700.799980,128.627970,697.377160,126.557650L698.412320,124.846720C701.875210,126.941440,705.307830,129.189490,708.613490,131.528360ZM515.050470,132.065470L513.913750,130.419960C517.243340,128.121130,520.698910,125.913610,524.185240,123.857960L525.200860,125.580610C521.755550,127.612320,518.340510,129.794000,515.050470,132.065450ZM686.847840,120.693880C683.282410,118.872590,679.607600,117.159700,675.924010,115.601600L676.703300,113.759800C680.430840,115.335970,684.149590,117.069860,687.757990,118.912630ZM535.788270,119.840880L534.898620,118.049880C538.521620,116.251050,542.256040,114.561110,545.998710,113.027420L546.757500,114.878010C543.058770,116.393570,539.368340,118.063490,535.788270,119.840840ZM664.661270,111.310110C660.878070,110.022030,656.994270,108.855040,653.118270,107.841850L653.624130,105.907280C657.546980,106.932180,661.477650,108.113340,665.305770,109.416560ZM558.051900,110.718320L557.428900,108.817930C561.272650,107.558160,565.214060,106.421930,569.144230,105.440930L569.628610,107.381360C565.744810,108.350600,561.849790,109.473160,558.051940,110.718280ZM641.357560,105.217320C637.424940,104.487320,633.415180,103.891150,629.439560,103.444860L629.662220,101.457560C633.685660,101.909220,637.743270,102.512240,641.722770,103.250560ZM581.415670,104.888220L581.072890,102.917520C585.057270,102.223670,589.120260,101.665520,593.150530,101.257850L593.351700,103.248080C589.369320,103.650410,585.353210,104.202160,581.415710,104.888200ZM617.424940,102.527870C613.420060,102.365270,609.348770,102.343790,605.374160,102.462440L605.313620,100.463440C609.336080,100.343330,613.454240,100.364320,617.506980,100.529850Z" transform="matrix(0.93128286028765 -0.36429690382220 0.36429690382220 0.93128286028765 -60.32180821527322 187.45842494714967)" fill="rgb(63,61,86)" stroke="none" stroke-width="1"/><path id="ersidrqehkte11" d="M772.349790,224.898940C771.814630,222.995620,771.236510,221.074230,770.632990,219.187030L772.537290,218.577650C773.148620,220.486830,773.733580,222.431170,774.275570,224.356950Z" transform="matrix(1 0 0 1 -32.77660000000000 -95.10809999999999)" fill="rgb(63,61,86)" stroke="none" stroke-width="1"/><g id="ersidrqehkte12" transform="matrix(1 0 0 1 6.93635073999951 1.08176891999989)"><ellipse id="ersidrqehkte13" rx="33.312400" ry="2.498430" transform="matrix(1 0 0 1 748.86400000000003 186.63800000000001)" fill="rgb(108,99,255)" stroke="none" stroke-width="1"/><rect id="ersidrqehkte14" width="141.662000" height="1.999790" rx="0" ry="0" transform="matrix(0.70710700000000 -0.70710700000000 0.70710700000000 0.70710700000000 635.49524088300018 278.60605702100008)" fill="rgb(63,61,86)" stroke="none" stroke-width="1"/></g><g id="ersidrqehkte15" transform="matrix(1 0 0 1 -102.77079170500002 114.10576392000036)"/><g id="ersidrqehkte16" transform="matrix(1 0 0 1 15.84488741999996 57.62878944000022)"/><path id="ersidrqehkte17" d="M656.718930,406.002460C646.507805,406.002316,638.230142,397.724498,638.230190,387.513373C638.230238,377.302248,646.507978,369.024508,656.719103,369.024460C666.930228,369.024412,675.208046,377.302075,675.208190,387.513200C675.196804,397.719816,666.925546,405.991074,656.718930,406.002460ZM656.718930,371.024460C647.612311,371.024604,640.230052,378.407091,640.230190,387.513710C640.230328,396.620329,647.612811,404.002593,656.719430,404.002460C665.826049,404.002327,673.208317,396.619849,673.208190,387.513230C673.198049,378.410741,665.821419,371.034317,656.718930,371.024430Z" transform="matrix(1 0 0 1 -21.05186803999993 -100.50498698000007)" fill="rgb(63,61,86)" stroke="none" stroke-width="1"/><path id="ersidrqehkte18" d="M781.640800,280.248060C771.429675,280.247916,763.152012,271.970098,763.152060,261.758973C763.152108,251.547848,771.429848,243.270108,781.640973,243.270060C791.852098,243.270012,800.129916,251.547675,800.130060,261.758800C800.118564,271.965371,791.847371,280.236564,781.640800,280.248060ZM781.640800,245.270060C772.534179,245.270204,765.151920,252.652693,765.152060,261.759313C765.152200,270.865934,772.534686,278.248196,781.641307,278.248060C790.747927,278.247924,798.130193,270.865441,798.130060,261.758820C798.119490,252.656506,790.743114,245.280327,781.640800,245.270000Z" transform="matrix(1 0 0 1 -32.77660000000000 -95.10809999999999)" fill="rgb(63,61,86)" stroke="none" stroke-width="1"/><g id="ersidrqehkte19" transform="matrix(1 0 0 1 -100.83276993000001 -86.36305894500009)"><path id="ersidrqehkte20" d="M187.846720,399.172780C179.011712,399.172777,170.538562,402.682470,164.291268,408.929765C158.043975,415.177061,154.534285,423.650212,154.534290,432.485220C154.534290,450.883150,187.846720,511.602220,187.846720,511.602220C187.846720,511.602220,221.159160,450.883120,221.159160,432.485220C221.159163,423.650211,217.649470,415.177060,211.402175,408.929765C205.154880,402.682470,196.681729,399.172777,187.846720,399.172780ZM187.846720,449.974240C180.773080,449.974240,174.395956,445.713182,171.688991,439.177991C168.982026,432.642799,170.478311,425.120468,175.480130,420.118650C180.481948,415.116831,188.004279,413.620546,194.539471,416.327511C201.074662,419.034476,205.335720,425.411600,205.335720,432.485240C205.335720,442.144148,197.505628,449.974240,187.846720,449.974240Z" transform="matrix(1 0 0 1 179.06224963999921 -24.83611819499993)" fill="rgb(108,99,255)" stroke="none" stroke-width="1"/></g><g id="ersidrqehkte21" transform="matrix(1 0 0 1 -21.89505830000047 -217.62554222999978)"><path id="ersidrqehkte22" d="M453.513390,274.251150C435.115455,274.251172,420.200994,289.165655,420.201000,307.563590C420.201000,325.961520,453.513440,386.680590,453.513440,386.680590C453.513440,386.680590,486.825870,325.961490,486.825870,307.563590C486.825875,298.728573,483.316178,290.255414,477.068874,284.008118C470.821570,277.760821,462.348407,274.251134,453.513390,274.251150ZM453.513390,325.052610C446.439750,325.052610,440.062626,320.791552,437.355661,314.256361C434.648696,307.721169,436.144981,300.198838,441.146800,295.197020C446.148618,290.195201,453.670949,288.698916,460.206141,291.405881C466.741332,294.112846,471.002390,300.489970,471.002390,307.563610C471.002390,317.222518,463.172298,325.052610,453.513390,325.052610Z" transform="matrix(1 0 0 1 -2.63611000000017 95.77110593000019)" fill="rgb(108,99,255)" stroke="none" stroke-width="1"/></g><rect id="ersidrqehkte23" width="453.535000" height="2.443190" rx="0" ry="0" transform="matrix(1 0 0 1 680.91191000499407 706.60336000000052)" fill="rgb(47,46,65)" stroke="none" stroke-width="1"/><rect id="ersidrqehkte24" width="78.743300" height="99.741500" rx="0" ry="0" transform="matrix(1 0 0 1 918.84906170500085 62.05644929500001)" fill="rgb(47,46,65)" stroke="none" stroke-width="1"/><path id="ersidrqehkte25" d="M1029.471720,238.698000L1036.169330,238.698000C1036.169330,238.698000,1052.541260,259.535000,1045.099470,287.813790C1037.657680,316.092580,1043.611120,321.301790,1043.611120,321.301790C1043.611120,321.301790,1053.299240,351.925330,1042.880740,398.064410C1032.462240,444.203490,1052.541260,456.742290,1052.541260,456.742290L1033.936800,419.533360L1023.518300,321.301790Z" transform="matrix(1 0 0 1 -32.77660000000000 -95.10809999999999)" fill="rgb(87,90,137)" stroke="none" stroke-width="1"/><path id="ersidrqehkte26" d="M1029.471720,241.146000L1036.169330,241.146000C1036.169330,241.146000,1052.541260,261.983000,1045.099470,290.261790C1037.657680,318.540580,1043.611120,323.749790,1043.611120,323.749790C1043.611120,323.749790,1053.299240,354.373330,1042.880740,400.512410C1032.462240,446.651490,1052.541260,459.190290,1052.541260,459.190290L1033.936800,421.981360L1023.518300,323.749790Z" transform="matrix(1 0 0 1 -32.77660000000000 -95.10809999999999)" opacity="0.1" fill="rgb(0,0,0)" stroke="none" stroke-width="1"/><path id="ersidrqehkte27" d="M1006.030100,202.605350C1006.030100,202.605350,1000.076670,226.419060,1003.053380,226.419060C1006.030090,226.419060,1016.448600,239.070060,1016.448600,239.070060L1023.146210,263.627950L1017.936960,281.488240L1000.076670,277.767350L977.751310,253.209450L971.053700,246.511850L965.100270,224.930670C965.100270,224.930670,972.542060,216.000520,967.332810,208.558740C962.123560,201.116960,1006.030100,202.605350,1006.030100,202.605350Z" transform="matrix(1 0 0 1 -32.77660000000000 -95.10809999999999)" fill="rgb(251,190,190)" stroke="none" stroke-width="1"/><g id="ersidrqehkte28" transform="matrix(0.99989407125915 -0.01455493939532 0.01455493939532 0.99989407125915 -2.68417862954539 13.52834322243427)"><path id="ersidrqehkte29" d="M825.938880,268.837240L809.567000,242.046810C809.567000,242.046810,791.894350,202.944390,779.243310,217.083810C766.592270,231.223230,798.404310,259.907130,798.404310,259.907130L814.776240,281.488310Z" transform="matrix(1 0 0 1 -32.77660000000003 -95.10809999999998)" fill="rgb(251,190,190)" stroke="none" stroke-width="1"/><path id="ersidrqehkte30" d="M1014.216060,271.814000L982.960560,232.372530L965.100270,220.465670L957.658490,230.140000L936.821490,236.093430C936.821490,236.093430,923.426270,239.070140,909.286880,255.442070C895.147490,271.814000,869.845410,281.488320,869.845410,281.488320L849.008410,277.767430C849.008410,277.767430,824.450520,266.604750,824.450520,263.628030C824.450520,260.651310,802.869340,283.720860,808.078590,292.651030C813.287840,301.581200,824.450520,312.743850,830.403950,318.697280C836.357380,324.650710,838.589950,341.766820,875.054660,336.557570C911.519370,331.348320,924.914660,313.488030,924.914660,313.488030C924.914660,313.488030,931.612270,347.720250,950.960910,354.417850C970.309550,361.115450,1033.564740,365.580530,1033.564740,365.580530L1046.959950,320.929820C1046.959950,320.929820,1061.843520,301.581170,1041.750700,273.302390C1041.750700,273.302390,1041.364960,257.486880,1039.204860,246.962730C1038.364670,242.869290,1037.256050,239.576370,1035.797270,238.325990C1030.588020,233.860920,1003.053410,226.419130,1003.053410,226.419130C1003.053410,226.419130,1007.518490,241.302710,1009.751020,242.046880C1011.983550,242.791050,1017.192780,268.093070,1014.216060,271.814000Z" transform="matrix(1 0 0 1 -32.77660000000003 -95.10809999999998)" fill="rgb(87,90,137)" stroke="none" stroke-width="1"/></g><path id="ersidrqehkte31" d="M1043.239000,501.765150L1031.332170,588.834000C1031.332170,588.834000,1032.820530,595.531610,1017.936960,620.089510C1003.053390,644.647410,962.867740,698.228260,962.867740,698.228260L950.960880,675.902900C950.960880,675.902900,965.100270,605.205900,989.658170,590.322360L986.681450,483.160640Z" transform="matrix(1 0 0 1 -32.77660000000000 -95.10809999999999)" fill="rgb(251,190,190)" stroke="none" stroke-width="1"/><path id="ersidrqehkte32" d="M1043.239000,501.765150L1031.332170,588.834000C1031.332170,588.834000,1032.820530,595.531610,1017.936960,620.089510C1003.053390,644.647410,962.867740,698.228260,962.867740,698.228260L950.960880,675.902900C950.960880,675.902900,965.100270,605.205900,989.658170,590.322360L986.681450,483.160640Z" transform="matrix(1 0 0 1 -32.77660000000000 -95.10809999999999)" opacity="0.1" fill="rgb(0,0,0)" stroke="none" stroke-width="1"/><path id="ersidrqehkte33" d="M950.960880,666.972800L967.332810,698.228300C967.332810,698.228300,953.937600,736.181410,959.146810,739.902300C964.356020,743.623190,971.053660,777.111230,956.914270,773.390300C942.774880,769.669370,931.612200,754.785830,931.612200,752.553300C931.612200,750.320770,939.798200,719.065300,935.333090,711.623470C930.867980,704.181640,927.891300,701.949150,927.891300,701.949150L916.728630,720.553620L913.007730,718.321080L931.612200,687.065580C931.612200,687.065580,933.844730,681.112150,942.774880,677.391260Z" transform="matrix(1 0 0 1 -32.77660000000000 -95.10809999999999)" fill="rgb(47,46,65)" stroke="none" stroke-width="1"/><path id="ersidrqehkte34" d="M950.960880,666.972800L967.332810,698.228300C967.332810,698.228300,953.937600,736.181410,959.146810,739.902300C964.356020,743.623190,971.053660,777.111230,956.914270,773.390300C942.774880,769.669370,931.612200,754.785830,931.612200,752.553300C931.612200,750.320770,939.798200,719.065300,935.333090,711.623470C930.867980,704.181640,927.891300,701.949150,927.891300,701.949150L916.728630,720.553620L913.007730,718.321080L931.612200,687.065580C931.612200,687.065580,933.844730,681.112150,942.774880,677.391260Z" transform="matrix(1 0 0 1 -32.77660000000000 -95.10809999999999)" opacity="0.1" fill="rgb(0,0,0)" stroke="none" stroke-width="1"/><path id="ersidrqehkte35" d="M986.855100,489.411870C986.855100,489.411870,992.634880,571.717940,979.983850,593.299120L979.983850,700.460840L962.867740,702.693370C962.867740,702.693370,928.302270,645.959370,940.953300,590.146010C953.604330,534.332650,927.891300,483.160680,927.891300,483.160680Z" transform="matrix(1 0 0 1 -32.77660000000000 -95.10809999999999)" fill="rgb(251,190,190)" stroke="none" stroke-width="1"/><path id="ersidrqehkte36" d="M914.124000,493.951270C951.600730,491.346650,973.420100,497.486120,983.154000,502.166990C984.963615,502.985943,986.667727,504.020400,988.229340,505.247900C988.943730,505.850680,989.286020,506.319520,989.286020,506.602310C989.286020,508.834840,1040.634340,513.299920,1059.238810,508.834840C1077.843280,504.369760,1046.587810,408.370730,1038.401810,400.184770C1030.215810,391.998810,1034.628810,362.038170,1034.628810,362.038170C1034.628810,362.038170,1018.309030,358.510770,1013.843950,359.999170C1009.378870,361.487570,986.309350,357.766640,978.123380,353.301570C969.937410,348.836500,959.518920,351.813210,952.821310,350.324850C949.829700,349.662520,948.318990,350.778790,947.567310,352.222500C946.397378,354.388142,944.630845,356.172787,942.477250,357.364750C926.678350,366.466090,913.997520,429.393830,904.449650,464.184180C894.031220,502.137240,914.124000,493.951270,914.124000,493.951270Z" transform="matrix(0.99993479501434 0.01141953237362 -0.01141953237362 0.99993479501434 -27.01719691519031 -108.37857261258807)" fill="rgb(47,46,65)" stroke="none" stroke-width="1"/><path id="ersidrqehkte37" d="M982.960560,693.763230L985.937280,710.135160C985.937280,710.135160,1001.565000,732.460520,997.100000,751.065000C997.100000,751.065000,1000.820900,775.622890,1014.216110,782.320500C1027.611320,789.018110,1016.448650,804.645860,1003.797610,803.901680C991.146570,803.157500,979.239720,804.645860,977.751360,800.924970C976.263000,797.204080,967.332860,760.739320,967.332860,760.739320L964.889670,803.410470L957.447890,804.154650L959.891070,754.785890C959.891070,754.785890,953.937650,743.623210,962.123610,725.018750L960.057610,696.461250C960.057610,696.461250,980.728000,701.205000,982.960560,693.763230Z" transform="matrix(1 0 0 1 -32.77660000000000 -95.10809999999999)" fill="rgb(47,46,65)" stroke="none" stroke-width="1"/><path id="ersidrqehkte38" d="M983.154060,502.167000C984.963675,502.985953,986.667787,504.020410,988.229400,505.247910C988.623660,498.215410,990.900890,455.685590,988.169810,456.370260Z" transform="matrix(1 0 0 1 -32.77660000000000 -95.10809999999999)" opacity="0.1" fill="rgb(0,0,0)" stroke="none" stroke-width="1"/><g id="ersidrqehkte39" transform="matrix(0.99729263630905 -0.07353500910275 0.07353500910275 0.99729263630905 -10.18806309466697 71.89533496827993)"><path id="ersidrqehkte40" d="M1028.209460,167.539910C1021.158650,188.415600,1010.347150,207.436490,988.312870,207.436490C966.278590,207.436490,949.657800,189.539170,948.416290,167.539910C946.829890,139.429220,965.770290,127.526910,988.312870,127.643320C1014.943260,127.780870,1036.577090,142.765530,1028.209460,167.539910Z" transform="matrix(1 0 0 1 -32.77660000000000 -95.10809999999999)" fill="rgb(47,46,65)" stroke="none" stroke-width="1"/><path id="ersidrqehkte41" d="M969.414490,111.894660C969.415099,103.807117,975.541307,97.034597,983.588280,96.225540C983.070180,96.174080,982.545100,96.146010,982.013410,96.146010C973.315668,96.146010,966.264755,103.196923,966.264755,111.894665C966.264755,120.592407,973.315668,127.643320,982.013410,127.643320C982.545100,127.643320,983.070180,127.615250,983.588280,127.563790C975.541314,126.754711,969.415117,119.982198,969.414490,111.894660Z" transform="matrix(1 0 0 1 -32.77660000000000 -95.10809999999999)" fill="rgb(47,46,65)" stroke="none" stroke-width="1"/><path id="ersidrqehkte42" d="M969.649470,146.541700C969.649470,146.541700,969.303320,144.614810,955.765660,149.691430C942.228000,154.768050,934.113100,192.231320,940.881930,214.230000C943.609740,223.095390,941.390710,229.487360,937.768930,233.959680C924.177840,250.742560,929.528090,275.949980,949.324550,284.580320Q950.162720,284.945720,951.035160,285.302740L959.496160,290.379370C959.496160,290.379370,948.710160,276.187250,954.107880,258.032920C958.795411,242.564732,959.374287,226.142513,955.787530,210.382660C955.168270,207.724080,954.464830,204.983600,953.665780,202.186910C946.897000,178.496000,950.189070,181.232000,973.880000,157.541050C973.880000,157.541050,987.417660,167.694300,999.263120,172.770930C1011.108580,177.847560,1021.261830,182.924180,1012.800790,199.846260C1004.339750,216.768340,984.033250,231.998260,997.570910,253.996920C1011.108570,275.995580,1012.800790,267.534590,1011.108580,275.995630L1011.108580,275.995630L1009.416370,284.456630L1019.569620,274.303380L1012.800790,287.841050C1012.800790,287.841050,1034.799490,287.841050,1041.568330,270.918960L1044.952740,274.303380C1044.952740,274.303380,1058.490410,250.612470,1033.107290,228.613760C1033.107290,228.613760,1024.646290,223.537130,1036.491700,206.615050C1048.337110,189.692970,1039.239700,153.310490,1024.009830,146.541660C1008.779960,139.772830,969.649470,146.541700,969.649470,146.541700Z" transform="matrix(1 0 0 1 -30.60382238451089 -102.70988548571316)" fill="rgb(47,46,65)" stroke="none" stroke-width="1"/><path id="ersidrqehkte43" d="M1006.030100,202.605350C1006.030100,202.605350,1000.076670,226.419060,1003.053380,226.419060C1006.030090,226.419060,1016.448600,239.070060,1016.448600,239.070060L1023.146210,263.627950L1017.936960,281.488240L1000.076670,277.767350L977.751310,253.209450L971.053700,246.511850L965.100270,224.930670C965.100270,224.930670,972.542060,216.000520,967.332810,208.558740C962.123560,201.116960,1006.030100,202.605350,1006.030100,202.605350Z" transform="matrix(1 0 0 1 -32.77660000000000 -95.10809999999999)" opacity="0.1" fill="rgb(0,0,0)" stroke="none" stroke-width="1"/><circle id="ersidrqehkte44" r="31.255500" transform="matrix(1 0 0 1 949.81200000000001 94.47410000000001)" fill="rgb(251,190,190)" stroke="none" stroke-width="1"/><circle id="ersidrqehkte45" r="15.748600" transform="matrix(1 0 0 1 955.53599999999994 25.18590000000000)" fill="rgb(47,46,65)" stroke="none" stroke-width="1"/></g><g id="ersidrqehkte46"><path id="ersidrqehkte47" d="M781.640870,154.326390C772.805863,154.326387,764.332713,157.836079,758.085418,164.083371C751.838124,170.330664,748.328430,178.803813,748.328430,187.638820C748.328430,206.036750,781.640870,266.755820,781.640870,266.755820C781.640870,266.755820,814.953300,206.036720,814.953300,187.638820C814.953303,178.803813,811.443611,170.330665,805.196318,164.083372C798.949025,157.836079,790.475877,154.326387,781.640870,154.326390ZM781.640870,205.127850C771.981962,205.127850,764.151870,197.297758,764.151870,187.638850C764.151870,177.979942,771.981962,170.149850,781.640870,170.149850C791.299778,170.149850,799.129870,177.979942,799.129870,187.638850C799.129870,192.277221,797.287284,196.725617,794.007460,200.005440C790.727637,203.285264,786.279241,205.127850,781.640870,205.127850Z" transform="matrix(1 0 0 1 -145.97354303500151 5.63887900000017)" fill="rgb(108,99,255)" stroke="none" stroke-width="1"/></g><circle id="ersidrqehkte48" r="18.025300" transform="matrix(1 0 0 1 731.76269532499566 211.93428166500161)" fill="rgb(241,241,241)" stroke="none" stroke-width="1"/><g id="ersidrqehkte49" transform="matrix(0.99992836469008 -0.01196935621579 0.01196935621579 0.99992836469008 -358.03427144164141 118.80231097692416)"><path id="ersidrqehkte50" d="M454.522150,382.532240C453.986510,380.628920,453.404480,378.710460,452.791680,376.830090L454.693050,376.209980C455.314140,378.116230,455.904480,380.061050,456.446960,381.990250Z" transform="matrix(1 0 0 1 -32.77660000000000 -95.10809999999999)" fill="rgb(63,61,86)" stroke="none" stroke-width="1"/><ellipse id="ersidrqehkte51" rx="33.312400" ry="2.498430" transform="matrix(1 0 0 1 420.73700000000002 312.39299999999997)" fill="rgb(108,99,255)" stroke="none" stroke-width="1"/><rect id="ersidrqehkte52" width="168.228000" height="2" rx="0" ry="0" transform="matrix(1 0 0 1 438.22600000000000 291.40499999999997)" fill="rgb(63,61,86)" stroke="none" stroke-width="1"/><path id="ersidrqehkte53" d="M453.513360,406.002460C443.302235,406.002316,435.024572,397.724498,435.024620,387.513373C435.024668,377.302248,443.302408,369.024508,453.513533,369.024460C463.724658,369.024412,472.002476,377.302075,472.002620,387.513200C471.991190,397.719798,463.719958,405.991030,453.513360,406.002460ZM453.513360,371.024460C444.406741,371.024604,437.024482,378.407091,437.024620,387.513710C437.024758,396.620329,444.407241,404.002593,453.513860,404.002460C462.620479,404.002327,470.002747,396.619849,470.002620,387.513230C469.992243,378.410840,462.615751,371.034553,453.513360,371.024430Z" transform="matrix(1 0 0 1 -32.77660000000000 -95.10809999999999)" fill="rgb(63,61,86)" stroke="none" stroke-width="1"/></g><g id="ersidrqehkte54" transform="matrix(0.79811226419417 -0.60250876652780 0.60250876652780 0.79811226419417 -243.77720774298467 423.74600403779880)"><path id="ersidrqehkte55" d="M454.522150,382.532240C453.986510,380.628920,453.404480,378.710460,452.791680,376.830090L454.693050,376.209980C455.314140,378.116230,455.904480,380.061050,456.446960,381.990250Z" transform="matrix(1 0 0 1 -32.77660000000000 -95.10809999999999)" fill="rgb(63,61,86)" stroke="none" stroke-width="1"/><ellipse id="ersidrqehkte56" rx="33.312400" ry="2.498430" transform="matrix(1 0 0 1 420.73700000000002 312.39299999999997)" fill="rgb(108,99,255)" stroke="none" stroke-width="1"/><rect id="ersidrqehkte57" width="168.228000" height="2" rx="0" ry="0" transform="matrix(1 0 0 1 438.22600000000000 291.40499999999997)" fill="rgb(63,61,86)" stroke="none" stroke-width="1"/><path id="ersidrqehkte58" d="M453.513360,406.002460C443.302235,406.002316,435.024572,397.724498,435.024620,387.513373C435.024668,377.302248,443.302408,369.024508,453.513533,369.024460C463.724658,369.024412,472.002476,377.302075,472.002620,387.513200C471.991190,397.719798,463.719958,405.991030,453.513360,406.002460ZM453.513360,371.024460C444.406741,371.024604,437.024482,378.407091,437.024620,387.513710C437.024758,396.620329,444.407241,404.002593,453.513860,404.002460C462.620479,404.002327,470.002747,396.619849,470.002620,387.513230C469.992243,378.410840,462.615751,371.034553,453.513360,371.024430Z" transform="matrix(1 0 0 1 -32.77660000000000 -95.10809999999999)" fill="rgb(63,61,86)" stroke="none" stroke-width="1"/></g><path id="ersidrqehkte59" d="M187.846720,399.172780C179.011712,399.172777,170.538562,402.682470,164.291268,408.929765C158.043975,415.177061,154.534285,423.650212,154.534290,432.485220C154.534290,450.883150,187.846720,511.602220,187.846720,511.602220C187.846720,511.602220,221.159160,450.883120,221.159160,432.485220C221.159163,423.650211,217.649470,415.177060,211.402175,408.929765C205.154880,402.682470,196.681729,399.172777,187.846720,399.172780ZM187.846720,449.974240C180.773080,449.974240,174.395956,445.713182,171.688991,439.177991C168.982026,432.642799,170.478311,425.120468,175.480130,420.118650C180.481948,415.116831,188.004279,413.620546,194.539471,416.327511C201.074662,419.034476,205.335720,425.411600,205.335720,432.485240C205.335720,442.144148,197.505628,449.974240,187.846720,449.974240Z" transform="matrix(1 0 0 1 -118.80070427500011 -106.67479114000014)" fill="rgb(108,99,255)" stroke="none" stroke-width="1"/><script><![CDATA[!function(t,n){"object"==typeof exports&&"undefined"!=typeof module?module.exports=n():"function"==typeof define&&define.amd?define(n):(t=t||self).__SVGATOR_PLAYER__=n()}(this,(function(){"use strict";function t(n){return(t="function"==typeof Symbol&&"symbol"==typeof Symbol.iterator?function(t){return typeof t}:function(t){return t&&"function"==typeof Symbol&&t.constructor===Symbol&&t!==Symbol.prototype?"symbol":typeof t})(n)}function n(t,n){if(!(t instanceof n))throw new TypeError("Cannot call a class as a function")}function r(t,n){for(var r=0;r<n.length;r++){var e=n[r];e.enumerable=e.enumerable||!1,e.configurable=!0,"value"in e&&(e.writable=!0),Object.defineProperty(t,e.key,e)}}function e(t,n,e){return n&&r(t.prototype,n),e&&r(t,e),t}var i=1e-5,u=Math.abs;function o(t){return t}function a(t,n,r){var e=1-r;return 3*r*e*(t*e+n*r)+r*r*r}function l(){var t=arguments.length>0&&void 0!==arguments[0]?arguments[0]:0,n=arguments.length>1&&void 0!==arguments[1]?arguments[1]:0,r=arguments.length>2&&void 0!==arguments[2]?arguments[2]:1,e=arguments.length>3&&void 0!==arguments[3]?arguments[3]:1;return t<0||t>1||r<0||r>1?null:u(t-n)<=i&&u(r-e)<=i?o:function(o){if(o<=0)return t>0?o*n/t:0===n&&r>0?o*e/r:0;if(o>=1)return r<1?1+(o-1)*(e-1)/(r-1):1===r&&t<1?1+(o-1)*(n-1)/(t-1):1;for(var l,f=0,s=1;f<s;){var c=a(t,r,l=(f+s)/2);if(u(o-c)<i)break;c<o?f=l:s=l}return a(n,e,l)}}function f(){return 1}function s(t){return 1===t?1:0}function c(){var t=arguments.length>0&&void 0!==arguments[0]?arguments[0]:1,n=arguments.length>1&&void 0!==arguments[1]?arguments[1]:0;if(1===t){if(0===n)return s;if(1===n)return f}var r=1/t;return function(t){return t>=1?1:(t+=n*r)-t%r}}function v(t){var n=arguments.length>1&&void 0!==arguments[1]?arguments[1]:2;if(Number.isInteger(t))return t;var r=Math.pow(10,n);return Math.round(t*r)/r}var h=Math.PI/180;function y(t,n,r){return t>=.5?r:n}function d(t,n,r){return 0===t||n===r?n:t*(r-n)+n}function g(t,n,r){var e=d(t,n,r);return e<=0?0:e}function m(t,n,r){return 0===t?n:1===t?r:{x:d(t,n.x,r.x),y:d(t,n.y,r.y)}}function p(t,n,r){return 0===t?n:1===t?r:{x:g(t,n.x,r.x),y:g(t,n.y,r.y)}}function b(t,n,r){var e=function(t,n,r){return Math.round(d(t,n,r))}(t,n,r);return e<=0?0:e>=255?255:e}function w(t,n,r){return 0===t?n:1===t?r:{r:b(t,n.r,r.r),g:b(t,n.g,r.g),b:b(t,n.b,r.b),a:d(t,null==n.a?1:n.a,null==r.a?1:r.a)}}function A(t,n,r){if(0===t)return n;if(1===t)return r;var e=n.length;if(e!==r.length)return y(t,n,r);for(var i=[],u=0;u<e;u++)i.push(w(t,n[u],r[u]));return i}function x(t,n,r){var e=n.length;if(e!==r.length)return y(t,n,r);for(var i=new Array(e),u=0;u<e;u++)i[u]=d(t,n[u],r[u]);return i}function k(t,n){for(var r=[],e=0;e<t;e++)r.push(n);return r}function S(t,n){if(--n<=0)return t;var r=(t=Object.assign([],t)).length;do{for(var e=0;e<r;e++)t.push(t[e])}while(--n>0);return t}var _=6,M=/\.0+$/g;function I(t){return Number.isInteger(t)?t+"":t.toFixed(_).replace(M,"")}function E(t){var n=arguments.length>1&&void 0!==arguments[1]?arguments[1]:" ";return t&&t.length?t.map(I).join(n):""}function F(t){return I(t.x)+","+I(t.y)}function B(t){return t?null==t.a||t.a>=1?"rgb("+t.r+","+t.g+","+t.b+")":"rgba("+t.r+","+t.g+","+t.b+","+t.a+")":"transparent"}var j={f:null,i:p,u:function(t,n){return function(r){var e=n(r);t.setAttribute("rx",I(e.x)),t.setAttribute("ry",I(e.y))}}},q={f:null,i:function(t,n,r){return 0===t?n:1===t?r:{width:g(t,n.width,r.width),height:g(t,n.height,r.height)}},u:function(t,n){return function(r){var e=n(r);t.setAttribute("width",I(e.width)),t.setAttribute("height",I(e.height))}}},P=Math.sin,O=Math.cos,z=Math.acos,L=Math.asin,C=Math.tan,R=Math.atan2,T=Math.PI/180,V=180/Math.PI,D=Math.sqrt,N=function(){function t(){var r=arguments.length>0&&void 0!==arguments[0]?arguments[0]:1,e=arguments.length>1&&void 0!==arguments[1]?arguments[1]:0,i=arguments.length>2&&void 0!==arguments[2]?arguments[2]:0,u=arguments.length>3&&void 0!==arguments[3]?arguments[3]:1,o=arguments.length>4&&void 0!==arguments[4]?arguments[4]:0,a=arguments.length>5&&void 0!==arguments[5]?arguments[5]:0;n(this,t),this.m=[r,e,i,u,o,a],this.i=null,this.w=null,this.s=null}return e(t,[{key:"point",value:function(t,n){var r=this.m;return{x:r[0]*t+r[2]*n+r[4],y:r[1]*t+r[3]*n+r[5]}}},{key:"translateSelf",value:function(){var t=arguments.length>0&&void 0!==arguments[0]?arguments[0]:0,n=arguments.length>1&&void 0!==arguments[1]?arguments[1]:0;if(!t&&!n)return this;var r=this.m;return r[4]+=r[0]*t+r[2]*n,r[5]+=r[1]*t+r[3]*n,this.w=this.s=this.i=null,this}},{key:"rotateSelf",value:function(){var t=arguments.length>0&&void 0!==arguments[0]?arguments[0]:0;if(t%=360){var n=P(t*=T),r=O(t),e=this.m,i=e[0],u=e[1];e[0]=i*r+e[2]*n,e[1]=u*r+e[3]*n,e[2]=e[2]*r-i*n,e[3]=e[3]*r-u*n,this.w=this.s=this.i=null}return this}},{key:"scaleSelf",value:function(){var t=arguments.length>0&&void 0!==arguments[0]?arguments[0]:1,n=arguments.length>1&&void 0!==arguments[1]?arguments[1]:1;if(1!==t||1!==n){var r=this.m;r[0]*=t,r[1]*=t,r[2]*=n,r[3]*=n,this.w=this.s=this.i=null}return this}},{key:"skewSelf",value:function(t,n){if(n%=360,(t%=360)||n){var r=this.m,e=r[0],i=r[1],u=r[2],o=r[3];t&&(t=C(t*T),r[2]+=e*t,r[3]+=i*t),n&&(n=C(n*T),r[0]+=u*n,r[1]+=o*n),this.w=this.s=this.i=null}return this}},{key:"resetSelf",value:function(){var t=arguments.length>0&&void 0!==arguments[0]?arguments[0]:1,n=arguments.length>1&&void 0!==arguments[1]?arguments[1]:0,r=arguments.length>2&&void 0!==arguments[2]?arguments[2]:0,e=arguments.length>3&&void 0!==arguments[3]?arguments[3]:1,i=arguments.length>4&&void 0!==arguments[4]?arguments[4]:0,u=arguments.length>5&&void 0!==arguments[5]?arguments[5]:0,o=this.m;return o[0]=t,o[1]=n,o[2]=r,o[3]=e,o[4]=i,o[5]=u,this.w=this.s=this.i=null,this}},{key:"recomposeSelf",value:function(){var t=arguments.length>0&&void 0!==arguments[0]?arguments[0]:null,n=arguments.length>1&&void 0!==arguments[1]?arguments[1]:null,r=arguments.length>2&&void 0!==arguments[2]?arguments[2]:null,e=arguments.length>3&&void 0!==arguments[3]?arguments[3]:null,i=arguments.length>4&&void 0!==arguments[4]?arguments[4]:null;return this.isIdentity||this.resetSelf(),t&&(t.x||t.y)&&this.translateSelf(t.x,t.y),n&&this.rotateSelf(n),r&&(r.x&&this.skewSelf(r.x,0),r.y&&this.skewSelf(0,r.y)),!e||1===e.x&&1===e.y||this.scaleSelf(e.x,e.y),i&&(i.x||i.y)&&this.translateSelf(i.x,i.y),this}},{key:"decompose",value:function(){var t=arguments.length>0&&void 0!==arguments[0]?arguments[0]:0,n=arguments.length>1&&void 0!==arguments[1]?arguments[1]:0,r=this.m,e=r[0]*r[0]+r[1]*r[1],i=[[r[0],r[1]],[r[2],r[3]]],u=D(e);if(0===u)return{origin:{x:r[4],y:r[5]},translate:{x:t,y:n},scale:{x:0,y:0},skew:{x:0,y:0},rotate:0};i[0][0]/=u,i[0][1]/=u;var o=r[0]*r[3]-r[1]*r[2]<0;o&&(u=-u);var a=i[0][0]*i[1][0]+i[0][1]*i[1][1];i[1][0]-=i[0][0]*a,i[1][1]-=i[0][1]*a;var l=D(i[1][0]*i[1][0]+i[1][1]*i[1][1]);if(0===l)return{origin:{x:r[4],y:r[5]},translate:{x:t,y:n},scale:{x:u,y:0},skew:{x:0,y:0},rotate:0};i[1][0]/=l,i[1][1]/=l,a/=l;var f=0;return i[1][1]<0?(f=z(i[1][1])*V,i[0][1]<0&&(f=360-f)):f=L(i[0][1])*V,o&&(f=-f),a=R(a,D(i[0][0]*i[0][0]+i[0][1]*i[0][1]))*V,{origin:{x:r[4],y:r[5]},translate:{x:t,y:n},scale:{x:u,y:l},skew:{x:a,y:0},rotate:f}}},{key:"toString",value:function(){return null===this.s&&(this.s="matrix("+this.m.map($).join(" ")+")"),this.s}},{key:"determinant",get:function(){var t=this.m;return t[0]*t[3]-t[1]*t[2]}},{key:"isIdentity",get:function(){if(null===this.i){var t=this.m;this.i=1===t[0]&&0===t[1]&&0===t[2]&&1===t[3]&&0===t[4]&&0===t[5]}return this.i}}]),t}(),G=/\.0+$/;function $(t){return Number.isInteger(t)?t:t.toFixed(14).replace(G,"")}Object.freeze({M:2,L:2,Z:0,H:1,V:1,C:6,Q:4,T:2,S:4,A:7});function H(t,n,r){return t+(n-t)*r}function Q(t,n,r){var e=arguments.length>3&&void 0!==arguments[3]&&arguments[3],i={x:H(t.x,n.x,r),y:H(t.y,n.y,r)};return e&&(i.a=function(t,n){return Math.atan2(n.y-t.y,n.x-t.x)}(t,n)),i}function U(t,n,r,e){var i=1-e;return i*i*t+2*i*e*n+e*e*r}function Y(t,n,r,e){return 2*(1-e)*(n-t)+2*e*(r-n)}function Z(t,n,r,e){var i=arguments.length>4&&void 0!==arguments[4]&&arguments[4],u={x:U(t.x,n.x,r.x,e),y:U(t.y,n.y,r.y,e)};return i&&(u.a=function(t,n,r,e){return Math.atan2(Y(t.y,n.y,r.y,e),Y(t.x,n.x,r.x,e))}(t,n,r,e)),u}function J(t,n,r,e,i){var u=i*i;return i*u*(e-t+3*(n-r))+3*u*(t+r-2*n)+3*i*(n-t)+t}function K(t,n,r,e,i){var u=1-i;return 3*(u*u*(n-t)+2*u*i*(r-n)+i*i*(e-r))}function W(t,n,r,e,i){var u=arguments.length>5&&void 0!==arguments[5]&&arguments[5],o={x:J(t.x,n.x,r.x,e.x,i),y:J(t.y,n.y,r.y,e.y,i)};return u&&(o.a=function(t,n,r,e,i){return Math.atan2(K(t.y,n.y,r.y,e.y,i),K(t.x,n.x,r.x,e.x,i))}(t,n,r,e,i)),o}function X(t,n,r){var e,i=arguments.length>3&&void 0!==arguments[3]&&arguments[3];if(nt(n)){if(null!=(e=r).start&&!nt(e))return Z(n,r.start,r,t,i)}else if(nt(r)){if(n.end)return Z(n,n.end,r,t,i)}else{if(n.end)return r.start?W(n,n.end,r.start,r,t,i):Z(n,n.end,r,t,i);if(r.start)return Z(n,r.start,r,t,i)}return Q(n,r,t,i)}function tt(t,n,r){var e=X(t,n,r,!0);return e.a=function(t){return arguments.length>1&&void 0!==arguments[1]&&arguments[1]?t+Math.PI:t}(e.a)/h,e}function nt(t){return!t.type||"corner"===t.type}var rt=new N;var et={f:function(t){return t?t.join(" "):""},i:function(n,r,e){if(0===n)return r;if(1===n)return e;var i=r.length;if(i!==e.length)return y(n,r,e);for(var u,o=new Array(i),a=0;a<i;a++){if((u=t(r[a]))!==t(e[a]))return y(n,r,e);if("number"===u)o[a]=d(n,r[a],e[a]);else{if(r[a]!==e[a])return y(n,r,e);o[a]=r[a]}}return o}},it={f:null,i:x,u:function(t,n){return function(r){var e=n(r);t.setAttribute("x1",I(e[0])),t.setAttribute("y1",I(e[1])),t.setAttribute("x2",I(e[2])),t.setAttribute("y2",I(e[3]))}}},ut={f:I,i:d},ot={f:I,i:function(t,n,r){var e=d(t,n,r);return e<=0?0:e>=1?1:e}},at={f:E,i:function(t,n,r){var e,i,u,o=n.length,a=r.length;if(o!==a)if(0===o)n=k(o=a,0);else if(0===a)a=o,r=k(o,0);else{var l=(u=(e=o)*(i=a)/function(t,n){for(var r;n;)r=n,n=t%n,t=r;return t||1}(e,i))<0?-u:u;n=S(n,Math.floor(l/o)),r=S(r,Math.floor(l/a)),o=a=l}for(var f=[],s=0;s<o;s++)f.push(v(g(t,n[s],r[s]),6));return f}};function lt(t,n,r,e,i,u,o,a){return n=function(t,n,r){for(var e,i,u,o=t.length-1,a={},l=0;l<=o;l++)(e=t[l]).e&&(e.e=n(e.e)),e.v&&"g"===(i=e.v).t&&i.r&&(u=r.getElementById(i.r))&&(a[i.r]=u.querySelectorAll("stop"));return a}(t,e,a),function(e){var i,u=r(e,t,ft);return u?"c"===u.t?B(u.v):"g"===u.t?(n[u.r]&&function(t,n){for(var r=0,e=t.length;r<e;r++)t[r].setAttribute("stop-color",B(n[r]))}(n[u.r],u.v),(i=u.r)?"url(#"+i+")":"none"):"none":"none"}}function ft(t,n,r){if(0===t)return n;if(1===t)return r;if(n&&r){var e=n.t;if(e===r.t)switch(n.t){case"c":return{t:e,v:w(t,n.v,r.v)};case"g":if(n.r===r.r)return{t:e,v:A(t,n.v,r.v),r:n.r}}}return y(t,n,r)}var st={blur:p,brightness:g,contrast:g,"drop-shadow":function(t,n,r){return 0===t?n:1===t?r:{blur:p(t,n.blur,r.blur),offset:m(t,n.offset,r.offset),color:w(t,n.color,r.color)}},grayscale:g,"hue-rotate":d,invert:g,opacity:g,saturate:g,sepia:g};function ct(t,n,r){if(0===t)return n;if(1===t)return r;var e=n.length;if(e!==r.length)return y(t,n,r);for(var i,u=[],o=0;o<e;o++){if(n[o].type!==r[o].type)return n;if(!(i=st[n[o].type]))return y(t,n,r);u.push({type:n.type,value:i(t,n[o].value,r[o].value)})}return u}var vt={blur:function(t){return t?function(n){t.setAttribute("stdDeviation",F(n))}:null},brightness:function(t,n,r){return(t=yt(r,n))?function(n){n=I(n),t.map((function(t){return t.setAttribute("slope",n)}))}:null},contrast:function(t,n,r){return(t=yt(r,n))?function(n){var r=I((1-n)/2);n=I(n),t.map((function(t){t.setAttribute("slope",n),t.setAttribute("intercept",r)}))}:null},"drop-shadow":function(t,n,r){var e=r.getElementById(n+"-blur");if(!e)return null;var i=r.getElementById(n+"-offset");if(!i)return null;var u=r.getElementById(n+"-flood");return u?function(t){e.setAttribute("stdDeviation",F(t.blur)),i.setAttribute("dx",I(t.offset.x)),i.setAttribute("dy",I(t.offset.y)),u.setAttribute("flood-color",B(t.color))}:null},grayscale:function(t){return t?function(n){t.setAttribute("values",E(function(t){return[.2126+.7874*(t=1-t),.7152-.7152*t,.0722-.0722*t,0,0,.2126-.2126*t,.7152+.2848*t,.0722-.0722*t,0,0,.2126-.2126*t,.7152-.7152*t,.0722+.9278*t,0,0,0,0,0,1,0]}(n)))}:null},"hue-rotate":function(t){return t?function(n){return t.setAttribute("values",I(n))}:null},invert:function(t,n,r){return(t=yt(r,n))?function(n){n=I(n)+" "+I(1-n),t.map((function(t){return t.setAttribute("tableValues",n)}))}:null},opacity:function(t,n,r){return(t=r.getElementById(n+"-A"))?function(n){return t.setAttribute("tableValues","0 "+I(n))}:null},saturate:function(t){return t?function(n){return t.setAttribute("values",I(n))}:null},sepia:function(t){return t?function(n){return t.setAttribute("values",E(function(t){return[.393+.607*(t=1-t),.769-.769*t,.189-.189*t,0,0,.349-.349*t,.686+.314*t,.168-.168*t,0,0,.272-.272*t,.534-.534*t,.131+.869*t,0,0,0,0,0,1,0]}(n)))}:null}};var ht=["R","G","B"];function yt(t,n){var r=ht.map((function(r){return t.getElementById(n+"-"+r)||null}));return-1!==r.indexOf(null)?null:r}var dt={fill:lt,"fill-opacity":ot,stroke:lt,"stroke-opacity":ot,"stroke-width":ut,"stroke-dashoffset":{f:I,i:d},"stroke-dasharray":at,opacity:ot,transform:function(n,r,e,i){if(!(n=function(n,r){if(!n||"object"!==t(n))return null;var e=!1;for(var i in n)n.hasOwnProperty(i)&&(n[i]&&n[i].length?(n[i].forEach((function(t){t.e&&(t.e=r(t.e))})),e=!0):delete n[i]);return e?n:null}(n,i)))return null;var u=function(t,i,u){var o=arguments.length>3&&void 0!==arguments[3]?arguments[3]:null;return n[t]?e(i,n[t],u):r&&r[t]?r[t]:o};return r&&r.a&&n.o?function(t){var r=e(t,n.o,tt);return rt.recomposeSelf(r,u("r",t,d,0)+r.a,u("k",t,m),u("s",t,m),u("t",t,m)).toString()}:function(t){return rt.recomposeSelf(u("o",t,X,null),u("r",t,d,0),u("k",t,m),u("s",t,m),u("t",t,m)).toString()}},"#filter":function(t,n,r,e,i,u,o,a){if(!n.items||!t||!t.length)return null;var l=function(t,n){var r=(t=t.map((function(t){return t&&vt[t[0]]?(n.getElementById(t[1]),vt[t[0]](n.getElementById(t[1]),t[1],n)):null}))).length;return function(n){for(var e=0;e<r;e++)t[e]&&t[e](n[e].value)}}(n.items,a);return l?(t=function(t,n){return t.map((function(t){return t.e=n(t.e),t}))}(t,e),function(n){l(r(n,t,ct))}):null},"#line":it,points:{f:E,i:x},d:et,r:ut,"#size":q,"#radius":j,_:function(t,n){if(Array.isArray(t))for(var r=0;r<t.length;r++)this[t[r]]=n;else this[t]=n}},gt=function(){function t(r){n(this,t),this.list=r,this.length=r.length}return e(t,[{key:"setAttribute",value:function(t,n){for(var r=this.list,e=0;e<this.length;e++)r[e].setAttribute(t,n)}},{key:"removeAttribute",value:function(t){for(var n=this.list,r=0;r<this.length;r++)n[r].removeAttribute(t)}},{key:"style",value:function(t,n){for(var r=this.list,e=0;e<this.length;e++)r[e].style[t]=n}}]),t}(),mt=/-./g,pt=function(t,n){return n.toUpperCase()};function bt(t){return"function"==typeof t?t:y}function wt(t){return t?"function"==typeof t?t:Array.isArray(t)?function(t){var n=arguments.length>1&&void 0!==arguments[1]?arguments[1]:o;if(!Array.isArray(t))return n;switch(t.length){case 1:return c(t[0])||n;case 2:return c(t[0],t[1])||n;case 4:return l(t[0],t[1],t[2],t[3])||n}return n}(t,null):function(t,n){var r=arguments.length>2&&void 0!==arguments[2]?arguments[2]:o;switch(t){case"linear":return o;case"steps":return c(n.steps||1,n.jump||0)||r;case"bezier":case"cubic-bezier":return l(n.x1||0,n.y1||0,n.x2||0,n.y2||0)||r}return r}(t.type,t.value,null):null}function At(t,n,r){var e=arguments.length>3&&void 0!==arguments[3]&&arguments[3],i=n.length-1;if(t<=n[0].t)return e?[0,0,n[0].v]:n[0].v;if(t>=n[i].t)return e?[i,1,n[i].v]:n[i].v;var u,o=n[0],a=null;for(u=1;u<=i;u++){if(!(t>n[u].t)){a=n[u];break}o=n[u]}return null==a?e?[i,1,n[i].v]:n[i].v:o.t===a.t?e?[u,1,a.v]:a.v:(t=(t-o.t)/(a.t-o.t),o.e&&(t=o.e(t)),e?[u,t,r(t,o.v,a.v)]:r(t,o.v,a.v))}function xt(t,n){var r=arguments.length>2&&void 0!==arguments[2]?arguments[2]:null;return t&&t.length?"function"!=typeof n?null:("function"!=typeof r&&(r=null),function(e){var i=At(e,t,n);return null!=i&&r&&(i=r(i)),i}):null}function kt(t,n){return t.t-n.t}function St(n,r,e,i,u){var o,a="@"===e[0],l="#"===e[0],f=dt[e],s=y;switch(a?(o=e.substr(1),e=o.replace(mt,pt)):l&&(e=e.substr(1)),t(f)){case"function":if(s=f(i,u,At,wt,e,a,r,n),l)return s;break;case"string":s=xt(i,bt(f));break;case"object":if((s=xt(i,bt(f.i),f.f))&&"function"==typeof f.u)return f.u(r,s,e,a,n)}return s?function(t,n,r){if(arguments.length>3&&void 0!==arguments[3]&&arguments[3])return t instanceof gt?function(e){return t.style(n,r(e))}:function(e){return t.style[n]=r(e)};if(Array.isArray(n)){var e=n.length;return function(i){var u=r(i);if(null==u)for(var o=0;o<e;o++)t[o].removeAttribute(n);else for(var a=0;a<e;a++)t[a].setAttribute(n,u)}}return function(e){var i=r(e);null==i?t.removeAttribute(n):t.setAttribute(n,i)}}(r,e,s,a):null}function _t(n,r,e,i){if(!i||"object"!==t(i))return null;var u=null,o=null;return Array.isArray(i)?o=function(t){if(!t||!t.length)return null;for(var n=0;n<t.length;n++)t[n].e&&(t[n].e=wt(t[n].e));return t.sort(kt)}(i):(o=i.keys,u=i.data||null),o?St(n,r,e,o,u):null}function Mt(t,n,r){if(!r)return null;var e=[];for(var i in r)if(r.hasOwnProperty(i)){var u=_t(t,n,i,r[i]);u&&e.push(u)}return e.length?e:null}function It(t,n){if(!n.duration||n.duration<0)return null;var r=function(t,n){if(!n)return null;var r=[];if(Array.isArray(n))for(var e=n.length,i=0;i<e;i++){var u=n[i];if(2===u.length){var o=null;if("string"==typeof u[0])o=t.getElementById(u[0]);else if(Array.isArray(u[0])){o=[];for(var a=0;a<u[0].length;a++)if("string"==typeof u[0][a]){var l=t.getElementById(u[0][a]);l&&o.push(l)}o=o.length?1===o.length?o[0]:new gt(o):null}if(o){var f=Mt(t,o,u[1]);f&&(r=r.concat(f))}}}else for(var s in n)if(n.hasOwnProperty(s)){var c=t.getElementById(s);if(c){var v=Mt(t,c,n[s]);v&&(r=r.concat(v))}}return r.length?r:null}(t,n.elements);return r?function(t,n){var r=arguments.length>2&&void 0!==arguments[2]?arguments[2]:1/0,e=arguments.length>3&&void 0!==arguments[3]?arguments[3]:1,i=arguments.length>4&&void 0!==arguments[4]&&arguments[4],u=arguments.length>5&&void 0!==arguments[5]?arguments[5]:1,o=t.length,a=e>0?n:0;i&&r%2==0&&(a=n-a);var l=null;return function(f,s){var c=f%n,v=1+(f-c)/n;s*=e,i&&v%2==0&&(s=-s);var h=!1;if(v>r)c=a,h=!0,-1===u&&(c=e>0?0:n);else if(s<0&&(c=n-c),c===l)return!1;l=c;for(var y=0;y<o;y++)t[y](c);return h}}(r,n.duration,n.iterations||1/0,n.direction||1,!!n.alternate,n.fill||1):null}var Et=function(){function t(r){var e=arguments.length>1&&void 0!==arguments[1]?arguments[1]:{};n(this,t),this._id=0,this._running=!1,this._animations=r,this.direction=e.direction||1,this.speed=e.speed||1,this.fps=e.fps||100,this.offset=e.offset||0}return e(t,[{key:"_start",value:function(){var t=this,n=arguments.length>0&&void 0!==arguments[0]?arguments[0]:0,r=-1/0,e=null,i={},u=function u(o){t._running=!0,null==e&&(e=o);var a=Math.round((o-e+n)*t.speed),l=t.fps?1e3/t.fps:0;if(a>r+l){t.offset=a,r=a;for(var f=t._animations,s=f.length,c=0,v=0;v<s;v++)i[v]?c++:(i[v]=f[v](a,t.direction),i[v]&&c++);if(c===s)return void t._stop()}t._id=window.requestAnimationFrame(u)};this._id=window.requestAnimationFrame(u)}},{key:"_stop",value:function(){this._id&&window.cancelAnimationFrame(this._id),this._running=!1}},{key:"play",value:function(){this._running||this._start(this.offset)}},{key:"stop",value:function(){this._stop(),this.offset=0;var t=this.direction,n=this._animations;requestAnimationFrame((function(){for(var r=0;r<n.length;r++)n[r](0,t)}))}},{key:"restart",value:function(){this._stop(),this.offset=0,this._start()}},{key:"pause",value:function(){this._stop()}},{key:"reverse",value:function(){this.direction=-this.direction}}],[{key:"build",value:function(n){if(!(n=function(t){if(!t||!t.root||!Array.isArray(t.animations))return null;var n=window.document.getElementById(t.root);if(!n)return null;var r=t.animations.map((function(t){return It(n,t)})).filter((function(t){return!!t}));return r.length?{element:n,animations:r,options:t.options||void 0}:null}(n)))return null;var r=n.element,e=n.options||{},i=new t(n.animations,n.options);return function(t,n,r){var e=arguments.length>3&&void 0!==arguments[3]?arguments[3]:null;if("click"===r){return void n.addEventListener("click",(function r(){n.removeEventListener("click",r),t.play()}))}if("hover"===r)return n.addEventListener("mouseenter",(function(){return t.play()})),void n.addEventListener("mouseleave","freeze"===e?function(){return t.pause()}:function(){return t.stop()});t.play()}(i,r,e.start,e.hover),i}}]),t}();return function(){for(var t=0,n=["ms","moz","webkit","o"],r=0;r<n.length&&!window.requestAnimationFrame;++r)window.requestAnimationFrame=window[n[r]+"RequestAnimationFrame"],window.cancelAnimationFrame=window[n[r]+"CancelAnimationFrame"]||window[n[r]+"CancelRequestAnimationFrame"];window.requestAnimationFrame||(window.requestAnimationFrame=function(n){var r=Date.now(),e=Math.max(0,16-(r-t)),i=window.setTimeout((function(){n(r+e)}),e);return t=r+e,i},window.cancelAnimationFrame=window.clearTimeout)}(),Et}));
__SVGATOR_PLAYER__.build({"root":"ersidrqehkte1","animations":[{"duration":5000,"direction":-1,"iterations":0,"fill":1,"alternate":true,"elements":{"ersidrqehkte3":{"transform":{"data":{"s":{"x":-1.2845700754811302,"y":1.2998978910959602},"t":{"x":-306.956005,"y":-381.69908592000013}},"keys":{"o":[{"t":900,"v":{"x":174.26883070499997,"y":-168.68071305,"type":"corner"}},{"t":1700,"v":{"x":205.69826298999976,"y":275.55532069499856,"type":"corner"}}],"r":[{"t":900,"v":0},{"t":1700,"v":-44.74708648191881}]}}},"ersidrqehkte4":{"transform":{"data":{"t":{"x":-496.9392852741298,"y":-294.40390015076974}},"keys":{"o":[{"t":0,"v":{"x":754.1692850500006,"y":175.42316999999943,"type":"corner"}},{"t":300,"v":{"x":643.84565713,"y":283.94792302,"type":"corner"}},{"t":700,"v":{"x":507.3138458599989,"y":287.00847302000005,"type":"corner"}}],"r":[{"t":300,"v":-43.27839921287018},{"t":400,"v":1.0275099383934918}]}}},"ersidrqehkte10":{"transform":{"data":{"t":{"x":-604.821955,"y":-176.46305067}},"keys":{"o":[{"t":300,"v":{"x":533.6109828799998,"y":-144.34328967000025,"type":"corner"}},{"t":700,"v":{"x":567.2234549999998,"y":131.46067393999977,"type":"corner"}}],"r":[{"t":300,"v":179.26423863129284},{"t":700,"v":338.6356806262007}]}}},"ersidrqehkte17":{"transform":{"data":{"t":{"x":-656.71919,"y":-387.51346}},"keys":{"o":[{"t":0,"v":{"x":725.52684896,"y":197.915,"type":"corner"}},{"t":300,"v":{"x":635.6673219600001,"y":287.00847301999994,"type":"corner"}}]}}},"ersidrqehkte20":{"transform":{"data":{"t":{"x":-187.84672499500016,"y":-455.3875000000001}},"keys":{"o":[{"t":600,"v":{"x":551.71009493,"y":515.8797061950002,"type":"cusp","end":{"x":596.8753765182952,"y":436.48235672484935}}},{"t":4000,"v":{"x":366.90897463499937,"y":430.5513818050002,"type":"cusp","start":{"x":399.405173028822,"y":373.4253786097867}}}]}}},"ersidrqehkte21":{"transform":{"data":{"t":{"x":-450.87731933500004,"y":-426.23699951000003}},"keys":{"o":[{"t":400,"v":{"x":450.87731933500004,"y":426.23699951000003,"type":"cusp","end":{"x":501.39513818643155,"y":419.18844860439003}}},{"t":4000,"v":{"x":428.98226103499957,"y":208.61145728000025,"type":"cusp","start":{"x":465.32958371492145,"y":203.5400595035936}}}]}}},"ersidrqehkte23":{"transform":{"data":{"t":{"x":621.177,"y":707.341}},"keys":{"o":[{"t":0,"v":{"x":580.1357790000001,"y":-0.7376399999999421,"type":"corner"}},{"t":1200,"v":{"x":-292.264233419201,"y":-10.745433499999603,"type":"corner"}},{"t":2500,"v":{"x":-292.26423341500174,"y":-10.5390289999998,"type":"corner"}},{"t":5000,"v":{"x":59.73491000499405,"y":-0.7376399999994874,"type":"corner"}}]}}},"ersidrqehkte28":{"transform":{"data":{"o":{"x":997.25772722,"y":196.78714157,"type":"corner"},"t":{"x":-997.1686625589285,"y":-197.79347981228455}},"keys":{"r":[{"t":3000,"v":-15.245067257417805},{"t":5000,"v":-0.8339660456193293}]}}},"ersidrqehkte36":{"transform":{"data":{"o":{"x":950.37746,"y":373.82708703,"type":"corner"},"t":{"x":-982.837489051632,"y":-471.0128275030196}},"keys":{"r":[{"t":3800,"v":3.0168528257763105},{"t":4300,"v":5.599992585951029},{"t":5000,"v":0.6543052304042853}]}}},"ersidrqehkte39":{"transform":{"data":{"o":{"x":971.2846,"y":174.30723013,"type":"corner"},"t":{"x":-971.2846,"y":-174.30723013}},"keys":{"r":[{"t":3000,"v":-6.18252598951856},{"t":3800,"v":7.995760448465576},{"t":5000,"v":-4.217052053251025}]}}},"ersidrqehkte47":{"transform":{"data":{"t":{"x":-781.6408649950013,"y":-210.54110499999973}},"keys":{"o":[{"t":0,"v":{"x":449.64569961999996,"y":428.23650462,"type":"cusp","end":{"x":270.8777297552385,"y":167.2163210644369}}},{"t":4000,"v":{"x":635.6673219599998,"y":216.1799839999999,"type":"cusp","start":{"x":571.7502278756011,"y":70.23795637249563}}}]}}},"ersidrqehkte48":{"transform":{"data":{"t":{"x":4.9974460125667974e-9,"y":1.4779288903810084e-12}},"keys":{"o":[{"t":400,"v":{"x":328.91276658000004,"y":361.63419,"type":"corner"}},{"t":1200,"v":{"x":532.7283888999982,"y":678.5702665000002,"type":"corner"}},{"t":2500,"v":{"x":731.7626953199982,"y":211.93428166500013,"type":"corner"}}]}}},"ersidrqehkte49":{"transform":{"data":{"t":{"x":-496.9392852741298,"y":-294.40390015076974}},"keys":{"o":[{"t":0,"v":{"x":754.1692850500006,"y":175.42316999999943,"type":"corner"}},{"t":300,"v":{"x":643.84565713,"y":283.94792302,"type":"corner"}},{"t":700,"v":{"x":330.2170611349987,"y":359.30309156499993,"type":"corner"}},{"t":800,"v":{"x":269.42563283,"y":403.620565015,"type":"corner"}},{"t":1000,"v":{"x":269.4664876549984,"y":404.4401048649998,"type":"corner"}},{"t":1500,"v":{"x":163.9894265699986,"y":407.2370780900003,"type":"corner"}},{"t":1800,"v":{"x":142.39324058499858,"y":407.2370780900003,"type":"corner"}}],"r":[{"t":300,"v":-43.27839921287018},{"t":400,"v":1.0275099383934918},{"t":600,"v":-17.923091987228844},{"t":700,"v":-37.04978690515318},{"t":800,"v":-0.6858099708014511}]}}},"ersidrqehkte54":{"transform":{"data":{"t":{"x":-496.9392852741298,"y":-294.40390015076974}},"keys":{"o":[{"t":0,"v":{"x":754.1692850500006,"y":175.42316999999943,"type":"corner"}},{"t":300,"v":{"x":643.84565713,"y":283.94792302,"type":"corner"}},{"t":700,"v":{"x":330.2170611349987,"y":359.30309156499993,"type":"corner"}}],"r":[{"t":300,"v":-43.27839921287018},{"t":400,"v":1.0275099383934918},{"t":600,"v":-17.923091987228844},{"t":700,"v":-37.04978690515318}]}}},"ersidrqehkte59":{"transform":{"data":{"t":{"x":-187.84672499500016,"y":-455.3875000000001}},"keys":{"o":[{"t":0,"v":{"x":453.77899999499874,"y":428.23650961500016,"type":"cusp","end":{"x":537.9463391927676,"y":128.0505329557746}}},{"t":4000,"v":{"x":69.04602072000004,"y":348.71270885999996,"type":"cusp","start":{"x":148.1290375358671,"y":130.51832803308423}}}]}}}}}],"options":{"start":"load","hover":"freeze"}})]]></script></svg>