<svg id="ecoi746ln70h1" xmlns="http://www.w3.org/2000/svg" xmlns:xlink="http://www.w3.org/1999/xlink" viewBox="0 0 946 662.820000" shape-rendering="geometricPrecision" text-rendering="geometricPrecision"><defs><linearGradient id="ecoi746ln70h3-fill" x1="234.560000" y1="283.200000" x2="234.560000" y2="231.170000" spreadMethod="pad" gradientUnits="userSpaceOnUse"><stop id="ecoi746ln70h3-fill-0" offset="0%" stop-color="rgba(128,128,128,0.25)"/><stop id="ecoi746ln70h3-fill-1" offset="54%" stop-color="rgba(128,128,128,0.12)"/><stop id="ecoi746ln70h3-fill-2" offset="100%" stop-color="rgba(128,128,128,0.1)"/></linearGradient><linearGradient id="ecoi746ln70h6-fill" x1="421" y1="184.600000" x2="421" y2="143.590000" spreadMethod="pad" gradientUnits="userSpaceOnUse"><stop id="ecoi746ln70h6-fill-0" offset="0%" stop-color="rgba(128,128,128,0.25)"/><stop id="ecoi746ln70h6-fill-1" offset="54%" stop-color="rgba(128,128,128,0.12)"/><stop id="ecoi746ln70h6-fill-2" offset="100%" stop-color="rgba(128,128,128,0.1)"/></linearGradient><linearGradient id="ecoi746ln70h9-fill" x1="779.750000" y1="193.650000" x2="779.750000" y2="135.980000" spreadMethod="pad" gradientUnits="userSpaceOnUse"><stop id="ecoi746ln70h9-fill-0" offset="0%" stop-color="rgba(128,128,128,0.25)"/><stop id="ecoi746ln70h9-fill-1" offset="54%" stop-color="rgba(128,128,128,0.12)"/><stop id="ecoi746ln70h9-fill-2" offset="100%" stop-color="rgba(128,128,128,0.1)"/></linearGradient><linearGradient id="ecoi746ln70h12-fill" x1="955.090000" y1="258.090000" x2="955.090000" y2="208.090000" spreadMethod="pad" gradientUnits="userSpaceOnUse"><stop id="ecoi746ln70h12-fill-0" offset="0%" stop-color="rgba(128,128,128,0.25)"/><stop id="ecoi746ln70h12-fill-1" offset="54%" stop-color="rgba(128,128,128,0.12)"/><stop id="ecoi746ln70h12-fill-2" offset="100%" stop-color="rgba(128,128,128,0.1)"/></linearGradient><linearGradient id="ecoi746ln70h15-fill" x1="566" y1="144.090000" x2="614" y2="144.090000" spreadMethod="pad" gradientUnits="userSpaceOnUse"><stop id="ecoi746ln70h15-fill-0" offset="0%" stop-color="rgba(128,128,128,0.25)"/><stop id="ecoi746ln70h15-fill-1" offset="54%" stop-color="rgba(128,128,128,0.12)"/><stop id="ecoi746ln70h15-fill-2" offset="100%" stop-color="rgba(128,128,128,0.1)"/></linearGradient><linearGradient id="ecoi746ln70h18-fill" x1="275.920000" y1="743.910000" x2="275.920000" y2="646.420000" spreadMethod="pad" gradientUnits="userSpaceOnUse"><stop id="ecoi746ln70h18-fill-0" offset="0%" stop-color="rgba(128,128,128,0.25)"/><stop id="ecoi746ln70h18-fill-1" offset="54%" stop-color="rgba(128,128,128,0.12)"/><stop id="ecoi746ln70h18-fill-2" offset="100%" stop-color="rgba(128,128,128,0.1)"/></linearGradient><linearGradient id="ecoi746ln70h19-fill" x1="235.470000" y1="719.270000" x2="235.470000" y2="656.060000" spreadMethod="pad" gradientUnits="userSpaceOnUse"><stop id="ecoi746ln70h19-fill-0" offset="0%" stop-color="rgba(128,128,128,0.25)"/><stop id="ecoi746ln70h19-fill-1" offset="54%" stop-color="rgba(128,128,128,0.12)"/><stop id="ecoi746ln70h19-fill-2" offset="100%" stop-color="rgba(128,128,128,0.1)"/></linearGradient><linearGradient id="ecoi746ln70h22-fill" x1="473" y1="39.640000" x2="473" y2="0" spreadMethod="pad" gradientUnits="userSpaceOnUse"><stop id="ecoi746ln70h22-fill-0" offset="0%" stop-color="rgba(128,128,128,0.25)"/><stop id="ecoi746ln70h22-fill-1" offset="54%" stop-color="rgba(128,128,128,0.12)"/><stop id="ecoi746ln70h22-fill-2" offset="100%" stop-color="rgba(128,128,128,0.1)"/></linearGradient><linearGradient id="ecoi746ln70h25-fill" x1="164.120000" y1="19.400000" x2="164.120000" y2="0" spreadMethod="pad" gradientUnits="userSpaceOnUse"><stop id="ecoi746ln70h25-fill-0" offset="0%" stop-color="rgba(128,128,128,0.25)"/><stop id="ecoi746ln70h25-fill-1" offset="54%" stop-color="rgba(128,128,128,0.12)"/><stop id="ecoi746ln70h25-fill-2" offset="100%" stop-color="rgba(128,128,128,0.1)"/></linearGradient><linearGradient id="ecoi746ln70h27-fill" x1="608.040000" y1="637.160000" x2="608.040000" y2="273.590000" spreadMethod="pad" gradientUnits="userSpaceOnUse"><stop id="ecoi746ln70h27-fill-0" offset="0%" stop-color="rgba(128,128,128,0.25)"/><stop id="ecoi746ln70h27-fill-1" offset="54%" stop-color="rgba(128,128,128,0.12)"/><stop id="ecoi746ln70h27-fill-2" offset="100%" stop-color="rgba(128,128,128,0.1)"/></linearGradient></defs><g id="ecoi746ln70h2" transform="matrix(1 0 0 1 -20.19649017000002 -30.85394786500022)"><path id="ecoi746ln70h3" d="M229.440000,244.770000L232.250000,248.900000L238.870000,244.400000L243.100000,252.400000L237.310000,256.340000L251.360000,277L242.260000,283.180000L228.200000,262.510000L224.070000,265.320000L219,257.900000L223.130000,255.090000L220.340000,251C220.340000,251,214.250000,243.650000,220.770000,237.410000L229.870000,231.230000L234.370000,237.850000L230.240000,240.660000C228.903287,241.586621,228.548439,243.409651,229.440000,244.770000Z" transform="matrix(1 0 0 1 -127 -118.59000000000000)" fill="url(#ecoi746ln70h3-fill)" stroke="none" stroke-width="1"/><path id="ecoi746ln70h4" d="M231.440000,241.770000L234.250000,245.900000L240.870000,241.400000L245.100000,249.400000L239.310000,253.340000L253.360000,274L244.260000,280.180000L230.200000,259.510000L226.070000,262.320000L221,254.900000L225.130000,252.090000L222.340000,248C222.340000,248,216.250000,240.650000,222.770000,234.410000L231.870000,228.230000L236.370000,234.850000L232.240000,237.660000C230.903287,238.586621,230.548439,240.409651,231.440000,241.770000Z" transform="matrix(1 0 0 1 -127 -118.59000000000000)" fill="rgb(59,89,152)" stroke="none" stroke-width="1"/></g><g id="ecoi746ln70h5" transform="matrix(1 0 0 1 -29.80000000000001 22.89769070499990)"><path id="ecoi746ln70h6" d="M441,150.590000L446,149.590000C446,149.590000,441.800000,154.290000,441,154.590000L441,154.590000C440.925343,155.588607,440.925343,156.591393,441,157.590000C431.400000,198.790000,396,180.590000,396,180.590000C408.900000,180.890000,410,175.590000,410,175.590000C402.500000,174.490000,401,169.590000,401,169.590000C402.393310,170.325004,404.116493,169.894209,405,168.590000C396.900000,166.490000,398,158.590000,398,158.590000C399.443737,159.632384,401.130940,160.286606,402.900000,160.490000C402,159.390000,394.400000,150.290000,399,145.590000C399,145.590000,404.600000,155.590000,419.300000,156.490000L420.300000,156.290000C420.129967,155.569760,420.062634,154.829095,420.100000,154.090000C420.100000,148.291010,424.801010,143.590000,430.600000,143.590000C437.600000,143.590000,439.100000,147.590000,439.100000,147.590000L444.100000,144.590000C444,144.590000,443.500000,149.590000,441,150.590000Z" transform="matrix(1 0 0 1 -127 -139.87316877500001)" fill="url(#ecoi746ln70h6-fill)" stroke="none" stroke-width="1"/><path id="ecoi746ln70h7" d="M443,147.590000L448,146.590000C448,146.590000,443.800000,151.290000,443,151.590000L443,151.590000C442.925343,152.588607,442.925343,153.591393,443,154.590000C433.400000,195.790000,398,177.590000,398,177.590000C410.900000,177.890000,412,172.590000,412,172.590000C404.500000,171.490000,403,166.590000,403,166.590000C404.393310,167.325004,406.116493,166.894209,407,165.590000C398.900000,163.490000,400,155.590000,400,155.590000C401.443737,156.632384,403.130940,157.286606,404.900000,157.490000C404,156.390000,396.400000,147.290000,401,142.590000C401,142.590000,406.600000,152.590000,421.300000,153.490000L422.300000,153.290000C422.129967,152.569760,422.062634,151.829095,422.100000,151.090000C422.100000,145.291010,426.801010,140.590000,432.600000,140.590000C439.600000,140.590000,441.100000,144.590000,441.100000,144.590000L446.100000,141.590000C446,141.590000,445.500000,146.590000,443,147.590000Z" transform="matrix(1 0 0 1 -129 -133.38366845000002)" fill="rgb(0,172,237)" stroke="none" stroke-width="1"/></g><g id="ecoi746ln70h8" transform="matrix(0.98580454356929 -0.16789699782352 0.16789699782352 0.98580454356929 -6.93146685467400 119.06842222264618)"><path id="ecoi746ln70h9" d="M790.830000,190.850000L796.310000,172C796.310000,172,796.400000,167.760000,792.600000,166.860000C788.800000,165.960000,787.380000,166.170000,785.070000,167.690000L779.310000,187.470000L769.710000,184.670000L778.380000,154.910000L787.980000,157.710000L786.690000,162.130000C786.690000,162.130000,791.690000,156.910000,797.940000,159.260000C803.780000,161.380000,807.130000,166.310000,805.830000,174.370000L806.020000,174.430000L800.420000,193.630000ZM768,147.740000C764.818840,146.812162,762.992162,143.481160,763.920000,140.300000C764.847838,137.118840,768.178840,135.292162,771.360000,136.220000C774.541160,137.147838,776.367838,140.478840,775.440000,143.660000C774.994436,145.187647,773.960266,146.475726,772.564996,147.240874C771.169725,148.006023,769.527647,148.185564,768,147.740000ZM763,182.740000L753.400000,179.940000L762.070000,150.180000L771.670000,152.980000Z" transform="matrix(0.99999152268224 -0.00411759197380 0.00411759197380 0.99999152268224 -118.20079595823903 -112.60282575704279)" fill="url(#ecoi746ln70h9-fill)" stroke="none" stroke-width="1"/><path id="ecoi746ln70h10" d="M792.830000,187.850000L798.310000,169C798.310000,169,798.400000,164.760000,794.600000,163.860000C790.800000,162.960000,789.380000,163.170000,787.070000,164.690000L781.310000,184.470000L771.710000,181.670000L780.380000,151.910000L789.980000,154.710000L788.690000,159.130000C788.690000,159.130000,793.690000,153.910000,799.940000,156.260000C805.780000,158.380000,809.130000,163.310000,807.830000,171.370000L808.020000,171.430000L802.420000,190.630000ZM770,144.740000C766.818840,143.812162,764.992162,140.481160,765.920000,137.300000C766.847838,134.118840,770.178840,132.292162,773.360000,133.220000C776.541160,134.147838,778.367838,137.478840,777.440000,140.660000C776.994436,142.187647,775.960266,143.475726,774.564996,144.240874C773.169725,145.006023,771.527647,145.185564,770,144.740000ZM765,179.740000L755.400000,176.940000L764.070000,147.180000L773.670000,149.980000Z" transform="matrix(1 0 0 1 -120.20079595932448 -109.60282575860207)" fill="rgb(0,119,181)" stroke="none" stroke-width="1"/></g><g id="ecoi746ln70h11" transform="matrix(1 0 0 1 4.38378636499942 -3.05230788500010)"><path id="ecoi746ln70h12" d="M974,228.090000C972.900000,233.390000,972.100000,240.590000,961,243.090000C961,243.090000,954.500000,244.790000,952.400000,240.090000C951.100000,245.190000,949.800000,249.890000,949,251.090000C947.496317,253.535556,945.825683,255.874444,944,258.090000C942.174317,260.305556,944.900000,249.090000,945,247.090000C945.100000,243.990000,948,230.090000,948,230.090000C948,230.090000,945.300000,220.290000,952,219.090000C952,219.090000,957.500000,217.790000,956,225.090000C956,225.090000,954.900000,229.890000,953.500000,235.390000L954,236.090000C954.790571,237.660713,956.270755,238.770852,958,239.090000C960.700000,239.390000,967.800000,234.590000,968,226.090000C968.200000,217.590000,966.400000,215.190000,959,213.090000C951.600000,210.990000,945.300000,214.590000,943,221.090000C940.400000,228.490000,942.500000,230.290000,944,232.090000L943,237.090000C943,237.090000,935.800000,234.690000,936,227.090000C936.200000,219.490000,940.500000,208.090000,956,208.090000C971.500000,208.090000,975.100000,222.690000,974,228.090000Z" transform="matrix(1 0 0 1 -127 -118.59000000000000)" fill="url(#ecoi746ln70h12-fill)" stroke="none" stroke-width="1"/><path id="ecoi746ln70h13" d="M976,225.090000C974.900000,230.390000,974.100000,237.590000,963,240.090000C963,240.090000,956.500000,241.790000,954.400000,237.090000C953.100000,242.190000,951.800000,246.890000,951,248.090000C949.496317,250.535556,947.825683,252.874444,946,255.090000C944.174317,257.305556,946.900000,246.090000,947,244.090000C947.100000,240.990000,950,227.090000,950,227.090000C950,227.090000,947.300000,217.290000,954,216.090000C954,216.090000,959.500000,214.790000,958,222.090000C958,222.090000,956.900000,226.890000,955.500000,232.390000L956,233.090000C956.790571,234.660713,958.270755,235.770852,960,236.090000C962.700000,236.390000,969.800000,231.590000,970,223.090000C970.200000,214.590000,968.400000,212.190000,961,210.090000C953.600000,207.990000,947.300000,211.590000,945,218.090000C942.400000,225.490000,944.500000,227.290000,946,229.090000L945,234.090000C945,234.090000,937.800000,231.690000,938,224.090000C938.200000,216.490000,942.500000,205.090000,958,205.090000C973.500000,205.090000,977.100000,219.690000,976,225.090000Z" transform="matrix(1 0 0 1 -127 -118.59000000000000)" fill="rgb(189,8,28)" stroke="none" stroke-width="1"/></g><g id="ecoi746ln70h14" transform="matrix(1 0 0 1 8.46000000000026 18.88994900000000)"><path id="ecoi746ln70h15" d="M612.500000,144.590000L606,144.590000L606,151.090000C605.978975,151.909560,605.319560,152.568975,604.500000,152.590000L603.500000,152.590000C602.680440,152.568975,602.021025,151.909560,602,151.090000L602,144.590000L595.500000,144.590000C594.680440,144.568975,594.021025,143.909560,594,143.090000L594,142.090000C594.021025,141.270440,594.680440,140.611025,595.500000,140.590000L602,140.590000L602,134.090000C602.021025,133.270440,602.680440,132.611025,603.500000,132.590000L604.500000,132.590000C605.319560,132.611025,605.978975,133.270440,606,134.090000L606,140.590000L612.500000,140.590000C613.319560,140.611025,613.978975,141.270440,614,142.090000L614,143.090000C613.978975,143.909560,613.319560,144.568975,612.500000,144.590000ZM589.900000,127C591.254677,128.745498,591.993122,130.890506,592,133.100000C591.888066,137.382288,589.202568,141.173578,585.200000,142.700000C585.500000,143.700000,586.500000,144.800000,589,146.600000C593.800000,150.100000,594,156.600000,594,156.600000L594,156.600000L594,157.100000C594,162.300000,587.700000,166.600000,580,166.600000C572.300000,166.600000,566,162.300000,566,157.100000C566,152.100000,571.700000,148,579,147.600000L579,143.500000C573.400000,142.800000,569,138.400000,569,133.100000C569,127.300000,574.100000,122.600000,580.500000,122.600000L581,122.600000C581,122.600000,592.500000,121.700000,594,121.600000C595.500000,121.500000,595,123.600000,595,123.600000ZM573,156.590000C573,159.890000,576.400000,162.590000,580.500000,162.590000C584.600000,162.590000,588,159.890000,588,156.590000C588,153.290000,584.600000,150.590000,580.500000,150.590000C576.400000,150.590000,573,153.290000,573,156.590000ZM585.200000,132.090000C584.400000,128.290000,581.600000,125.590000,579,126.090000C576.400000,126.590000,575,130.190000,575.800000,133.990000C576.600000,137.790000,579.400000,140.490000,582,139.990000C584.600000,139.490000,586,136,585.200000,132.090000Z" transform="matrix(1 0 0 1 -127 -118.59000000000000)" fill="url(#ecoi746ln70h15-fill)" stroke="none" stroke-width="1"/><path id="ecoi746ln70h16" d="M614.500000,141.590000L608,141.590000L608,148.090000C607.978975,148.909560,607.319560,149.568975,606.500000,149.590000L605.500000,149.590000C604.680440,149.568975,604.021025,148.909560,604,148.090000L604,141.590000L597.500000,141.590000C596.680440,141.568975,596.021025,140.909560,596,140.090000L596,139.090000C596.021025,138.270440,596.680440,137.611025,597.500000,137.590000L604,137.590000L604,131.090000C604.021025,130.270440,604.680440,129.611025,605.500000,129.590000L606.500000,129.590000C607.319560,129.611025,607.978975,130.270440,608,131.090000L608,137.590000L614.500000,137.590000C615.319560,137.611025,615.978975,138.270440,616,139.090000L616,140.090000C615.978975,140.909560,615.319560,141.568975,614.500000,141.590000ZM591.900000,124C593.254677,125.745498,593.993122,127.890506,594,130.100000C593.888066,134.382288,591.202568,138.173578,587.200000,139.700000C587.500000,140.700000,588.500000,141.800000,591,143.600000C595.800000,147.100000,596,153.600000,596,153.600000L596,153.600000L596,154.100000C596,159.300000,589.700000,163.600000,582,163.600000C574.300000,163.600000,568,159.300000,568,154.100000C568,149.100000,573.700000,145,581,144.600000L581,140.500000C575.400000,139.800000,571,135.400000,571,130.100000C571,124.300000,576.100000,119.600000,582.500000,119.600000L583,119.600000C583,119.600000,594.500000,118.700000,596,118.600000C597.500000,118.500000,597,120.600000,597,120.600000ZM575,153.590000C575,156.890000,578.400000,159.590000,582.500000,159.590000C586.600000,159.590000,590,156.890000,590,153.590000C590,150.290000,586.600000,147.590000,582.500000,147.590000C578.400000,147.590000,575,150.290000,575,153.590000ZM587.200000,129.090000C586.400000,125.290000,583.600000,122.590000,581,123.090000C578.400000,123.590000,577,127.190000,577.800000,130.990000C578.600000,134.790000,581.400000,137.490000,584,136.990000C586.600000,136.490000,588,133,587.200000,129.090000Z" transform="matrix(1 0 0 1 -127 -118.59000000000000)" fill="rgb(211,72,54)" stroke="none" stroke-width="1"/></g><g id="ecoi746ln70h17" transform="matrix(1 0 0 1 -71.54932437500048 -2.74994628999957)"><path id="ecoi746ln70h18" d="M313.200000,743.910000L238.630000,743.910000C236.144719,743.910000,234.130000,741.895281,234.130000,739.410000L234.130000,646.410000L317.700000,646.410000L317.700000,739.410000C317.700000,741.895281,315.685281,743.910000,313.200000,743.910000Z" transform="matrix(1 0 0 1 -127 -118.59000000000000)" fill="url(#ecoi746ln70h18-fill)" stroke="none" stroke-width="1"/><path id="ecoi746ln70h19" d="M235.470000,719.270000C221.740000,719.270000,210.560000,705.090000,210.560000,687.670000C210.560000,670.250000,221.730000,656.070000,235.470000,656.070000C249.210000,656.070000,260.380000,670.250000,260.380000,687.670000C260.380000,705.090000,249.210000,719.270000,235.470000,719.270000ZM235.470000,661.810000C224.790000,661.810000,216.100000,673.410000,216.100000,687.670000C216.100000,701.930000,224.790000,713.530000,235.470000,713.530000C246.150000,713.530000,254.840000,701.930000,254.840000,687.670000C254.840000,673.410000,246.160000,661.810000,235.470000,661.810000Z" transform="matrix(1 0 0 1 -127 -118.59000000000000)" fill="url(#ecoi746ln70h19-fill)" stroke="none" stroke-width="1"/><path id="ecoi746ln70h20" d="M236.280000,716.590000C222.990000,716.590000,212.170000,703.370000,212.170000,687.130000C212.170000,670.890000,222.980000,657.670000,236.280000,657.670000C249.580000,657.670000,260.390000,670.890000,260.390000,687.130000C260.390000,703.370000,249.570000,716.590000,236.280000,716.590000ZM236.280000,663.020000C225.940000,663.020000,217.530000,673.830000,217.530000,687.130000C217.530000,700.430000,225.940000,711.240000,236.280000,711.240000C246.620000,711.240000,255,700.420000,255,687.130000C255,673.840000,246.620000,663,236.280000,663Z" transform="matrix(1 0 0 1 -127 -118.59000000000000)" fill="rgb(108,99,255)" stroke="none" stroke-width="1"/><path id="ecoi746ln70h21" d="M109,528.900000L188.850000,528.900000L188.850000,617.610000C188.850000,620.095281,186.835281,622.110000,184.350000,622.110000L113.490000,622.110000C111.004719,622.110000,108.990000,620.095281,108.990000,617.610000L108.990000,528.900000Z" fill="rgb(108,99,255)" stroke="none" stroke-width="1"/></g><rect id="ecoi746ln70h22" width="946" height="39.640000" rx="0" ry="0" transform="matrix(1 0 0 1 0 623.17999999999995)" fill="url(#ecoi746ln70h22-fill)" stroke="none" stroke-width="1"/><rect id="ecoi746ln70h23" width="938.500000" height="33.210000" rx="0" ry="0" transform="matrix(1 0 0 1 3.21000000000000 623.17999999999995)" fill="rgb(245,245,245)" stroke="none" stroke-width="1"/><path id="ecoi746ln70h24" d="M676.740000,603.740000C676.740000,603.740000,690.350000,695.570000,770.620000,726.190000L445.450000,726.190000C525.720000,695.580000,539.330000,603.740000,539.330000,603.740000Z" transform="matrix(1 0 0 1 -127 -118.59000000000000)" fill="rgb(224,224,224)" stroke="none" stroke-width="1"/><rect id="ecoi746ln70h25" width="328.230000" height="19.400000" rx="0" ry="0" transform="matrix(1 0 0 1 316.81999999999999 607.60000000000002)" fill="url(#ecoi746ln70h25-fill)" stroke="none" stroke-width="1"/><rect id="ecoi746ln70h26" width="325.160000" height="14.970000" rx="0" ry="0" transform="matrix(1 0 0 1 318.44999999999999 607.60000000000002)" fill="rgb(245,245,245)" stroke="none" stroke-width="1"/><path id="ecoi746ln70h27" d="M872.440000,273.590000L343.630000,273.590000C340.783350,273.613749,338.063044,274.768785,336.068935,276.800413C334.074825,278.832041,332.970690,281.573401,333,284.420000L333,595.720000C333,618.610000,351.160000,637.160000,373.560000,637.160000L842.480000,637.160000C864.880000,637.160000,883.040000,618.610000,883.040000,595.720000L883.040000,284.420000C883.101083,278.503245,878.356703,273.655921,872.440000,273.590000Z" transform="matrix(1 0 0 1 -127 -118.59000000000000)" fill="url(#ecoi746ln70h27-fill)" stroke="none" stroke-width="1"/><path id="ecoi746ln70h28" d="M223.430000,163.730000L738.640000,163.730000C744.577061,163.730000,749.390000,168.542939,749.390000,174.480000L749.390000,460.660000L212.670000,460.660000L212.670000,174.480000C212.669999,171.627189,213.803957,168.891368,215.822137,166.875064C217.840316,164.858761,220.577191,163.727346,223.430000,163.730000Z" fill="rgb(255,255,255)" stroke="none" stroke-width="1"/><path id="ecoi746ln70h29" d="M835.250000,628.230000L380.820000,628.230000C358.093483,628.230000,339.670000,609.806517,339.670000,587.080000L339.670000,579.250000L876.400000,579.250000L876.400000,587.080000C876.400000,609.806518,857.976517,628.230000,835.250000,628.230000Z" transform="matrix(1 0 0 1 -127 -118.59000000000000)" fill="rgb(245,245,245)" stroke="none" stroke-width="1"/><rect id="ecoi746ln70h30" width="485.700000" height="239.700000" rx="0" ry="0" transform="matrix(1 0 0 1 239.19999999999999 187.78000000000000)" fill="rgb(108,99,255)" stroke="none" stroke-width="1"/><script><![CDATA[!function(t,n){"object"==typeof exports&&"undefined"!=typeof module?module.exports=n():"function"==typeof define&&define.amd?define(n):(t=t||self).__SVGATOR_PLAYER__=n()}(this,(function(){"use strict";function t(n){return(t="function"==typeof Symbol&&"symbol"==typeof Symbol.iterator?function(t){return typeof t}:function(t){return t&&"function"==typeof Symbol&&t.constructor===Symbol&&t!==Symbol.prototype?"symbol":typeof t})(n)}function n(t,n){if(!(t instanceof n))throw new TypeError("Cannot call a class as a function")}function r(t,n){for(var r=0;r<n.length;r++){var e=n[r];e.enumerable=e.enumerable||!1,e.configurable=!0,"value"in e&&(e.writable=!0),Object.defineProperty(t,e.key,e)}}function e(t,n,e){return n&&r(t.prototype,n),e&&r(t,e),t}var i=1e-5,u=Math.abs;function o(t){return t}function a(t,n,r){var e=1-r;return 3*r*e*(t*e+n*r)+r*r*r}function l(){var t=arguments.length>0&&void 0!==arguments[0]?arguments[0]:0,n=arguments.length>1&&void 0!==arguments[1]?arguments[1]:0,r=arguments.length>2&&void 0!==arguments[2]?arguments[2]:1,e=arguments.length>3&&void 0!==arguments[3]?arguments[3]:1;return t<0||t>1||r<0||r>1?null:u(t-n)<=i&&u(r-e)<=i?o:function(o){if(o<=0)return t>0?o*n/t:0===n&&r>0?o*e/r:0;if(o>=1)return r<1?1+(o-1)*(e-1)/(r-1):1===r&&t<1?1+(o-1)*(n-1)/(t-1):1;for(var l,f=0,s=1;f<s;){var c=a(t,r,l=(f+s)/2);if(u(o-c)<i)break;c<o?f=l:s=l}return a(n,e,l)}}function f(){return 1}function s(t){return 1===t?1:0}function c(){var t=arguments.length>0&&void 0!==arguments[0]?arguments[0]:1,n=arguments.length>1&&void 0!==arguments[1]?arguments[1]:0;if(1===t){if(0===n)return s;if(1===n)return f}var r=1/t;return function(t){return t>=1?1:(t+=n*r)-t%r}}function v(t){var n=arguments.length>1&&void 0!==arguments[1]?arguments[1]:2;if(Number.isInteger(t))return t;var r=Math.pow(10,n);return Math.round(t*r)/r}var h=Math.PI/180;function y(t,n,r){return t>=.5?r:n}function d(t,n,r){return 0===t||n===r?n:t*(r-n)+n}function g(t,n,r){var e=d(t,n,r);return e<=0?0:e}function m(t,n,r){return 0===t?n:1===t?r:{x:d(t,n.x,r.x),y:d(t,n.y,r.y)}}function p(t,n,r){return 0===t?n:1===t?r:{x:g(t,n.x,r.x),y:g(t,n.y,r.y)}}function b(t,n,r){var e=function(t,n,r){return Math.round(d(t,n,r))}(t,n,r);return e<=0?0:e>=255?255:e}function w(t,n,r){return 0===t?n:1===t?r:{r:b(t,n.r,r.r),g:b(t,n.g,r.g),b:b(t,n.b,r.b),a:d(t,null==n.a?1:n.a,null==r.a?1:r.a)}}function A(t,n,r){if(0===t)return n;if(1===t)return r;var e=n.length;if(e!==r.length)return y(t,n,r);for(var i=[],u=0;u<e;u++)i.push(w(t,n[u],r[u]));return i}function x(t,n,r){var e=n.length;if(e!==r.length)return y(t,n,r);for(var i=new Array(e),u=0;u<e;u++)i[u]=d(t,n[u],r[u]);return i}function k(t,n){for(var r=[],e=0;e<t;e++)r.push(n);return r}function S(t,n){if(--n<=0)return t;var r=(t=Object.assign([],t)).length;do{for(var e=0;e<r;e++)t.push(t[e])}while(--n>0);return t}var _=6,M=/\.0+$/g;function I(t){return Number.isInteger(t)?t+"":t.toFixed(_).replace(M,"")}function E(t){var n=arguments.length>1&&void 0!==arguments[1]?arguments[1]:" ";return t&&t.length?t.map(I).join(n):""}function F(t){return I(t.x)+","+I(t.y)}function B(t){return t?null==t.a||t.a>=1?"rgb("+t.r+","+t.g+","+t.b+")":"rgba("+t.r+","+t.g+","+t.b+","+t.a+")":"transparent"}var j={f:null,i:p,u:function(t,n){return function(r){var e=n(r);t.setAttribute("rx",I(e.x)),t.setAttribute("ry",I(e.y))}}},q={f:null,i:function(t,n,r){return 0===t?n:1===t?r:{width:g(t,n.width,r.width),height:g(t,n.height,r.height)}},u:function(t,n){return function(r){var e=n(r);t.setAttribute("width",I(e.width)),t.setAttribute("height",I(e.height))}}},P=Math.sin,O=Math.cos,z=Math.acos,L=Math.asin,C=Math.tan,R=Math.atan2,T=Math.PI/180,V=180/Math.PI,D=Math.sqrt,N=function(){function t(){var r=arguments.length>0&&void 0!==arguments[0]?arguments[0]:1,e=arguments.length>1&&void 0!==arguments[1]?arguments[1]:0,i=arguments.length>2&&void 0!==arguments[2]?arguments[2]:0,u=arguments.length>3&&void 0!==arguments[3]?arguments[3]:1,o=arguments.length>4&&void 0!==arguments[4]?arguments[4]:0,a=arguments.length>5&&void 0!==arguments[5]?arguments[5]:0;n(this,t),this.m=[r,e,i,u,o,a],this.i=null,this.w=null,this.s=null}return e(t,[{key:"point",value:function(t,n){var r=this.m;return{x:r[0]*t+r[2]*n+r[4],y:r[1]*t+r[3]*n+r[5]}}},{key:"translateSelf",value:function(){var t=arguments.length>0&&void 0!==arguments[0]?arguments[0]:0,n=arguments.length>1&&void 0!==arguments[1]?arguments[1]:0;if(!t&&!n)return this;var r=this.m;return r[4]+=r[0]*t+r[2]*n,r[5]+=r[1]*t+r[3]*n,this.w=this.s=this.i=null,this}},{key:"rotateSelf",value:function(){var t=arguments.length>0&&void 0!==arguments[0]?arguments[0]:0;if(t%=360){var n=P(t*=T),r=O(t),e=this.m,i=e[0],u=e[1];e[0]=i*r+e[2]*n,e[1]=u*r+e[3]*n,e[2]=e[2]*r-i*n,e[3]=e[3]*r-u*n,this.w=this.s=this.i=null}return this}},{key:"scaleSelf",value:function(){var t=arguments.length>0&&void 0!==arguments[0]?arguments[0]:1,n=arguments.length>1&&void 0!==arguments[1]?arguments[1]:1;if(1!==t||1!==n){var r=this.m;r[0]*=t,r[1]*=t,r[2]*=n,r[3]*=n,this.w=this.s=this.i=null}return this}},{key:"skewSelf",value:function(t,n){if(n%=360,(t%=360)||n){var r=this.m,e=r[0],i=r[1],u=r[2],o=r[3];t&&(t=C(t*T),r[2]+=e*t,r[3]+=i*t),n&&(n=C(n*T),r[0]+=u*n,r[1]+=o*n),this.w=this.s=this.i=null}return this}},{key:"resetSelf",value:function(){var t=arguments.length>0&&void 0!==arguments[0]?arguments[0]:1,n=arguments.length>1&&void 0!==arguments[1]?arguments[1]:0,r=arguments.length>2&&void 0!==arguments[2]?arguments[2]:0,e=arguments.length>3&&void 0!==arguments[3]?arguments[3]:1,i=arguments.length>4&&void 0!==arguments[4]?arguments[4]:0,u=arguments.length>5&&void 0!==arguments[5]?arguments[5]:0,o=this.m;return o[0]=t,o[1]=n,o[2]=r,o[3]=e,o[4]=i,o[5]=u,this.w=this.s=this.i=null,this}},{key:"recomposeSelf",value:function(){var t=arguments.length>0&&void 0!==arguments[0]?arguments[0]:null,n=arguments.length>1&&void 0!==arguments[1]?arguments[1]:null,r=arguments.length>2&&void 0!==arguments[2]?arguments[2]:null,e=arguments.length>3&&void 0!==arguments[3]?arguments[3]:null,i=arguments.length>4&&void 0!==arguments[4]?arguments[4]:null;return this.isIdentity||this.resetSelf(),t&&(t.x||t.y)&&this.translateSelf(t.x,t.y),n&&this.rotateSelf(n),r&&(r.x&&this.skewSelf(r.x,0),r.y&&this.skewSelf(0,r.y)),!e||1===e.x&&1===e.y||this.scaleSelf(e.x,e.y),i&&(i.x||i.y)&&this.translateSelf(i.x,i.y),this}},{key:"decompose",value:function(){var t=arguments.length>0&&void 0!==arguments[0]?arguments[0]:0,n=arguments.length>1&&void 0!==arguments[1]?arguments[1]:0,r=this.m,e=r[0]*r[0]+r[1]*r[1],i=[[r[0],r[1]],[r[2],r[3]]],u=D(e);if(0===u)return{origin:{x:r[4],y:r[5]},translate:{x:t,y:n},scale:{x:0,y:0},skew:{x:0,y:0},rotate:0};i[0][0]/=u,i[0][1]/=u;var o=r[0]*r[3]-r[1]*r[2]<0;o&&(u=-u);var a=i[0][0]*i[1][0]+i[0][1]*i[1][1];i[1][0]-=i[0][0]*a,i[1][1]-=i[0][1]*a;var l=D(i[1][0]*i[1][0]+i[1][1]*i[1][1]);if(0===l)return{origin:{x:r[4],y:r[5]},translate:{x:t,y:n},scale:{x:u,y:0},skew:{x:0,y:0},rotate:0};i[1][0]/=l,i[1][1]/=l,a/=l;var f=0;return i[1][1]<0?(f=z(i[1][1])*V,i[0][1]<0&&(f=360-f)):f=L(i[0][1])*V,o&&(f=-f),a=R(a,D(i[0][0]*i[0][0]+i[0][1]*i[0][1]))*V,{origin:{x:r[4],y:r[5]},translate:{x:t,y:n},scale:{x:u,y:l},skew:{x:a,y:0},rotate:f}}},{key:"toString",value:function(){return null===this.s&&(this.s="matrix("+this.m.map($).join(" ")+")"),this.s}},{key:"determinant",get:function(){var t=this.m;return t[0]*t[3]-t[1]*t[2]}},{key:"isIdentity",get:function(){if(null===this.i){var t=this.m;this.i=1===t[0]&&0===t[1]&&0===t[2]&&1===t[3]&&0===t[4]&&0===t[5]}return this.i}}]),t}(),G=/\.0+$/;function $(t){return Number.isInteger(t)?t:t.toFixed(14).replace(G,"")}Object.freeze({M:2,L:2,Z:0,H:1,V:1,C:6,Q:4,T:2,S:4,A:7});function H(t,n,r){return t+(n-t)*r}function Q(t,n,r){var e=arguments.length>3&&void 0!==arguments[3]&&arguments[3],i={x:H(t.x,n.x,r),y:H(t.y,n.y,r)};return e&&(i.a=function(t,n){return Math.atan2(n.y-t.y,n.x-t.x)}(t,n)),i}function U(t,n,r,e){var i=1-e;return i*i*t+2*i*e*n+e*e*r}function Y(t,n,r,e){return 2*(1-e)*(n-t)+2*e*(r-n)}function Z(t,n,r,e){var i=arguments.length>4&&void 0!==arguments[4]&&arguments[4],u={x:U(t.x,n.x,r.x,e),y:U(t.y,n.y,r.y,e)};return i&&(u.a=function(t,n,r,e){return Math.atan2(Y(t.y,n.y,r.y,e),Y(t.x,n.x,r.x,e))}(t,n,r,e)),u}function J(t,n,r,e,i){var u=i*i;return i*u*(e-t+3*(n-r))+3*u*(t+r-2*n)+3*i*(n-t)+t}function K(t,n,r,e,i){var u=1-i;return 3*(u*u*(n-t)+2*u*i*(r-n)+i*i*(e-r))}function W(t,n,r,e,i){var u=arguments.length>5&&void 0!==arguments[5]&&arguments[5],o={x:J(t.x,n.x,r.x,e.x,i),y:J(t.y,n.y,r.y,e.y,i)};return u&&(o.a=function(t,n,r,e,i){return Math.atan2(K(t.y,n.y,r.y,e.y,i),K(t.x,n.x,r.x,e.x,i))}(t,n,r,e,i)),o}function X(t,n,r){var e,i=arguments.length>3&&void 0!==arguments[3]&&arguments[3];if(nt(n)){if(null!=(e=r).start&&!nt(e))return Z(n,r.start,r,t,i)}else if(nt(r)){if(n.end)return Z(n,n.end,r,t,i)}else{if(n.end)return r.start?W(n,n.end,r.start,r,t,i):Z(n,n.end,r,t,i);if(r.start)return Z(n,r.start,r,t,i)}return Q(n,r,t,i)}function tt(t,n,r){var e=X(t,n,r,!0);return e.a=function(t){return arguments.length>1&&void 0!==arguments[1]&&arguments[1]?t+Math.PI:t}(e.a)/h,e}function nt(t){return!t.type||"corner"===t.type}var rt=new N;var et={f:function(t){return t?t.join(" "):""},i:function(n,r,e){if(0===n)return r;if(1===n)return e;var i=r.length;if(i!==e.length)return y(n,r,e);for(var u,o=new Array(i),a=0;a<i;a++){if((u=t(r[a]))!==t(e[a]))return y(n,r,e);if("number"===u)o[a]=d(n,r[a],e[a]);else{if(r[a]!==e[a])return y(n,r,e);o[a]=r[a]}}return o}},it={f:null,i:x,u:function(t,n){return function(r){var e=n(r);t.setAttribute("x1",I(e[0])),t.setAttribute("y1",I(e[1])),t.setAttribute("x2",I(e[2])),t.setAttribute("y2",I(e[3]))}}},ut={f:I,i:d},ot={f:I,i:function(t,n,r){var e=d(t,n,r);return e<=0?0:e>=1?1:e}},at={f:E,i:function(t,n,r){var e,i,u,o=n.length,a=r.length;if(o!==a)if(0===o)n=k(o=a,0);else if(0===a)a=o,r=k(o,0);else{var l=(u=(e=o)*(i=a)/function(t,n){for(var r;n;)r=n,n=t%n,t=r;return t||1}(e,i))<0?-u:u;n=S(n,Math.floor(l/o)),r=S(r,Math.floor(l/a)),o=a=l}for(var f=[],s=0;s<o;s++)f.push(v(g(t,n[s],r[s]),6));return f}};function lt(t,n,r,e,i,u,o,a){return n=function(t,n,r){for(var e,i,u,o=t.length-1,a={},l=0;l<=o;l++)(e=t[l]).e&&(e.e=n(e.e)),e.v&&"g"===(i=e.v).t&&i.r&&(u=r.getElementById(i.r))&&(a[i.r]=u.querySelectorAll("stop"));return a}(t,e,a),function(e){var i,u=r(e,t,ft);return u?"c"===u.t?B(u.v):"g"===u.t?(n[u.r]&&function(t,n){for(var r=0,e=t.length;r<e;r++)t[r].setAttribute("stop-color",B(n[r]))}(n[u.r],u.v),(i=u.r)?"url(#"+i+")":"none"):"none":"none"}}function ft(t,n,r){if(0===t)return n;if(1===t)return r;if(n&&r){var e=n.t;if(e===r.t)switch(n.t){case"c":return{t:e,v:w(t,n.v,r.v)};case"g":if(n.r===r.r)return{t:e,v:A(t,n.v,r.v),r:n.r}}}return y(t,n,r)}var st={blur:p,brightness:g,contrast:g,"drop-shadow":function(t,n,r){return 0===t?n:1===t?r:{blur:p(t,n.blur,r.blur),offset:m(t,n.offset,r.offset),color:w(t,n.color,r.color)}},grayscale:g,"hue-rotate":d,invert:g,opacity:g,saturate:g,sepia:g};function ct(t,n,r){if(0===t)return n;if(1===t)return r;var e=n.length;if(e!==r.length)return y(t,n,r);for(var i,u=[],o=0;o<e;o++){if(n[o].type!==r[o].type)return n;if(!(i=st[n[o].type]))return y(t,n,r);u.push({type:n.type,value:i(t,n[o].value,r[o].value)})}return u}var vt={blur:function(t){return t?function(n){t.setAttribute("stdDeviation",F(n))}:null},brightness:function(t,n,r){return(t=yt(r,n))?function(n){n=I(n),t.map((function(t){return t.setAttribute("slope",n)}))}:null},contrast:function(t,n,r){return(t=yt(r,n))?function(n){var r=I((1-n)/2);n=I(n),t.map((function(t){t.setAttribute("slope",n),t.setAttribute("intercept",r)}))}:null},"drop-shadow":function(t,n,r){var e=r.getElementById(n+"-blur");if(!e)return null;var i=r.getElementById(n+"-offset");if(!i)return null;var u=r.getElementById(n+"-flood");return u?function(t){e.setAttribute("stdDeviation",F(t.blur)),i.setAttribute("dx",I(t.offset.x)),i.setAttribute("dy",I(t.offset.y)),u.setAttribute("flood-color",B(t.color))}:null},grayscale:function(t){return t?function(n){t.setAttribute("values",E(function(t){return[.2126+.7874*(t=1-t),.7152-.7152*t,.0722-.0722*t,0,0,.2126-.2126*t,.7152+.2848*t,.0722-.0722*t,0,0,.2126-.2126*t,.7152-.7152*t,.0722+.9278*t,0,0,0,0,0,1,0]}(n)))}:null},"hue-rotate":function(t){return t?function(n){return t.setAttribute("values",I(n))}:null},invert:function(t,n,r){return(t=yt(r,n))?function(n){n=I(n)+" "+I(1-n),t.map((function(t){return t.setAttribute("tableValues",n)}))}:null},opacity:function(t,n,r){return(t=r.getElementById(n+"-A"))?function(n){return t.setAttribute("tableValues","0 "+I(n))}:null},saturate:function(t){return t?function(n){return t.setAttribute("values",I(n))}:null},sepia:function(t){return t?function(n){return t.setAttribute("values",E(function(t){return[.393+.607*(t=1-t),.769-.769*t,.189-.189*t,0,0,.349-.349*t,.686+.314*t,.168-.168*t,0,0,.272-.272*t,.534-.534*t,.131+.869*t,0,0,0,0,0,1,0]}(n)))}:null}};var ht=["R","G","B"];function yt(t,n){var r=ht.map((function(r){return t.getElementById(n+"-"+r)||null}));return-1!==r.indexOf(null)?null:r}var dt={fill:lt,"fill-opacity":ot,stroke:lt,"stroke-opacity":ot,"stroke-width":ut,"stroke-dashoffset":{f:I,i:d},"stroke-dasharray":at,opacity:ot,transform:function(n,r,e,i){if(!(n=function(n,r){if(!n||"object"!==t(n))return null;var e=!1;for(var i in n)n.hasOwnProperty(i)&&(n[i]&&n[i].length?(n[i].forEach((function(t){t.e&&(t.e=r(t.e))})),e=!0):delete n[i]);return e?n:null}(n,i)))return null;var u=function(t,i,u){var o=arguments.length>3&&void 0!==arguments[3]?arguments[3]:null;return n[t]?e(i,n[t],u):r&&r[t]?r[t]:o};return r&&r.a&&n.o?function(t){var r=e(t,n.o,tt);return rt.recomposeSelf(r,u("r",t,d,0)+r.a,u("k",t,m),u("s",t,m),u("t",t,m)).toString()}:function(t){return rt.recomposeSelf(u("o",t,X,null),u("r",t,d,0),u("k",t,m),u("s",t,m),u("t",t,m)).toString()}},"#filter":function(t,n,r,e,i,u,o,a){if(!n.items||!t||!t.length)return null;var l=function(t,n){var r=(t=t.map((function(t){return t&&vt[t[0]]?(n.getElementById(t[1]),vt[t[0]](n.getElementById(t[1]),t[1],n)):null}))).length;return function(n){for(var e=0;e<r;e++)t[e]&&t[e](n[e].value)}}(n.items,a);return l?(t=function(t,n){return t.map((function(t){return t.e=n(t.e),t}))}(t,e),function(n){l(r(n,t,ct))}):null},"#line":it,points:{f:E,i:x},d:et,r:ut,"#size":q,"#radius":j,_:function(t,n){if(Array.isArray(t))for(var r=0;r<t.length;r++)this[t[r]]=n;else this[t]=n}},gt=function(){function t(r){n(this,t),this.list=r,this.length=r.length}return e(t,[{key:"setAttribute",value:function(t,n){for(var r=this.list,e=0;e<this.length;e++)r[e].setAttribute(t,n)}},{key:"removeAttribute",value:function(t){for(var n=this.list,r=0;r<this.length;r++)n[r].removeAttribute(t)}},{key:"style",value:function(t,n){for(var r=this.list,e=0;e<this.length;e++)r[e].style[t]=n}}]),t}(),mt=/-./g,pt=function(t,n){return n.toUpperCase()};function bt(t){return"function"==typeof t?t:y}function wt(t){return t?"function"==typeof t?t:Array.isArray(t)?function(t){var n=arguments.length>1&&void 0!==arguments[1]?arguments[1]:o;if(!Array.isArray(t))return n;switch(t.length){case 1:return c(t[0])||n;case 2:return c(t[0],t[1])||n;case 4:return l(t[0],t[1],t[2],t[3])||n}return n}(t,null):function(t,n){var r=arguments.length>2&&void 0!==arguments[2]?arguments[2]:o;switch(t){case"linear":return o;case"steps":return c(n.steps||1,n.jump||0)||r;case"bezier":case"cubic-bezier":return l(n.x1||0,n.y1||0,n.x2||0,n.y2||0)||r}return r}(t.type,t.value,null):null}function At(t,n,r){var e=arguments.length>3&&void 0!==arguments[3]&&arguments[3],i=n.length-1;if(t<=n[0].t)return e?[0,0,n[0].v]:n[0].v;if(t>=n[i].t)return e?[i,1,n[i].v]:n[i].v;var u,o=n[0],a=null;for(u=1;u<=i;u++){if(!(t>n[u].t)){a=n[u];break}o=n[u]}return null==a?e?[i,1,n[i].v]:n[i].v:o.t===a.t?e?[u,1,a.v]:a.v:(t=(t-o.t)/(a.t-o.t),o.e&&(t=o.e(t)),e?[u,t,r(t,o.v,a.v)]:r(t,o.v,a.v))}function xt(t,n){var r=arguments.length>2&&void 0!==arguments[2]?arguments[2]:null;return t&&t.length?"function"!=typeof n?null:("function"!=typeof r&&(r=null),function(e){var i=At(e,t,n);return null!=i&&r&&(i=r(i)),i}):null}function kt(t,n){return t.t-n.t}function St(n,r,e,i,u){var o,a="@"===e[0],l="#"===e[0],f=dt[e],s=y;switch(a?(o=e.substr(1),e=o.replace(mt,pt)):l&&(e=e.substr(1)),t(f)){case"function":if(s=f(i,u,At,wt,e,a,r,n),l)return s;break;case"string":s=xt(i,bt(f));break;case"object":if((s=xt(i,bt(f.i),f.f))&&"function"==typeof f.u)return f.u(r,s,e,a,n)}return s?function(t,n,r){if(arguments.length>3&&void 0!==arguments[3]&&arguments[3])return t instanceof gt?function(e){return t.style(n,r(e))}:function(e){return t.style[n]=r(e)};if(Array.isArray(n)){var e=n.length;return function(i){var u=r(i);if(null==u)for(var o=0;o<e;o++)t[o].removeAttribute(n);else for(var a=0;a<e;a++)t[a].setAttribute(n,u)}}return function(e){var i=r(e);null==i?t.removeAttribute(n):t.setAttribute(n,i)}}(r,e,s,a):null}function _t(n,r,e,i){if(!i||"object"!==t(i))return null;var u=null,o=null;return Array.isArray(i)?o=function(t){if(!t||!t.length)return null;for(var n=0;n<t.length;n++)t[n].e&&(t[n].e=wt(t[n].e));return t.sort(kt)}(i):(o=i.keys,u=i.data||null),o?St(n,r,e,o,u):null}function Mt(t,n,r){if(!r)return null;var e=[];for(var i in r)if(r.hasOwnProperty(i)){var u=_t(t,n,i,r[i]);u&&e.push(u)}return e.length?e:null}function It(t,n){if(!n.duration||n.duration<0)return null;var r=function(t,n){if(!n)return null;var r=[];if(Array.isArray(n))for(var e=n.length,i=0;i<e;i++){var u=n[i];if(2===u.length){var o=null;if("string"==typeof u[0])o=t.getElementById(u[0]);else if(Array.isArray(u[0])){o=[];for(var a=0;a<u[0].length;a++)if("string"==typeof u[0][a]){var l=t.getElementById(u[0][a]);l&&o.push(l)}o=o.length?1===o.length?o[0]:new gt(o):null}if(o){var f=Mt(t,o,u[1]);f&&(r=r.concat(f))}}}else for(var s in n)if(n.hasOwnProperty(s)){var c=t.getElementById(s);if(c){var v=Mt(t,c,n[s]);v&&(r=r.concat(v))}}return r.length?r:null}(t,n.elements);return r?function(t,n){var r=arguments.length>2&&void 0!==arguments[2]?arguments[2]:1/0,e=arguments.length>3&&void 0!==arguments[3]?arguments[3]:1,i=arguments.length>4&&void 0!==arguments[4]&&arguments[4],u=arguments.length>5&&void 0!==arguments[5]?arguments[5]:1,o=t.length,a=e>0?n:0;i&&r%2==0&&(a=n-a);var l=null;return function(f,s){var c=f%n,v=1+(f-c)/n;s*=e,i&&v%2==0&&(s=-s);var h=!1;if(v>r)c=a,h=!0,-1===u&&(c=e>0?0:n);else if(s<0&&(c=n-c),c===l)return!1;l=c;for(var y=0;y<o;y++)t[y](c);return h}}(r,n.duration,n.iterations||1/0,n.direction||1,!!n.alternate,n.fill||1):null}var Et=function(){function t(r){var e=arguments.length>1&&void 0!==arguments[1]?arguments[1]:{};n(this,t),this._id=0,this._running=!1,this._animations=r,this.direction=e.direction||1,this.speed=e.speed||1,this.fps=e.fps||100,this.offset=e.offset||0}return e(t,[{key:"_start",value:function(){var t=this,n=arguments.length>0&&void 0!==arguments[0]?arguments[0]:0,r=-1/0,e=null,i={},u=function u(o){t._running=!0,null==e&&(e=o);var a=Math.round((o-e+n)*t.speed),l=t.fps?1e3/t.fps:0;if(a>r+l){t.offset=a,r=a;for(var f=t._animations,s=f.length,c=0,v=0;v<s;v++)i[v]?c++:(i[v]=f[v](a,t.direction),i[v]&&c++);if(c===s)return void t._stop()}t._id=window.requestAnimationFrame(u)};this._id=window.requestAnimationFrame(u)}},{key:"_stop",value:function(){this._id&&window.cancelAnimationFrame(this._id),this._running=!1}},{key:"play",value:function(){this._running||this._start(this.offset)}},{key:"stop",value:function(){this._stop(),this.offset=0;var t=this.direction,n=this._animations;requestAnimationFrame((function(){for(var r=0;r<n.length;r++)n[r](0,t)}))}},{key:"restart",value:function(){this._stop(),this.offset=0,this._start()}},{key:"pause",value:function(){this._stop()}},{key:"reverse",value:function(){this.direction=-this.direction}}],[{key:"build",value:function(n){if(!(n=function(t){if(!t||!t.root||!Array.isArray(t.animations))return null;var n=window.document.getElementById(t.root);if(!n)return null;var r=t.animations.map((function(t){return It(n,t)})).filter((function(t){return!!t}));return r.length?{element:n,animations:r,options:t.options||void 0}:null}(n)))return null;var r=n.element,e=n.options||{},i=new t(n.animations,n.options);return function(t,n,r){var e=arguments.length>3&&void 0!==arguments[3]?arguments[3]:null;if("click"===r){return void n.addEventListener("click",(function r(){n.removeEventListener("click",r),t.play()}))}if("hover"===r)return n.addEventListener("mouseenter",(function(){return t.play()})),void n.addEventListener("mouseleave","freeze"===e?function(){return t.pause()}:function(){return t.stop()});t.play()}(i,r,e.start,e.hover),i}}]),t}();return function(){for(var t=0,n=["ms","moz","webkit","o"],r=0;r<n.length&&!window.requestAnimationFrame;++r)window.requestAnimationFrame=window[n[r]+"RequestAnimationFrame"],window.cancelAnimationFrame=window[n[r]+"CancelAnimationFrame"]||window[n[r]+"CancelRequestAnimationFrame"];window.requestAnimationFrame||(window.requestAnimationFrame=function(n){var r=Date.now(),e=Math.max(0,16-(r-t)),i=window.setTimeout((function(){n(r+e)}),e);return t=r+e,i},window.cancelAnimationFrame=window.clearTimeout)}(),Et}));
__SVGATOR_PLAYER__.build({"root":"ecoi746ln70h1","animations":[{"duration":4000,"direction":-1,"iterations":0,"fill":1,"alternate":true,"elements":{"ecoi746ln70h2":{"transform":{"data":{"t":{"x":-108.55818939000002,"y":-137.11499787000002}},"keys":{"o":[{"t":0,"v":{"x":334.62181122,"y":261.906637075,"type":"cusp","end":{"x":331.9450262403591,"y":124.28873550699528}}},{"t":3000,"v":{"x":88.36169922,"y":106.2610500049998,"type":"cusp","start":{"x":212.88623636639417,"y":68.43674863103702}}}],"r":[{"t":0,"v":0},{"t":3000,"v":360}]}}},"ecoi746ln70h5":{"transform":{"data":{"t":{"x":-295,"y":-44.002258299999994}},"keys":{"o":[{"t":0,"v":{"x":403.696139,"y":258.10929763,"type":"cusp","end":{"x":398.49588408761304,"y":43.34147635476676}}},{"t":3000,"v":{"x":265.2,"y":66.8999490049999,"type":"cusp","start":{"x":265.14787978761785,"y":70.84124003183456}}}],"r":[{"t":0,"v":0},{"t":3000,"v":360}]}}},"ecoi746ln70h8":{"transform":{"data":{"t":{"x":-653.754425045,"y":-44.71422577000001}},"keys":{"o":[{"t":0,"v":{"x":560.909805045,"y":253.72503247500003,"type":"cusp","end":{"x":495.24740503437755,"y":238.4598323050212}}},{"t":3000,"v":{"x":645.0499999999996,"y":53.38450387000005,"type":"cusp","start":{"x":538.2021407669125,"y":43.07821660451292}}}],"r":[{"t":0,"v":-9.665568516680233},{"t":3000,"v":350.33443148331975}]}}},"ecoi746ln70h11":{"transform":{"data":{"t":{"x":-829.0893859800005,"y":-113.14418030499999}},"keys":{"o":[{"t":0,"v":{"x":665.143475345,"y":285.55081737,"type":"cusp","end":{"x":667.5119937484955,"y":141.29926524545158}}},{"t":3000,"v":{"x":833.473172345,"y":110.09187241999989,"type":"cusp","start":{"x":717.1089272048685,"y":82.33998005068891}}}],"r":[{"t":0,"v":0},{"t":3000,"v":360}]}}},"ecoi746ln70h14":{"transform":{"data":{"t":{"x":-464.0000000000013,"y":-24.008274080000007}},"keys":{"o":[{"t":0,"v":{"x":472.46,"y":234.60704408,"type":"cusp","end":{"x":415.15357972311466,"y":208.81730944003496}}},{"t":3000,"v":{"x":472.46000000000157,"y":42.89822308000001,"type":"cusp","start":{"x":452.4028172965324,"y":37.373612480307145}}}],"r":[{"t":0,"v":0},{"t":3000,"v":360}]}}},"ecoi746ln70h17":{"transform":{"data":{"t":{"x":-137.13000488000046,"y":-576.56994629}},"keys":{"o":[{"t":0,"v":{"x":296.853614505,"y":436.40000000000003,"type":"cusp","end":{"x":154.5934938122488,"y":345.8124290107689}}},{"t":3000,"v":{"x":65.58068050499998,"y":573.8200000000004,"type":"cusp","start":{"x":65.27282786386505,"y":508.1807522545498}}}],"r":[{"t":0,"v":0},{"t":3000,"v":360}]}}}}}],"options":{"start":"load","hover":"freeze"}})]]></script></svg>