<svg id="e60wn84omjzh1" xmlns="http://www.w3.org/2000/svg" xmlns:xlink="http://www.w3.org/1999/xlink" viewBox="0 0 920.418200 560.803330" shape-rendering="geometricPrecision" text-rendering="geometricPrecision"><rect id="e60wn84omjzh2" width="163" height="6" rx="0" ry="0" transform="matrix(1 0 0 1 84.20910000000001 392.40199999999999)" fill="rgb(242,242,242)" stroke="none" stroke-width="1"/><g id="e60wn84omjzh3" transform="matrix(1 0 0 1 -518.40053303999957 16.07704883000002)"><rect id="e60wn84omjzh4" width="163" height="6" rx="0" ry="0" transform="matrix(1 0 0 1 453.20900000000000 392.40199999999999)" fill="rgb(242,242,242)" stroke="none" stroke-width="1"/><rect id="e60wn84omjzh5" width="29.428000" height="4.671110" rx="0" ry="0" transform="matrix(1 0 0 1 278.05900000000003 418.72300000000001)" fill="rgb(63,61,86)" stroke="none" stroke-width="1"/><path id="e60wn84omjzh6" d="M660.045950,589.367940L653.974260,590.772520L423.221540,590.895860L421.146540,586.061370C417.527604,577.768656,416.285496,568.633086,417.558970,559.675180C418.552790,552.998290,421.043170,546.363840,426.699510,543.482240L436.939510,475.278570L564.603140,475.050100L613.995720,514.888360C613.995720,514.888360,637.294930,514.469520,649.952720,530.227750C653.958560,535.219060,656.900240,541.831750,657.689640,550.598990L658.189180,558.796540Z" transform="matrix(1 0 0 1 -139.79100000000000 -169.59800000000001)" fill="rgb(108,99,255)" stroke="none" stroke-width="1"/><circle id="e60wn84omjzh7" r="28.493800" transform="matrix(1 0 0 1 469.57299999999998 418.62900000000002)" fill="rgb(63,61,86)" stroke="none" stroke-width="1"/><circle id="e60wn84omjzh8" r="14.996700" transform="matrix(1 0 0 1 469.57299999999998 418.62900000000002)" fill="rgb(204,204,204)" stroke="none" stroke-width="1"/><circle id="e60wn84omjzh9" r="28.493800" transform="matrix(1 0 0 1 328.97300000000001 418.70400000000001)" fill="rgb(63,61,86)" stroke="none" stroke-width="1"/><circle id="e60wn84omjzh10" r="14.996700" transform="matrix(1 0 0 1 328.97300000000001 418.70400000000001)" fill="rgb(204,204,204)" stroke="none" stroke-width="1"/><polygon id="e60wn84omjzh11" points="454.581000,340.633000 385.653000,340.663000 377.239000,340.663000 363.032000,340.673000 363.032000,339.637000 363.022000,327.145000 363.012000,313.118000 372.463000,313.118000 380.877000,313.108000 395.782000,313.098000 404.196000,313.098000 421.403000,313.088000 454.581000,340.633000" fill="rgb(255,255,255)" stroke="none" stroke-width="1"/><polygon id="e60wn84omjzh12" points="351.817000,340.683000 315.389000,340.703000 315.379000,333.555000 315.379000,321.064000 315.369000,313.148000 320.703000,313.148000 329.117000,313.138000 351.807000,313.128000 351.817000,340.683000" fill="rgb(255,255,255)" stroke="none" stroke-width="1"/><rect id="e60wn84omjzh13" width="4.671110" height="8.875110" rx="0" ry="0" transform="matrix(1 0 0 1 363.04300000000001 361.23000000000002)" fill="rgb(63,61,86)" stroke="none" stroke-width="1"/><rect id="e60wn84omjzh14" width="4.671110" height="8.875110" rx="0" ry="0" transform="matrix(0.00053499999987 1 -1 0.00053499999987 444.77912192992471 348.57609958993277)" fill="rgb(63,61,86)" stroke="none" stroke-width="1"/><path id="e60wn84omjzh15" d="M439.169140,331.105830L439.682970,331.105830C445.074711,331.105830,449.445580,335.476699,449.445580,340.868440L449.445580,340.868440C449.445580,346.260181,445.074710,350.631050,439.682970,350.631050L439.169140,350.631050L439.169140,331.105830Z" fill="rgb(63,61,86)" stroke="none" stroke-width="1"/><path id="e60wn84omjzh16" d="M658.189220,558.796540C650.896872,559.589617,644.090552,555.023646,642.058515,547.975374C640.026479,540.927102,643.357441,533.438525,649.952760,530.227750C653.958600,535.219060,656.900280,541.831750,657.689680,550.598990Z" transform="matrix(1 0 0 1 -139.79100000000000 -169.59800000000001)" fill="rgb(63,61,86)" stroke="none" stroke-width="1"/><polygon id="e60wn84omjzh17" points="380.877000,313.108000 363.032000,339.637000 363.022000,327.145000 372.463000,313.118000 380.877000,313.108000" fill="rgb(242,242,242)" stroke="none" stroke-width="1"/><polygon id="e60wn84omjzh18" points="329.117000,313.138000 315.379000,333.555000 315.379000,321.064000 320.703000,313.148000 329.117000,313.138000" fill="rgb(242,242,242)" stroke="none" stroke-width="1"/><polygon id="e60wn84omjzh19" points="404.196000,313.098000 385.653000,340.663000 377.239000,340.663000 395.782000,313.098000 404.196000,313.098000" fill="rgb(242,242,242)" stroke="none" stroke-width="1"/></g><path id="e60wn84omjzh20" d="M1007.955530,471.116870C1006.456329,471.891853,1005.062361,472.855330,1003.807530,473.983870C1002.532001,472.849985,1001.114825,471.886284,999.591450,471.116870C998.092250,471.891855,996.698283,472.855332,995.443450,473.983870C994.167925,472.849984,992.750753,471.886282,991.227380,471.116870C989.704007,470.347458,984.725740,474.314500,984.743760,478.221920Q984.744360,478.368490,984.757080,478.513520C984.979000,481.071800,991.700920,481.723660,995.393580,480.518010C998.127089,481.297672,1001.024121,481.297672,1003.757630,480.518010C1007.434510,481.742950,1014.293150,481.041170,1014.493630,478.453540Q1014.504890,478.308430,1014.504300,478.161840C1014.486370,474.254410,1007.955530,471.116870,1007.955530,471.116870Z" transform="matrix(1 0 0 1 -139.79100000000000 -169.59800000000001)" fill="rgb(242,242,242)" stroke="none" stroke-width="1"/><circle id="e60wn84omjzh21" r="28.640800" transform="matrix(1 0 0 1 65.22199999500008 164.22399999999999)" fill="rgb(255,101,132)" stroke="none" stroke-width="1"/><polygon id="e60wn84omjzh22" points="6.972000,167.108000 1.204000,162.494000 33.501000,133.658000 115.397000,133.658000 115.397000,159.034000 62.338000,194.791000 6.972000,167.108000" fill="rgb(63,61,86)" stroke="none" stroke-width="1"/><polygon id="e60wn84omjzh23" points="130.329000,149.833000 130.329000,134.234000 119.456000,134.234000 119.456000,138.054000 115.397000,133.658000 88.868000,162.494000 78.487000,169.415000 62.390000,287.016000 86.665000,311.291000 143.081000,311.291000 143.081000,163.648000 130.329000,149.833000" fill="rgb(204,204,204)" stroke="none" stroke-width="1"/><rect id="e60wn84omjzh24" width="87.663500" height="148.797000" rx="0" ry="0" transform="matrix(1 0 0 1 1.20428000000000 162.49400000000000)" fill="rgb(242,242,242)" stroke="none" stroke-width="1"/><rect id="e60wn84omjzh25" width="16.148500" height="36.334200" rx="0" ry="0" transform="matrix(1 0 0 1 35.23150000000000 274.95699999999999)" fill="rgb(204,204,204)" stroke="none" stroke-width="1"/><polygon id="e60wn84omjzh26" points="17.930000,285.338000 17.930000,279.571000 11.009000,279.571000 11.009000,285.338000 17.353000,285.338000 17.930000,285.338000" fill="rgb(63,61,86)" stroke="none" stroke-width="1"/><polygon id="e60wn84omjzh27" points="17.353000,289.952000 11.009000,289.952000 11.009000,295.720000 17.930000,295.720000 17.930000,289.952000 17.353000,289.952000" fill="rgb(63,61,86)" stroke="none" stroke-width="1"/><rect id="e60wn84omjzh28" width="6.920800" height="5.767330" rx="0" ry="0" transform="matrix(1 0 0 1 22.54340000000000 279.57100000000003)" fill="rgb(63,61,86)" stroke="none" stroke-width="1"/><rect id="e60wn84omjzh29" width="6.920800" height="5.767330" rx="0" ry="0" transform="matrix(1 0 0 1 22.54340000000000 289.95200000000000)" fill="rgb(63,61,86)" stroke="none" stroke-width="1"/><polygon id="e60wn84omjzh30" points="65.222000,285.338000 65.222000,279.571000 58.301000,279.571000 58.301000,285.338000 64.645000,285.338000 65.222000,285.338000" fill="rgb(63,61,86)" stroke="none" stroke-width="1"/><polygon id="e60wn84omjzh31" points="64.645000,289.952000 58.301000,289.952000 58.301000,295.720000 65.222000,295.720000 65.222000,289.952000 64.645000,289.952000" fill="rgb(63,61,86)" stroke="none" stroke-width="1"/><rect id="e60wn84omjzh32" width="6.920800" height="5.767330" rx="0" ry="0" transform="matrix(1 0 0 1 69.83550000000000 279.57100000000003)" fill="rgb(63,61,86)" stroke="none" stroke-width="1"/><rect id="e60wn84omjzh33" width="6.920800" height="5.767330" rx="0" ry="0" transform="matrix(1 0 0 1 69.83550000000000 289.95200000000000)" fill="rgb(63,61,86)" stroke="none" stroke-width="1"/><polygon id="e60wn84omjzh34" points="113.667000,169.992000 113.667000,164.224000 106.746000,164.224000 106.746000,169.992000 113.091000,169.992000 113.667000,169.992000" fill="rgb(63,61,86)" stroke="none" stroke-width="1"/><polygon id="e60wn84omjzh35" points="113.091000,174.606000 106.746000,174.606000 106.746000,180.373000 113.667000,180.373000 113.667000,174.606000 113.091000,174.606000" fill="rgb(63,61,86)" stroke="none" stroke-width="1"/><rect id="e60wn84omjzh36" width="6.920800" height="5.767330" rx="0" ry="0" transform="matrix(1 0 0 1 118.28100000000001 164.22399999999999)" fill="rgb(63,61,86)" stroke="none" stroke-width="1"/><rect id="e60wn84omjzh37" width="6.920800" height="5.767330" rx="0" ry="0" transform="matrix(1 0 0 1 118.28100000000001 174.60599999999999)" fill="rgb(63,61,86)" stroke="none" stroke-width="1"/><polygon id="e60wn84omjzh38" points="113.667000,202.289000 113.667000,196.522000 106.746000,196.522000 106.746000,202.289000 113.091000,202.289000 113.667000,202.289000" fill="rgb(63,61,86)" stroke="none" stroke-width="1"/><polygon id="e60wn84omjzh39" points="113.091000,206.903000 106.746000,206.903000 106.746000,212.670000 113.667000,212.670000 113.667000,206.903000 113.091000,206.903000" fill="rgb(63,61,86)" stroke="none" stroke-width="1"/><rect id="e60wn84omjzh40" width="6.920800" height="5.767330" rx="0" ry="0" transform="matrix(1 0 0 1 118.28100000000001 196.52199999999999)" fill="rgb(63,61,86)" stroke="none" stroke-width="1"/><rect id="e60wn84omjzh41" width="6.920800" height="5.767330" rx="0" ry="0" transform="matrix(1 0 0 1 118.28100000000001 206.90299999999999)" fill="rgb(63,61,86)" stroke="none" stroke-width="1"/><polygon id="e60wn84omjzh42" points="113.667000,234.586000 113.667000,228.819000 106.746000,228.819000 106.746000,234.586000 113.091000,234.586000 113.667000,234.586000" fill="rgb(63,61,86)" stroke="none" stroke-width="1"/><polygon id="e60wn84omjzh43" points="113.091000,239.200000 106.746000,239.200000 106.746000,244.967000 113.667000,244.967000 113.667000,239.200000 113.091000,239.200000" fill="rgb(63,61,86)" stroke="none" stroke-width="1"/><rect id="e60wn84omjzh44" width="6.920800" height="5.767330" rx="0" ry="0" transform="matrix(1 0 0 1 118.28100000000001 228.81899999999999)" fill="rgb(63,61,86)" stroke="none" stroke-width="1"/><rect id="e60wn84omjzh45" width="6.920800" height="5.767330" rx="0" ry="0" transform="matrix(1 0 0 1 118.28100000000001 239.19999999999999)" fill="rgb(63,61,86)" stroke="none" stroke-width="1"/><polygon id="e60wn84omjzh46" points="113.667000,266.883000 113.667000,261.116000 106.746000,261.116000 106.746000,266.883000 113.091000,266.883000 113.667000,266.883000" fill="rgb(63,61,86)" stroke="none" stroke-width="1"/><polygon id="e60wn84omjzh47" points="113.091000,271.497000 106.746000,271.497000 106.746000,277.264000 113.667000,277.264000 113.667000,271.497000 113.091000,271.497000" fill="rgb(63,61,86)" stroke="none" stroke-width="1"/><rect id="e60wn84omjzh48" width="6.920800" height="5.767330" rx="0" ry="0" transform="matrix(1 0 0 1 118.28100000000001 261.11599999999999)" fill="rgb(63,61,86)" stroke="none" stroke-width="1"/><rect id="e60wn84omjzh49" width="6.920800" height="5.767330" rx="0" ry="0" transform="matrix(1 0 0 1 118.28100000000001 271.49700000000001)" fill="rgb(63,61,86)" stroke="none" stroke-width="1"/><rect id="e60wn84omjzh50" width="66.901000" height="13.841600" rx="0" ry="0" transform="matrix(1 0 0 1 11.00870000000000 169.99199999999999)" fill="rgb(63,61,86)" stroke="none" stroke-width="1"/><rect id="e60wn84omjzh51" width="66.901000" height="13.841600" rx="0" ry="0" transform="matrix(1 0 0 1 11.00870000000000 197.67500000000001)" fill="rgb(63,61,86)" stroke="none" stroke-width="1"/><rect id="e60wn84omjzh52" width="66.901000" height="13.841600" rx="0" ry="0" transform="matrix(1 0 0 1 11.00870000000000 225.35800000000000)" fill="rgb(63,61,86)" stroke="none" stroke-width="1"/><rect id="e60wn84omjzh53" width="66.901000" height="13.841600" rx="0" ry="0" transform="matrix(1 0 0 1 11.00870000000000 253.04100000000000)" fill="rgb(63,61,86)" stroke="none" stroke-width="1"/><path id="e60wn84omjzh54" d="M277.995400,471.953280C276.496201,472.728267,275.102234,473.691744,273.847400,474.820280C272.571874,473.686396,271.154702,472.722694,269.631330,471.953280C268.132131,472.728267,266.738164,473.691744,265.483330,474.820280C264.207804,473.686396,262.790632,472.722694,261.267260,471.953280C259.743888,471.183866,254.765620,475.150900,254.783640,479.058330Q254.784240,479.204900,254.796960,479.349930C255.018870,481.908200,261.740800,482.560060,265.433460,481.354410C268.166968,482.134083,271.064002,482.134083,273.797510,481.354410C277.474390,482.579410,284.333030,481.877570,284.533510,479.289940Q284.544770,479.144830,284.544180,478.998240C284.526240,475.090820,277.995400,471.953280,277.995400,471.953280Z" transform="matrix(1 0 0 1 -139.79100000000000 -169.59800000000001)" fill="rgb(108,99,255)" stroke="none" stroke-width="1"/><polygon id="e60wn84omjzh55" points="108.177000,167.108000 102.409000,162.494000 134.706000,133.658000 216.602000,133.658000 216.602000,159.034000 163.543000,194.791000 108.177000,167.108000" fill="rgb(63,61,86)" stroke="none" stroke-width="1"/><polygon id="e60wn84omjzh56" points="231.534000,149.833000 231.534000,134.234000 220.661000,134.234000 220.661000,138.054000 216.602000,133.658000 190.073000,162.494000 179.692000,169.415000 163.595000,287.016000 187.870000,311.291000 244.286000,311.291000 244.286000,163.648000 231.534000,149.833000" fill="rgb(204,204,204)" stroke="none" stroke-width="1"/><rect id="e60wn84omjzh57" width="87.663500" height="148.797000" rx="0" ry="0" transform="matrix(1 0 0 1 102.40900000000001 162.49400000000000)" fill="rgb(242,242,242)" stroke="none" stroke-width="1"/><rect id="e60wn84omjzh58" width="16.148500" height="36.334200" rx="0" ry="0" transform="matrix(1 0 0 1 136.43700000000001 274.95699999999999)" fill="rgb(204,204,204)" stroke="none" stroke-width="1"/><polygon id="e60wn84omjzh59" points="119.135000,285.338000 119.135000,279.571000 112.214000,279.571000 112.214000,285.338000 118.558000,285.338000 119.135000,285.338000" fill="rgb(63,61,86)" stroke="none" stroke-width="1"/><polygon id="e60wn84omjzh60" points="118.558000,289.952000 112.214000,289.952000 112.214000,295.720000 119.135000,295.720000 119.135000,289.952000 118.558000,289.952000" fill="rgb(63,61,86)" stroke="none" stroke-width="1"/><rect id="e60wn84omjzh61" width="6.920800" height="5.767330" rx="0" ry="0" transform="matrix(1 0 0 1 123.74800000000000 279.57100000000003)" fill="rgb(63,61,86)" stroke="none" stroke-width="1"/><rect id="e60wn84omjzh62" width="6.920800" height="5.767330" rx="0" ry="0" transform="matrix(1 0 0 1 123.74800000000000 289.95200000000000)" fill="rgb(63,61,86)" stroke="none" stroke-width="1"/><polygon id="e60wn84omjzh63" points="166.427000,285.338000 166.427000,279.571000 159.506000,279.571000 159.506000,285.338000 165.850000,285.338000 166.427000,285.338000" fill="rgb(63,61,86)" stroke="none" stroke-width="1"/><polygon id="e60wn84omjzh64" points="165.850000,289.952000 159.506000,289.952000 159.506000,295.720000 166.427000,295.720000 166.427000,289.952000 165.850000,289.952000" fill="rgb(63,61,86)" stroke="none" stroke-width="1"/><rect id="e60wn84omjzh65" width="6.920800" height="5.767330" rx="0" ry="0" transform="matrix(1 0 0 1 171.04100000000000 279.57100000000003)" fill="rgb(63,61,86)" stroke="none" stroke-width="1"/><rect id="e60wn84omjzh66" width="6.920800" height="5.767330" rx="0" ry="0" transform="matrix(1 0 0 1 171.04100000000000 289.95200000000000)" fill="rgb(63,61,86)" stroke="none" stroke-width="1"/><polygon id="e60wn84omjzh67" points="214.872000,169.992000 214.872000,164.224000 207.951000,164.224000 207.951000,169.992000 214.296000,169.992000 214.872000,169.992000" fill="rgb(63,61,86)" stroke="none" stroke-width="1"/><polygon id="e60wn84omjzh68" points="214.296000,174.606000 207.951000,174.606000 207.951000,180.373000 214.872000,180.373000 214.872000,174.606000 214.296000,174.606000" fill="rgb(63,61,86)" stroke="none" stroke-width="1"/><rect id="e60wn84omjzh69" width="6.920800" height="5.767330" rx="0" ry="0" transform="matrix(1 0 0 1 219.48599999999999 164.22399999999999)" fill="rgb(63,61,86)" stroke="none" stroke-width="1"/><rect id="e60wn84omjzh70" width="6.920800" height="5.767330" rx="0" ry="0" transform="matrix(1 0 0 1 219.48599999999999 174.60599999999999)" fill="rgb(63,61,86)" stroke="none" stroke-width="1"/><polygon id="e60wn84omjzh71" points="214.872000,202.289000 214.872000,196.522000 207.951000,196.522000 207.951000,202.289000 214.296000,202.289000 214.872000,202.289000" fill="rgb(63,61,86)" stroke="none" stroke-width="1"/><polygon id="e60wn84omjzh72" points="214.296000,206.903000 207.951000,206.903000 207.951000,212.670000 214.872000,212.670000 214.872000,206.903000 214.296000,206.903000" fill="rgb(63,61,86)" stroke="none" stroke-width="1"/><rect id="e60wn84omjzh73" width="6.920800" height="5.767330" rx="0" ry="0" transform="matrix(1 0 0 1 219.48599999999999 196.52199999999999)" fill="rgb(63,61,86)" stroke="none" stroke-width="1"/><rect id="e60wn84omjzh74" width="6.920800" height="5.767330" rx="0" ry="0" transform="matrix(1 0 0 1 219.48599999999999 206.90299999999999)" fill="rgb(63,61,86)" stroke="none" stroke-width="1"/><polygon id="e60wn84omjzh75" points="214.872000,234.586000 214.872000,228.819000 207.951000,228.819000 207.951000,234.586000 214.296000,234.586000 214.872000,234.586000" fill="rgb(63,61,86)" stroke="none" stroke-width="1"/><polygon id="e60wn84omjzh76" points="214.296000,239.200000 207.951000,239.200000 207.951000,244.967000 214.872000,244.967000 214.872000,239.200000 214.296000,239.200000" fill="rgb(63,61,86)" stroke="none" stroke-width="1"/><rect id="e60wn84omjzh77" width="6.920800" height="5.767330" rx="0" ry="0" transform="matrix(1 0 0 1 219.48599999999999 228.81899999999999)" fill="rgb(63,61,86)" stroke="none" stroke-width="1"/><rect id="e60wn84omjzh78" width="6.920800" height="5.767330" rx="0" ry="0" transform="matrix(1 0 0 1 219.48599999999999 239.19999999999999)" fill="rgb(63,61,86)" stroke="none" stroke-width="1"/><polygon id="e60wn84omjzh79" points="214.872000,266.883000 214.872000,261.116000 207.951000,261.116000 207.951000,266.883000 214.296000,266.883000 214.872000,266.883000" fill="rgb(63,61,86)" stroke="none" stroke-width="1"/><polygon id="e60wn84omjzh80" points="214.296000,271.497000 207.951000,271.497000 207.951000,277.264000 214.872000,277.264000 214.872000,271.497000 214.296000,271.497000" fill="rgb(63,61,86)" stroke="none" stroke-width="1"/><rect id="e60wn84omjzh81" width="6.920800" height="5.767330" rx="0" ry="0" transform="matrix(1 0 0 1 219.48599999999999 261.11599999999999)" fill="rgb(63,61,86)" stroke="none" stroke-width="1"/><rect id="e60wn84omjzh82" width="6.920800" height="5.767330" rx="0" ry="0" transform="matrix(1 0 0 1 219.48599999999999 271.49700000000001)" fill="rgb(63,61,86)" stroke="none" stroke-width="1"/><rect id="e60wn84omjzh83" width="66.901000" height="13.841600" rx="0" ry="0" transform="matrix(1 0 0 1 112.21400000000000 169.99199999999999)" fill="rgb(63,61,86)" stroke="none" stroke-width="1"/><rect id="e60wn84omjzh84" width="66.901000" height="13.841600" rx="0" ry="0" transform="matrix(1 0 0 1 112.21400000000000 197.67500000000001)" fill="rgb(63,61,86)" stroke="none" stroke-width="1"/><rect id="e60wn84omjzh85" width="66.901000" height="13.841600" rx="0" ry="0" transform="matrix(1 0 0 1 112.21400000000000 225.35800000000000)" fill="rgb(63,61,86)" stroke="none" stroke-width="1"/><rect id="e60wn84omjzh86" width="66.901000" height="13.841600" rx="0" ry="0" transform="matrix(1 0 0 1 112.21400000000000 253.04100000000000)" fill="rgb(63,61,86)" stroke="none" stroke-width="1"/><g id="e60wn84omjzh87" transform="matrix(0.62654216384321 0 0 0.62654216384321 211.51079345473585 89.89080937796524)"><rect id="e60wn84omjzh88" width="2.792880" height="110.319000" rx="0" ry="0" transform="matrix(1 0 0 1 302.51200000000000 200.44900000000001)" fill="rgb(63,61,86)" stroke="none" stroke-width="1"/><path id="e60wn84omjzh89" d="M472.350200,402.153640Q472.358590,403.974000,472.316590,405.776880C471.315100,449.204020,419.250660,449.443980,417.848910,406.027880Q417.790720,404.225690,417.781910,402.405100C417.558180,353.862260,444.660910,314.384760,444.660910,314.384760C444.660910,314.384760,472.126470,353.610800,472.350200,402.153640Z" transform="matrix(1 0 0 1 -139.79100000000000 -169.59800000000001)" fill="rgb(230,230,230)" stroke="none" stroke-width="1"/></g><path id="e60wn84omjzh90" d="M435.382140,471.708740C433.882939,472.483723,432.488971,473.447200,431.234140,474.575740C429.958608,473.441859,428.541433,472.478158,427.018060,471.708740C425.518860,472.483725,424.124893,473.447202,422.870060,474.575740C421.594532,473.441858,420.177361,472.478157,418.653990,471.708740C417.130619,470.939323,412.152350,474.906370,412.170370,478.813800Q412.170970,478.960370,412.183690,479.105390C412.405600,481.663670,419.127530,482.315530,422.820190,481.109880C425.553683,481.889538,428.450697,481.889538,431.184190,481.109880C434.861070,482.334880,441.719710,481.633040,441.920190,479.045410Q441.931460,478.900300,441.930860,478.753710C441.913000,474.846280,435.382140,471.708740,435.382140,471.708740Z" transform="matrix(1 0 0 1 -139.79100000000000 -169.59800000000001)" fill="rgb(204,204,204)" stroke="none" stroke-width="1"/><g id="e60wn84omjzh91" transform="matrix(1.17276824635148 0 0 1.19681977756140 -92.77929340911555 -65.25998710983686)"><polygon id="e60wn84omjzh92" points="373.739000,263.999000 370.279000,258.232000 402.576000,205.457000 485.625000,205.457000 485.625000,213.531000 455.635000,270.920000 421.031000,277.841000 373.739000,263.999000" fill="rgb(63,61,86)" stroke="none" stroke-width="1"/><polygon id="e60wn84omjzh93" points="499.921000,246.794000 499.921000,203.655000 489.048000,203.655000 489.048000,209.346000 485.625000,205.457000 457.942000,258.232000 453.328000,262.846000 447.561000,285.915000 457.942000,311.291000 511.001000,311.291000 511.001000,259.385000 499.921000,246.794000" fill="rgb(204,204,204)" stroke="none" stroke-width="1"/><rect id="e60wn84omjzh94" width="87.663500" height="53.059400" rx="0" ry="0" transform="matrix(1 0 0 1 370.27900000000000 258.23200000000003)" fill="rgb(242,242,242)" stroke="none" stroke-width="1"/><rect id="e60wn84omjzh95" width="18.455500" height="16.148500" rx="0" ry="0" transform="matrix(1 0 0 1 427.37500000000000 274.95699999999999)" fill="rgb(63,61,86)" stroke="none" stroke-width="1"/><rect id="e60wn84omjzh96" width="16.148500" height="36.910900" rx="0" ry="0" transform="matrix(1 0 0 1 403.72899999999998 274.38099999999997)" fill="rgb(204,204,204)" stroke="none" stroke-width="1"/><polygon id="e60wn84omjzh97" points="385.274000,280.148000 385.274000,274.381000 378.353000,274.381000 378.353000,280.148000 384.697000,280.148000 385.274000,280.148000" fill="rgb(63,61,86)" stroke="none" stroke-width="1"/><polygon id="e60wn84omjzh98" points="384.697000,284.762000 378.353000,284.762000 378.353000,290.529000 385.274000,290.529000 385.274000,284.762000 384.697000,284.762000" fill="rgb(63,61,86)" stroke="none" stroke-width="1"/><rect id="e60wn84omjzh99" width="6.920800" height="5.767330" rx="0" ry="0" transform="matrix(1 0 0 1 389.88799999999998 274.38099999999997)" fill="rgb(63,61,86)" stroke="none" stroke-width="1"/><rect id="e60wn84omjzh100" width="6.920800" height="5.767330" rx="0" ry="0" transform="matrix(1 0 0 1 389.88799999999998 284.76200000000000)" fill="rgb(63,61,86)" stroke="none" stroke-width="1"/><polygon id="e60wn84omjzh101" points="482.742000,281.561000 482.742000,275.794000 475.821000,275.794000 475.821000,281.561000 482.165000,281.561000 482.742000,281.561000" fill="rgb(63,61,86)" stroke="none" stroke-width="1"/><polygon id="e60wn84omjzh102" points="482.165000,286.175000 475.821000,286.175000 475.821000,291.942000 482.742000,291.942000 482.742000,286.175000 482.165000,286.175000" fill="rgb(63,61,86)" stroke="none" stroke-width="1"/><rect id="e60wn84omjzh103" width="6.920800" height="5.767330" rx="0" ry="0" transform="matrix(1 0 0 1 487.35500000000002 275.79399999999998)" fill="rgb(63,61,86)" stroke="none" stroke-width="1"/><rect id="e60wn84omjzh104" width="6.920800" height="5.767330" rx="0" ry="0" transform="matrix(1 0 0 1 487.35500000000002 286.17500000000001)" fill="rgb(63,61,86)" stroke="none" stroke-width="1"/><polygon id="e60wn84omjzh105" points="410.036000,227.148000 409.125000,225.631000 417.623000,211.745000 439.474000,211.745000 439.474000,213.869000 431.584000,228.969000 422.479000,230.790000 410.036000,227.148000" fill="rgb(63,61,86)" stroke="none" stroke-width="1"/><polygon id="e60wn84omjzh106" points="439.474000,211.745000 432.191000,225.631000 430.977000,226.845000 429.459000,232.915000 432.191000,239.591000 446.151000,239.591000 446.151000,225.934000 439.474000,211.745000" fill="rgb(204,204,204)" stroke="none" stroke-width="1"/><rect id="e60wn84omjzh107" width="23.065200" height="13.960500" rx="0" ry="0" transform="matrix(1 0 0 1 409.12500000000000 225.63100000000000)" fill="rgb(242,242,242)" stroke="none" stroke-width="1"/><polygon id="e60wn84omjzh108" points="418.897000,231.647000 418.897000,228.893000 415.593000,228.893000 415.593000,231.647000 418.622000,231.647000 418.897000,231.647000" fill="rgb(63,61,86)" stroke="none" stroke-width="1"/><polygon id="e60wn84omjzh109" points="418.622000,233.850000 415.593000,233.850000 415.593000,236.603000 418.897000,236.603000 418.897000,233.850000 418.622000,233.850000" fill="rgb(63,61,86)" stroke="none" stroke-width="1"/><rect id="e60wn84omjzh110" width="3.304460" height="2.753720" rx="0" ry="0" transform="matrix(1 0 0 1 421.10000000000002 228.89300000000000)" fill="rgb(63,61,86)" stroke="none" stroke-width="1"/><rect id="e60wn84omjzh111" width="3.304460" height="2.753720" rx="0" ry="0" transform="matrix(1 0 0 1 421.10000000000002 233.84999999999999)" fill="rgb(63,61,86)" stroke="none" stroke-width="1"/><polygon id="e60wn84omjzh112" points="478.290000,263.999000 474.829000,258.232000 507.126000,205.457000 590.176000,205.457000 590.176000,213.531000 560.186000,270.920000 525.582000,277.841000 478.290000,263.999000" fill="rgb(63,61,86)" stroke="none" stroke-width="1"/><polygon id="e60wn84omjzh113" points="604.472000,246.794000 604.472000,203.655000 593.599000,203.655000 593.599000,209.346000 590.176000,205.457000 562.493000,258.232000 557.879000,262.846000 552.111000,285.915000 562.493000,311.291000 615.552000,311.291000 615.552000,259.385000 604.472000,246.794000" fill="rgb(204,204,204)" stroke="none" stroke-width="1"/><rect id="e60wn84omjzh114" width="87.663500" height="53.059400" rx="0" ry="0" transform="matrix(1 0 0 1 474.82900000000001 258.23200000000003)" fill="rgb(242,242,242)" stroke="none" stroke-width="1"/><rect id="e60wn84omjzh115" width="18.455500" height="16.148500" rx="0" ry="0" transform="matrix(1 0 0 1 531.92600000000004 274.95699999999999)" fill="rgb(63,61,86)" stroke="none" stroke-width="1"/><rect id="e60wn84omjzh116" width="16.148500" height="36.910900" rx="0" ry="0" transform="matrix(1 0 0 1 508.27999999999997 274.38000000000000)" fill="rgb(204,204,204)" stroke="none" stroke-width="1"/><polygon id="e60wn84omjzh117" points="489.824000,280.148000 489.824000,274.380000 482.903000,274.380000 482.903000,280.148000 489.248000,280.148000 489.824000,280.148000" fill="rgb(63,61,86)" stroke="none" stroke-width="1"/><polygon id="e60wn84omjzh118" points="489.248000,284.762000 482.903000,284.762000 482.903000,290.529000 489.824000,290.529000 489.824000,284.762000 489.248000,284.762000" fill="rgb(63,61,86)" stroke="none" stroke-width="1"/><rect id="e60wn84omjzh119" width="6.920800" height="5.767330" rx="0" ry="0" transform="matrix(1 0 0 1 494.43799999999999 274.38000000000000)" fill="rgb(63,61,86)" stroke="none" stroke-width="1"/><rect id="e60wn84omjzh120" width="6.920800" height="5.767330" rx="0" ry="0" transform="matrix(1 0 0 1 494.43799999999999 284.76200000000000)" fill="rgb(63,61,86)" stroke="none" stroke-width="1"/><polygon id="e60wn84omjzh121" points="587.292000,280.725000 587.292000,274.957000 580.371000,274.957000 580.371000,280.725000 586.715000,280.725000 587.292000,280.725000" fill="rgb(63,61,86)" stroke="none" stroke-width="1"/><polygon id="e60wn84omjzh122" points="586.715000,285.338000 580.371000,285.338000 580.371000,291.106000 587.292000,291.106000 587.292000,285.338000 586.715000,285.338000" fill="rgb(63,61,86)" stroke="none" stroke-width="1"/><rect id="e60wn84omjzh123" width="6.920800" height="5.767330" rx="0" ry="0" transform="matrix(1 0 0 1 591.90599999999995 274.95699999999999)" fill="rgb(63,61,86)" stroke="none" stroke-width="1"/><rect id="e60wn84omjzh124" width="6.920800" height="5.767330" rx="0" ry="0" transform="matrix(1 0 0 1 591.90599999999995 285.33800000000002)" fill="rgb(63,61,86)" stroke="none" stroke-width="1"/><polygon id="e60wn84omjzh125" points="579.495000,263.999000 576.034000,258.232000 608.331000,205.457000 691.381000,205.457000 691.381000,213.531000 661.391000,270.920000 626.787000,277.841000 579.495000,263.999000" fill="rgb(63,61,86)" stroke="none" stroke-width="1"/><polygon id="e60wn84omjzh126" points="705.677000,246.794000 705.677000,203.655000 694.804000,203.655000 694.804000,209.346000 691.381000,205.457000 663.698000,258.232000 659.084000,262.846000 653.316000,285.915000 663.698000,311.291000 716.757000,311.291000 716.757000,259.385000 705.677000,246.794000" fill="rgb(204,204,204)" stroke="none" stroke-width="1"/><rect id="e60wn84omjzh127" width="87.663500" height="53.059400" rx="0" ry="0" transform="matrix(1 0 0 1 576.03399999999999 258.23200000000003)" fill="rgb(242,242,242)" stroke="none" stroke-width="1"/><rect id="e60wn84omjzh128" width="18.455500" height="16.148500" rx="0" ry="0" transform="matrix(1 0 0 1 633.13099999999997 274.95699999999999)" fill="rgb(63,61,86)" stroke="none" stroke-width="1"/><rect id="e60wn84omjzh129" width="16.148500" height="36.910900" rx="0" ry="0" transform="matrix(1 0 0 1 609.48500000000001 274.38000000000000)" fill="rgb(204,204,204)" stroke="none" stroke-width="1"/><polygon id="e60wn84omjzh130" points="591.029000,280.148000 591.029000,274.380000 584.109000,274.380000 584.109000,280.148000 590.453000,280.148000 591.029000,280.148000" fill="rgb(63,61,86)" stroke="none" stroke-width="1"/><polygon id="e60wn84omjzh131" points="590.453000,284.762000 584.109000,284.762000 584.109000,290.529000 591.029000,290.529000 591.029000,284.762000 590.453000,284.762000" fill="rgb(63,61,86)" stroke="none" stroke-width="1"/><rect id="e60wn84omjzh132" width="6.920800" height="5.767330" rx="0" ry="0" transform="matrix(1 0 0 1 595.64300000000003 274.38000000000000)" fill="rgb(63,61,86)" stroke="none" stroke-width="1"/><rect id="e60wn84omjzh133" width="6.920800" height="5.767330" rx="0" ry="0" transform="matrix(1 0 0 1 595.64300000000003 284.76200000000000)" fill="rgb(63,61,86)" stroke="none" stroke-width="1"/><polygon id="e60wn84omjzh134" points="688.497000,280.725000 688.497000,274.957000 681.576000,274.957000 681.576000,280.725000 687.921000,280.725000 688.497000,280.725000" fill="rgb(63,61,86)" stroke="none" stroke-width="1"/><polygon id="e60wn84omjzh135" points="687.921000,285.338000 681.576000,285.338000 681.576000,291.106000 688.497000,291.106000 688.497000,285.338000 687.921000,285.338000" fill="rgb(63,61,86)" stroke="none" stroke-width="1"/><rect id="e60wn84omjzh136" width="6.920800" height="5.767330" rx="0" ry="0" transform="matrix(1 0 0 1 693.11099999999999 274.95699999999999)" fill="rgb(63,61,86)" stroke="none" stroke-width="1"/><rect id="e60wn84omjzh137" width="6.920800" height="5.767330" rx="0" ry="0" transform="matrix(1 0 0 1 693.11099999999999 285.33800000000002)" fill="rgb(63,61,86)" stroke="none" stroke-width="1"/><polygon id="e60wn84omjzh138" points="512.077000,227.985000 511.167000,226.467000 519.664000,212.581000 541.516000,212.581000 541.516000,214.706000 533.625000,229.806000 524.520000,231.626000 512.077000,227.985000" fill="rgb(63,61,86)" stroke="none" stroke-width="1"/><polygon id="e60wn84omjzh139" points="541.516000,212.581000 534.232000,226.467000 533.018000,227.681000 531.501000,233.751000 534.232000,240.428000 548.193000,240.428000 548.193000,226.771000 541.516000,212.581000" fill="rgb(204,204,204)" stroke="none" stroke-width="1"/><rect id="e60wn84omjzh140" width="23.065200" height="13.960500" rx="0" ry="0" transform="matrix(1 0 0 1 511.16699999999997 226.46700000000001)" fill="rgb(242,242,242)" stroke="none" stroke-width="1"/><polygon id="e60wn84omjzh141" points="520.939000,232.483000 520.939000,229.729000 517.634000,229.729000 517.634000,232.483000 520.663000,232.483000 520.939000,232.483000" fill="rgb(63,61,86)" stroke="none" stroke-width="1"/><polygon id="e60wn84omjzh142" points="520.663000,234.686000 517.634000,234.686000 517.634000,237.440000 520.939000,237.440000 520.939000,234.686000 520.663000,234.686000" fill="rgb(63,61,86)" stroke="none" stroke-width="1"/><rect id="e60wn84omjzh143" width="3.304460" height="2.753720" rx="0" ry="0" transform="matrix(1 0 0 1 523.14099999999996 229.72900000000001)" fill="rgb(63,61,86)" stroke="none" stroke-width="1"/><rect id="e60wn84omjzh144" width="3.304460" height="2.753720" rx="0" ry="0" transform="matrix(1 0 0 1 523.14099999999996 234.68600000000001)" fill="rgb(63,61,86)" stroke="none" stroke-width="1"/><polygon id="e60wn84omjzh145" points="614.119000,227.148000 613.208000,225.631000 621.706000,211.745000 643.557000,211.745000 643.557000,213.869000 635.666000,228.969000 626.562000,230.790000 614.119000,227.148000" fill="rgb(63,61,86)" stroke="none" stroke-width="1"/><polygon id="e60wn84omjzh146" points="643.557000,211.745000 636.273000,225.631000 635.059000,226.845000 633.542000,232.915000 636.273000,239.591000 650.234000,239.591000 650.234000,225.934000 643.557000,211.745000" fill="rgb(204,204,204)" stroke="none" stroke-width="1"/><rect id="e60wn84omjzh147" width="23.065200" height="13.960500" rx="0" ry="0" transform="matrix(1 0 0 1 613.20799999999997 225.63100000000000)" fill="rgb(242,242,242)" stroke="none" stroke-width="1"/><polygon id="e60wn84omjzh148" points="622.980000,231.647000 622.980000,228.893000 619.676000,228.893000 619.676000,231.647000 622.705000,231.647000 622.980000,231.647000" fill="rgb(63,61,86)" stroke="none" stroke-width="1"/><polygon id="e60wn84omjzh149" points="622.705000,233.850000 619.676000,233.850000 619.676000,236.603000 622.980000,236.603000 622.980000,233.850000 622.705000,233.850000" fill="rgb(63,61,86)" stroke="none" stroke-width="1"/><rect id="e60wn84omjzh150" width="3.304460" height="2.753720" rx="0" ry="0" transform="matrix(1 0 0 1 625.18299999999999 228.89300000000000)" fill="rgb(63,61,86)" stroke="none" stroke-width="1"/><rect id="e60wn84omjzh151" width="3.304460" height="2.753720" rx="0" ry="0" transform="matrix(1 0 0 1 625.18299999999999 233.84999999999999)" fill="rgb(63,61,86)" stroke="none" stroke-width="1"/><polygon id="e60wn84omjzh152" points="684.045000,263.999000 680.585000,258.232000 712.882000,205.457000 795.932000,205.457000 795.932000,213.531000 765.941000,270.920000 731.337000,277.841000 684.045000,263.999000" fill="rgb(63,61,86)" stroke="none" stroke-width="1"/><polygon id="e60wn84omjzh153" points="810.228000,212.859000 810.228000,203.655000 799.354000,203.655000 799.354000,209.346000 795.932000,205.457000 768.248000,258.232000 763.634000,262.846000 757.867000,285.915000 768.248000,311.291000 821.308000,311.291000 821.308000,259.385000 810.228000,212.859000" fill="rgb(204,204,204)" stroke="none" stroke-width="1"/><rect id="e60wn84omjzh154" width="87.663500" height="53.059400" rx="0" ry="0" transform="matrix(1 0 0 1 680.58500000000004 258.23200000000003)" fill="rgb(242,242,242)" stroke="none" stroke-width="1"/><rect id="e60wn84omjzh155" width="18.455500" height="16.148500" rx="0" ry="0" transform="matrix(1 0 0 1 737.68200000000002 274.95699999999999)" fill="rgb(63,61,86)" stroke="none" stroke-width="1"/><rect id="e60wn84omjzh156" width="16.148500" height="36.910900" rx="0" ry="0" transform="matrix(1 0 0 1 714.03499999999997 274.38000000000000)" fill="rgb(204,204,204)" stroke="none" stroke-width="1"/><polygon id="e60wn84omjzh157" points="695.580000,280.148000 695.580000,274.380000 688.659000,274.380000 688.659000,280.148000 695.003000,280.148000 695.580000,280.148000" fill="rgb(63,61,86)" stroke="none" stroke-width="1"/><polygon id="e60wn84omjzh158" points="695.003000,284.762000 688.659000,284.762000 688.659000,290.529000 695.580000,290.529000 695.580000,284.762000 695.003000,284.762000" fill="rgb(63,61,86)" stroke="none" stroke-width="1"/><rect id="e60wn84omjzh159" width="6.920800" height="5.767330" rx="0" ry="0" transform="matrix(1 0 0 1 700.19399999999996 274.38000000000000)" fill="rgb(63,61,86)" stroke="none" stroke-width="1"/><rect id="e60wn84omjzh160" width="6.920800" height="5.767330" rx="0" ry="0" transform="matrix(1 0 0 1 700.19399999999996 284.76200000000000)" fill="rgb(63,61,86)" stroke="none" stroke-width="1"/><polygon id="e60wn84omjzh161" points="793.048000,280.725000 793.048000,274.957000 786.127000,274.957000 786.127000,280.725000 792.471000,280.725000 793.048000,280.725000" fill="rgb(63,61,86)" stroke="none" stroke-width="1"/><polygon id="e60wn84omjzh162" points="792.471000,285.338000 786.127000,285.338000 786.127000,291.106000 793.048000,291.106000 793.048000,285.338000 792.471000,285.338000" fill="rgb(63,61,86)" stroke="none" stroke-width="1"/><rect id="e60wn84omjzh163" width="6.920800" height="5.767330" rx="0" ry="0" transform="matrix(1 0 0 1 797.66200000000003 274.95699999999999)" fill="rgb(63,61,86)" stroke="none" stroke-width="1"/><rect id="e60wn84omjzh164" width="6.920800" height="5.767330" rx="0" ry="0" transform="matrix(1 0 0 1 797.66200000000003 285.33800000000002)" fill="rgb(63,61,86)" stroke="none" stroke-width="1"/><polygon id="e60wn84omjzh165" points="716.160000,227.985000 715.250000,226.467000 723.747000,212.581000 745.599000,212.581000 745.599000,214.706000 737.708000,229.806000 728.603000,231.626000 716.160000,227.985000" fill="rgb(63,61,86)" stroke="none" stroke-width="1"/><polygon id="e60wn84omjzh166" points="745.599000,212.581000 738.315000,226.467000 737.101000,227.681000 735.583000,233.751000 738.315000,240.428000 752.275000,240.428000 752.275000,226.771000 745.599000,212.581000" fill="rgb(204,204,204)" stroke="none" stroke-width="1"/><rect id="e60wn84omjzh167" width="23.065200" height="13.960500" rx="0" ry="0" transform="matrix(1 0 0 1 715.25000000000000 226.46700000000001)" fill="rgb(242,242,242)" stroke="none" stroke-width="1"/><polygon id="e60wn84omjzh168" points="725.021000,232.483000 725.021000,229.729000 721.717000,229.729000 721.717000,232.483000 724.746000,232.483000 725.021000,232.483000" fill="rgb(63,61,86)" stroke="none" stroke-width="1"/><polygon id="e60wn84omjzh169" points="724.746000,234.686000 721.717000,234.686000 721.717000,237.440000 725.021000,237.440000 725.021000,234.686000 724.746000,234.686000" fill="rgb(63,61,86)" stroke="none" stroke-width="1"/><rect id="e60wn84omjzh170" width="3.304460" height="2.753720" rx="0" ry="0" transform="matrix(1 0 0 1 727.22400000000005 229.72900000000001)" fill="rgb(63,61,86)" stroke="none" stroke-width="1"/><rect id="e60wn84omjzh171" width="3.304460" height="2.753720" rx="0" ry="0" transform="matrix(1 0 0 1 727.22400000000005 234.68600000000001)" fill="rgb(63,61,86)" stroke="none" stroke-width="1"/></g><rect id="e60wn84omjzh172" width="919.582000" height="1.672810" rx="0" ry="0" transform="matrix(1 0 0 1 0.83641000000000 310.71800000000002)" fill="rgb(63,61,86)" stroke="none" stroke-width="1"/><rect id="e60wn84omjzh173" width="919.582000" height="1.672810" rx="0" ry="0" transform="matrix(1 0 0 1 0 467.12599999999998)" fill="rgb(63,61,86)" stroke="none" stroke-width="1"/><rect id="e60wn84omjzh174" width="2.792040" height="110.286000" rx="0" ry="0" transform="matrix(1 0 0 1 857.47799999999995 200.43299999999999)" fill="rgb(63,61,86)" stroke="none" stroke-width="1"/><path id="e60wn84omjzh175" d="M1027.307510,402.127360Q1027.315900,403.947180,1027.273910,405.749520C1026.272720,449.163650,974.223910,449.403520,972.822540,406.000470Q972.764370,404.198820,972.755540,402.378780C972.531880,353.850480,999.626540,314.384780,999.626540,314.384780C999.626540,314.384780,1027.083850,353.599060,1027.307510,402.127360Z" transform="matrix(1 0 0 1 -139.79100000000000 -169.59800000000001)" fill="rgb(230,230,230)" stroke="none" stroke-width="1"/><g id="e60wn84omjzh176" transform="matrix(1 0 0 1 366.98971484000003 22.54356657999961)"><rect id="e60wn84omjzh177" width="17.875700" height="2.837420" rx="0" ry="0" transform="matrix(-1 -0.00053400000006 0.00053400000006 -1 699.71430319003389 360.02825118194698)" fill="rgb(63,61,86)" stroke="none" stroke-width="1"/><path id="e60wn84omjzh178" d="M692.383310,527.420100L696.071490,528.273290L836.239860,528.348220L837.500290,525.411550C839.698572,520.374232,840.453080,514.824932,839.679530,509.383550C839.075840,505.327740,837.563080,501.297710,834.127190,499.547310L827.907000,458.117690L750.359000,457.978900L720.356000,482.178240C720.356000,482.178240,706.203130,481.923830,698.514270,491.496000C695.740627,495.055239,694.102966,499.367179,693.814550,503.870300L693.511110,508.849820Z" transform="matrix(1 0 0 1 -139.79100000000000 -169.59800000000001)" fill="rgb(63,61,86)" stroke="none" stroke-width="1"/><circle id="e60wn84omjzh179" r="17.308200" transform="matrix(1 0 0 1 583.37900000000002 357.12900000000002)" fill="rgb(63,61,86)" stroke="none" stroke-width="1"/><circle id="e60wn84omjzh180" r="9.109600" transform="matrix(1 0 0 1 583.37900000000002 357.12900000000002)" fill="rgb(204,204,204)" stroke="none" stroke-width="1"/><circle id="e60wn84omjzh181" r="17.308200" transform="matrix(1 0 0 1 668.78499999999997 357.17399999999998)" fill="rgb(63,61,86)" stroke="none" stroke-width="1"/><circle id="e60wn84omjzh182" r="9.109600" transform="matrix(1 0 0 1 668.78499999999997 357.17399999999998)" fill="rgb(204,204,204)" stroke="none" stroke-width="1"/><rect id="e60wn84omjzh183" width="2.837420" height="5.391090" rx="0" ry="0" transform="matrix(-1 -0.00053400000006 0.00053400000006 -1 648.08965377403160 327.65478703794935)" fill="rgb(63,61,86)" stroke="none" stroke-width="1"/><rect id="e60wn84omjzh184" width="2.837420" height="5.391090" rx="0" ry="0" transform="matrix(-0.00053500000000 1 -1 -0.00053500000000 603.82536375500001 314.57864903499984)" fill="rgb(63,61,86)" stroke="none" stroke-width="1"/><path id="e60wn84omjzh185" d="M735.395800,473.562200L735.707920,473.562200C737.280707,473.562200,738.789076,474.186987,739.901205,475.299115C741.013333,476.411244,741.638120,477.919613,741.638120,479.492400L741.638120,479.492400C741.638120,481.065187,741.013333,482.573556,739.901205,483.685685C738.789076,484.797813,737.280707,485.422600,735.707920,485.422600L735.395800,485.422600L735.395800,473.562200Z" transform="matrix(-1 -0.00053400000006 0.00053400000006 -1 1336.99000000000001 789.78099999999995)" fill="rgb(63,61,86)" stroke="none" stroke-width="1"/><path id="e60wn84omjzh186" d="M693.511160,508.849820C697.940823,509.331568,702.075253,506.558017,703.309595,502.276616C704.543936,497.995215,702.520579,493.446355,698.514320,491.496000C695.740677,495.055239,694.103016,499.367179,693.814600,503.870300Z" transform="matrix(1 0 0 1 -139.79100000000000 -169.59800000000001)" fill="rgb(63,61,86)" stroke="none" stroke-width="1"/><polygon id="e60wn84omjzh187" points="592.486000,309.751000 634.355000,309.770000 639.466000,309.770000 648.096000,309.776000 648.096000,309.146000 648.102000,301.558000 648.108000,293.037000 642.367000,293.037000 637.256000,293.031000 628.203000,293.025000 623.091000,293.025000 612.639000,293.019000 592.486000,309.751000" fill="rgb(255,255,255)" stroke="none" stroke-width="1"/><polygon id="e60wn84omjzh188" points="637.256000,293.031000 648.096000,309.146000 648.102000,301.558000 642.367000,293.037000 637.256000,293.031000" fill="rgb(242,242,242)" stroke="none" stroke-width="1"/><polygon id="e60wn84omjzh189" points="668.697000,293.050000 677.042000,305.452000 677.042000,297.864000 673.808000,293.056000 668.697000,293.050000" fill="rgb(242,242,242)" stroke="none" stroke-width="1"/><polygon id="e60wn84omjzh190" points="654.908000,309.782000 677.036000,309.794000 677.042000,305.452000 677.042000,297.864000 677.048000,293.056000 673.808000,293.056000 668.697000,293.050000 654.915000,293.044000 654.908000,309.782000" fill="rgb(255,255,255)" stroke="none" stroke-width="1"/><polygon id="e60wn84omjzh191" points="623.091000,293.025000 634.355000,309.770000 639.466000,309.770000 628.203000,293.025000 623.091000,293.025000" fill="rgb(242,242,242)" stroke="none" stroke-width="1"/></g><path id="e60wn84omjzh192" d="M299.931770,656.556890C299.931770,656.556890,299.931770,688.275290,307.211400,696.594890C307.211400,696.594890,308.771330,700.754680,309.291300,702.314600C309.582050,703.202558,309.929430,704.070962,310.331300,704.914470L310.331300,706.994370C310.331300,706.994370,324.370590,705.434450,325.930510,701.794630L323.330640,698.674790C323.330640,698.674790,322.810640,698.154790,323.330640,696.594890C323.511992,696.248903,323.490014,695.831515,323.273328,695.506487C323.056642,695.181459,322.679814,695.000639,322.290690,695.034970L318.650870,686.715400L319.170870,652.397130L316.571000,605.079530L294.212130,604.039530Z" transform="matrix(1 0 0 1 -139.79100000000000 -169.59800000000001)" fill="rgb(47,46,65)" stroke="none" stroke-width="1"/><path id="e60wn84omjzh193" d="M311.371190,703.874500C311.371190,703.874500,307.731380,714.793940,311.371190,715.313920C315.011000,715.833900,346.729400,716.353860,346.209430,712.194070C345.689460,708.034280,335.290000,708.554260,335.290000,708.554260L324.370560,701.794600Z" transform="matrix(1 0 0 1 -139.79100000000000 -169.59800000000001)" fill="rgb(47,46,65)" stroke="none" stroke-width="1"/><path id="e60wn84omjzh194" d="M279.132830,605.079500C278.686402,609.969903,279.777031,614.877735,282.252670,619.118790C286.412460,626.398420,283.812590,650.837180,283.812590,650.837180L246.894460,683.075550C246.894460,683.075550,254.174090,695.554920,256.773960,695.034940C259.373830,694.514960,300.451750,661.236660,300.451750,661.236660L316.570930,607.159400Z" transform="matrix(1 0 0 1 -139.79100000000000 -169.59800000000001)" fill="rgb(47,46,65)" stroke="none" stroke-width="1"/><path id="e60wn84omjzh195" d="M247.401800,681.697790C247.401800,681.697790,236.230320,684.469180,237.739700,687.821850C239.249080,691.174520,255.790250,718.243260,259.025380,715.577140C262.260510,712.911020,256.253990,704.405660,256.253990,704.405660L256.117710,691.563980Z" transform="matrix(1 0 0 1 -139.79100000000000 -169.59800000000001)" fill="rgb(47,46,65)" stroke="none" stroke-width="1"/><circle id="e60wn84omjzh196" r="11.959400" transform="matrix(1 0 0 1 159.62100000000001 338.76600000000002)" fill="rgb(255,184,184)" stroke="none" stroke-width="1"/><path id="e60wn84omjzh197" d="M290.001940,512.584090L290.530940,527.973600L300.593880,531.949600C300.593880,531.949600,301.580730,516.191760,302.973760,515.318150C304.366790,514.444540,290.001940,512.584090,290.001940,512.584090Z" transform="matrix(1 0 0 1 -139.79100000000000 -169.59800000000001)" fill="rgb(255,184,184)" stroke="none" stroke-width="1"/><path id="e60wn84omjzh198" d="M303.051610,533.843110C303.051610,533.843110,289.012330,519.803820,285.372510,520.323790C281.732690,520.843760,281.732690,522.403690,281.732690,523.443640C281.732690,524.483590,282.772690,525.003560,281.732690,525.523530C280.692690,526.043500,279.652800,525.523530,279.652800,527.083450C279.652800,528.643370,270.293270,544.242580,273.413120,561.401710C276.532970,578.560840,280.172770,586.880420,278.612850,596.239950C277.052930,605.599480,278.092850,607.679370,278.092850,607.679370C278.092850,607.679370,317.090850,610.799210,317.610850,607.159370C318.130850,603.519530,316.050930,605.599440,318.650790,602.999580C321.250650,600.399720,320.210720,600.399710,320.210720,598.839790C320.210720,597.279870,308.771330,533.843110,303.051610,533.843110Z" transform="matrix(1 0 0 1 -139.79100000000000 -169.59800000000001)" fill="rgb(87,90,137)" stroke="none" stroke-width="1"/><path id="e60wn84omjzh199" d="M295.772000,604.559530C295.772000,604.559530,302.011690,619.638760,306.691450,615.998950C311.371210,612.359140,304.611560,599.879760,304.611560,599.879760Z" transform="matrix(1 0 0 1 -139.79100000000000 -169.59800000000001)" fill="rgb(255,184,184)" stroke="none" stroke-width="1"/><path id="e60wn84omjzh200" d="M280.692750,534.883060C280.692750,534.883060,268.475950,536.281710,273.024430,558.721210C277.572910,581.160710,295.252000,607.159400,295.252000,607.159400L307.211390,601.439680L291.612180,570.761240L295.252000,551.522240C295.252000,551.522240,297.331900,533.323140,280.692750,534.883060Z" transform="matrix(1 0 0 1 -139.79100000000000 -169.59800000000001)" fill="rgb(87,90,137)" stroke="none" stroke-width="1"/><polygon id="e60wn84omjzh201" points="151.561000,401.423000 168.720000,430.021000 167.161000,431.581000 151.561000,401.423000" opacity="0.2" fill="rgb(0,0,0)" stroke="none" stroke-width="1"/><polygon id="e60wn84omjzh202" points="142.479000,414.750000 156.241000,437.301000 151.561000,437.301000 142.479000,414.750000" opacity="0.2" fill="rgb(0,0,0)" stroke="none" stroke-width="1"/><path id="e60wn84omjzh203" d="M293.998820,515.550750C295.013617,515.139701,296.065315,514.826401,297.139620,514.615110C300.985002,513.314497,303.304318,509.400678,302.598620,505.403110C302.450449,504.911186,302.383927,504.398297,302.401700,503.884850C302.702726,502.751703,303.656631,501.911417,304.818700,501.755740C305.954537,501.623235,307.079343,501.409013,308.184370,501.114740C309.829164,500.374337,310.960212,498.819828,311.158570,497.027010C311.328746,495.254079,310.933943,493.472739,310.030620,491.937730L309.628030,493.096210C309.014052,492.576464,308.558292,491.894813,308.312610,491.128820C307.382216,491.285160,306.600088,491.914119,306.247760,492.789300C305.601550,493.170360,305.508460,491.605480,304.794670,491.374620C304.480750,491.335448,304.163430,491.413715,303.903730,491.594370C302.465420,492.265210,300.794330,491.691640,299.251450,491.319800C296.579749,490.678936,293.794744,490.675654,291.121540,491.310220C289.318716,491.664200,287.652927,492.521301,286.316840,493.782390C285.322908,494.910879,284.559357,496.222921,284.069210,497.644590C282.573431,501.039008,281.950027,504.753526,282.255700,508.450280C282.630425,511.448315,283.884679,514.268212,285.860230,516.554220C286.889380,517.739960,290.247050,521.876670,292.088120,521.171400C294.401500,520.285190,291.273140,516.991900,293.998820,515.550750Z" transform="matrix(1 0 0 1 -139.79100000000000 -169.59800000000001)" fill="rgb(47,46,65)" stroke="none" stroke-width="1"/><rect id="e60wn84omjzh204" width="38.396800" height="0.739880" rx="0" ry="0" transform="matrix(0.35636100000000 -0.93434800000000 0.93434800000000 0.35636100000000 159.88366878299996 491.60746510600029)" opacity="0.2" fill="rgb(0,0,0)" stroke="none" stroke-width="1"/><circle id="e60wn84omjzh205" r="0.739700" transform="matrix(1 0 0 1 163.18700000000001 366.36000000000001)" fill="rgb(208,205,225)" stroke="none" stroke-width="1"/><line id="e60wn84omjzh206" x1="163.187000" y1="366.360010" x2="169.474450" y2="386.701750" fill="rgb(208,205,225)" stroke="none" stroke-width="1"/><path id="e60wn84omjzh207" d="M309.265350,556.669940C309.103141,556.669927,308.959890,556.564172,308.912110,556.409160L302.624660,536.067610C302.564317,535.872521,302.673551,535.665453,302.868640,535.605110C303.063729,535.544767,303.270797,535.654001,303.331140,535.849090L309.618580,556.191010C309.653058,556.303178,309.632309,556.425050,309.562656,556.519490C309.493003,556.613929,309.382697,556.669749,309.265350,556.669940Z" transform="matrix(1 0 0 1 -139.79100000000000 -169.59800000000001)" fill="rgb(208,205,225)" stroke="none" stroke-width="1"/><circle id="e60wn84omjzh208" r="12.489000" transform="matrix(1 0 0 1 833.83399999999995 345.69299999999998)" fill="rgb(47,46,65)" stroke="none" stroke-width="1"/><path id="e60wn84omjzh209" d="M955.873140,590.944220L953.979680,594.731150C953.979680,594.731150,947.920590,604.577150,952.086210,605.713260C956.251830,606.849370,957.577210,598.328740,957.577210,598.328740L958.334600,593.784420Z" transform="matrix(1 0 0 1 -139.79100000000000 -169.59800000000001)" fill="rgb(160,97,106)" stroke="none" stroke-width="1"/><polygon id="e60wn84omjzh210" points="823.656000,402.033000 818.922000,414.529000 814.189000,423.239000 820.059000,427.026000 824.792000,418.695000 830.473000,405.630000 823.656000,402.033000" fill="rgb(208,205,225)" stroke="none" stroke-width="1"/><path id="e60wn84omjzh211" d="M976.890620,630.139000L986.357950,640.174370L1003.020460,668.387020L1010.215630,666.114860L1001.695000,649.263000C1001.695000,649.263000,996.772000,636.387430,994.310480,634.683310C991.848960,632.979190,987.683350,621.807740,987.683350,621.807740L983.139030,618.210160Z" transform="matrix(1 0 0 1 -139.79100000000000 -169.59800000000001)" fill="rgb(160,97,106)" stroke="none" stroke-width="1"/><path id="e60wn84omjzh212" d="M957.387920,635.630000L956.630530,638.848890C956.630530,638.848890,954.169020,648.884260,950.382090,653.428580L941.293450,669.144350L934.476980,666.872190L947.920590,635.062000Z" transform="matrix(1 0 0 1 -139.79100000000000 -169.59800000000001)" fill="rgb(160,97,106)" stroke="none" stroke-width="1"/><circle id="e60wn84omjzh213" r="10.224700" transform="matrix(1 0 0 1 831.70299999999997 350.05700000000002)" fill="rgb(160,97,106)" stroke="none" stroke-width="1"/><path id="e60wn84omjzh214" d="M979.541470,524.672900L980.866900,535.655000L972.346300,539.820630C972.346300,539.820630,972.346300,530.353300,970.074140,527.891790Z" transform="matrix(1 0 0 1 -139.79100000000000 -169.59800000000001)" fill="rgb(160,97,106)" stroke="none" stroke-width="1"/><path id="e60wn84omjzh215" d="M1006.239350,595.488540L1007.186080,598.707430C1007.186080,598.707430,1013.434520,611.014960,1008.132810,611.014960C1002.831100,611.014960,1001.884380,599.654170,1001.884380,599.654170L1001.316380,596.813970Z" transform="matrix(1 0 0 1 -139.79100000000000 -169.59800000000001)" fill="rgb(160,97,106)" stroke="none" stroke-width="1"/><path id="e60wn84omjzh216" d="M962.689620,582.613000L964.015050,591.891000L947.920590,625.784000L946.973850,635.630000L977.080000,639.417000L983.707130,621.050370L994.310540,634.683370L988.251450,620.671720C988.251450,620.671720,986.357980,611.204390,986.926020,608.742880C987.494060,606.281370,986.547330,593.973880,984.843210,590.944300C983.139090,587.914720,962.689620,582.613000,962.689620,582.613000Z" transform="matrix(1 0 0 1 -139.79100000000000 -169.59800000000001)" fill="rgb(47,46,65)" stroke="none" stroke-width="1"/><path id="e60wn84omjzh217" d="M1001.884380,668.387000L1010.973010,665.357460L1013.813210,669.901780C1013.813210,669.901780,1019.304270,671.416550,1019.114920,675.392780C1019.141492,679.009890,1019.458084,682.619044,1020.061650,686.185540L1016.085370,686.564230L1014.570600,678.801020L1006.807390,688.079020C1006.807390,688.079020,992.985080,688.836410,992.417040,686.564250C991.849000,684.292090,1002.263040,681.830580,1002.263040,681.830580L1003.967160,673.688680Z" transform="matrix(1 0 0 1 -139.79100000000000 -169.59800000000001)" fill="rgb(47,46,65)" stroke="none" stroke-width="1"/><path id="e60wn84omjzh218" d="M933.908940,665.736140L942.240190,668.386990L942.240190,670.280460C942.240190,670.280460,944.701690,674.067390,944.323000,677.286280C943.944310,680.505170,942.240190,688.268390,942.240190,688.268390L937.885190,688.268390L938.074540,681.073220L929.364600,688.268390C929.364600,688.268390,913.838170,687.132310,913.838170,684.670800C913.838170,682.209290,925.767010,680.505180,925.767010,680.505180Z" transform="matrix(1 0 0 1 -139.79100000000000 -169.59800000000001)" fill="rgb(47,46,65)" stroke="none" stroke-width="1"/><path id="e60wn84omjzh219" d="M971.778260,537.548470C971.778260,537.548470,979.541470,529.785260,983.139060,531.678730L983.139060,535.087000C983.139060,535.087000,988.440760,537.548510,988.630060,541.335440C988.819360,545.122370,994.310460,579.583440,994.310460,579.583440L1007.186030,624.458590C1007.186030,624.458590,1003.209750,630.707030,988.630030,623.701210L979.541390,592.837710C979.541390,592.837710,989.198070,627.677490,984.464390,627.109450C979.730710,626.541410,961.174750,583.370380,961.174750,583.370380L962.500180,562.920940C962.500180,562.920940,959.470630,554.021650,965.529720,547.962560Z" transform="matrix(1 0 0 1 -139.79100000000000 -169.59800000000001)" fill="rgb(208,205,225)" stroke="none" stroke-width="1"/><path id="e60wn84omjzh220" d="M985.032530,538.684550C985.032530,538.684550,988.251420,539.820630,990.523580,544.743640C992.795740,549.666650,1004.156580,584.317090,1004.156580,584.317090L1007.186120,596.624620L998.665520,598.707430L994.499900,586.021210L978.973470,557.240520C978.973470,557.240520,976.511930,542.092790,985.032530,538.684550Z" transform="matrix(1 0 0 1 -139.79100000000000 -169.59800000000001)" fill="rgb(208,205,225)" stroke="none" stroke-width="1"/><path id="e60wn84omjzh221" d="M984.284280,511.498320C984.198740,509.111820,982.931771,506.924185,980.904360,505.662320C981.943500,503.575140,982.872220,501.192840,982.187210,498.964190C981.621367,497.203567,980.148728,495.885839,978.336290,495.518360C977.342648,495.381637,976.334120,495.394693,975.344350,495.557090L970.678670,496.086290C969.151126,496.145807,967.656549,496.548266,966.305670,497.263850C964.946724,498.123508,964.076658,499.577324,963.961250,501.181203C963.845841,502.785081,964.498801,504.348488,965.720670,505.393850C962.456320,508.004910,960.274820,509.986980,958.789520,513.894340C961.280225,511.864167,964.392144,510.750131,967.605410,510.738340C972.147143,510.492514,976.060076,513.904947,976.434270,518.437910C976.414999,519.531680,976.511199,520.624430,976.721270,521.698010C976.967571,522.799786,977.948945,523.580598,979.077890,523.573010C978.927650,523.594230,978.002720,520.816850,978.653890,519.534860L978.664100,519.514220C978.807310,519.249250,979.043458,519.046608,979.327100,518.945290C979.838901,518.749035,980.410358,518.782175,980.896041,519.036277C981.381725,519.290379,981.734795,519.740938,981.865400,520.273290C982.227590,521.664290,982.807160,523.439290,983.313400,522.968170C983.976400,522.351170,983.697460,516.910670,983.876400,516.067270C984.233396,514.572156,984.370798,513.033028,984.284280,511.498320Z" transform="matrix(1 0 0 1 -139.79100000000000 -169.59800000000001)" fill="rgb(47,46,65)" stroke="none" stroke-width="1"/><path id="e60wn84omjzh222" d="M980.853000,505.625000C980.853000,505.625000,970.591060,506.294260,965.683170,505.401910" transform="matrix(1 0 0 1 -139.79100000000000 -169.59800000000001)" fill="rgb(208,205,225)" stroke="none" stroke-width="1"/><path id="e60wn84omjzh223" d="M980.271000,504.251840C981.310190,502.164650,982.238890,499.782370,981.553850,497.553710C981.233912,496.548967,980.608078,495.669275,979.763800,495.037560C981.067738,495.636974,982.060518,496.755774,982.500590,498.121750C983.185590,500.350410,982.256920,502.732690,981.217730,504.819880C980.393530,504.696830,982.340480,505.354910,980.271000,504.251840Z" transform="matrix(1 0 0 1 -139.79100000000000 -169.59800000000001)" fill="rgb(47,46,65)" stroke="none" stroke-width="1"/><polygon id="e60wn84omjzh224" points="837.194000,387.737000 851.963000,413.867000 857.644000,428.068000 849.691000,414.435000 837.194000,387.737000" opacity="0.2" fill="rgb(0,0,0)" stroke="none" stroke-width="1"/><path id="e60wn84omjzh225" d="M278.819200,705.849370C278.819200,705.849370,274.189400,715.927370,270.430260,718.752940C266.624040,715.919690,261.903580,705.849370,261.903580,705.849370C261.903580,705.849370,257.273780,715.927370,253.514640,718.752940C249.708420,715.919690,244.987970,705.849370,244.987970,705.849370C244.987970,705.849370,231.838970,719.291550,231.875380,725.657600C231.876278,725.816312,231.885270,725.974874,231.902320,726.132670C232.351130,730.300670,245.945670,731.362670,253.413770,729.398410C258.980770,730.668657,264.762390,730.668657,270.329390,729.398410C277.765590,731.394110,291.636620,730.250750,292.042060,726.034950C292.057323,725.877003,292.064526,725.718380,292.063640,725.559700C292.027290,719.193660,278.819200,705.849370,278.819200,705.849370Z" transform="matrix(1 0 0 1 -134.06683756000004 -145.04604000000000)" fill="rgb(108,99,255)" stroke="none" stroke-width="1"/><path id="e60wn84omjzh226" d="M555.058790,705.849370C555.058790,705.849370,550.428990,715.927370,546.669850,718.752940C542.863630,715.919690,538.143180,705.849370,538.143180,705.849370C538.143180,705.849370,533.513380,715.927370,529.754240,718.752940C525.948020,715.919690,521.227560,705.849370,521.227560,705.849370C521.227560,705.849370,508.078560,719.291550,508.114970,725.657600C508.115871,725.816312,508.124866,725.974874,508.141920,726.132670C508.590720,730.300670,522.185260,731.362670,529.653370,729.398410C535.220366,730.668657,541.001984,730.668657,546.568980,729.398410C554.005180,731.394110,567.876210,730.250750,568.281650,726.034950C568.296913,725.877003,568.304116,725.718380,568.303230,725.559700C568.266890,719.193660,555.058790,705.849370,555.058790,705.849370Z" transform="matrix(1 0 0 1 -141.39274447500003 -146.71936999999997)" fill="rgb(230,230,230)" stroke="none" stroke-width="1"/><path id="e60wn84omjzh227" d="M829.510450,705.849370C829.510450,705.849370,824.880650,715.927370,821.121510,718.752940C817.315290,715.919690,812.594840,705.849370,812.594840,705.849370C812.594840,705.849370,807.965040,715.927370,804.205900,718.752940C800.399680,715.919690,795.679230,705.849370,795.679230,705.849370C795.679230,705.849370,782.530230,719.291550,782.566630,725.657600C782.567536,725.816312,782.576531,725.974874,782.593580,726.132670C783.042380,730.300670,796.636920,731.362670,804.105030,729.398410C809.672026,730.668657,815.453644,730.668657,821.020640,729.398410C828.456840,731.394110,842.327870,730.250750,842.733310,726.034950C842.748573,725.877003,842.755776,725.718380,842.754890,725.559700C842.718550,719.193660,829.510450,705.849370,829.510450,705.849370Z" transform="matrix(1 0 0 1 -137.86237804500007 -146.71936999999997)" fill="rgb(108,99,255)" stroke="none" stroke-width="1"/><path id="e60wn84omjzh228" d="M295.405230,216.889170L295.284070,216.955170C292.624627,218.409646,289.410122,218.420934,286.740530,216.985170Q286.626920,216.923900,286.514650,216.864170C283.845732,215.439591,280.639766,215.450662,277.980750,216.893640L277.867680,216.955200C275.208237,218.409678,271.993732,218.420966,269.324140,216.985200Q269.206200,216.921590,269.089690,216.859640C266.452593,215.441758,263.281244,215.436129,260.639130,216.844640C256.665240,218.984710,251.293030,222.643730,251.316690,226.775990C251.317617,226.939402,251.326879,227.102661,251.344440,227.265130C251.806530,231.556500,265.803520,232.649960,273.492710,230.627540C279.224515,231.935398,285.177295,231.935398,290.909100,230.627540C298.565440,232.682330,312.847100,231.505120,313.264560,227.164540C313.280268,227.001916,313.287681,226.838598,313.286770,226.675220C313.263170,222.540720,307.843450,218.920080,303.844630,216.810110C301.195177,215.423938,298.028249,215.453606,295.405230,216.889170Z" transform="matrix(1 0 0 1 -139.79100000000000 -169.59800000000001)" fill="rgb(230,230,230)" stroke="none" stroke-width="1"/><path id="e60wn84omjzh229" d="M555.528380,262.244570L555.407220,262.310570C552.747774,263.765037,549.533274,263.776325,546.863680,262.340570Q546.750070,262.279290,546.637800,262.219570C543.968882,260.794993,540.762919,260.806061,538.103900,262.249030L537.990830,262.310600C535.331388,263.765067,532.116891,263.776355,529.447300,262.340600Q529.329300,262.276980,529.212840,262.215030C526.575732,260.797174,523.404388,260.791564,520.762280,262.200080C516.788400,264.340150,511.416190,267.999160,511.439840,272.131420C511.440767,272.294832,511.450029,272.458091,511.467590,272.620560C511.929680,276.911930,525.926670,278.005390,533.615860,275.982970C539.347665,277.290828,545.300445,277.290828,551.032250,275.982970C558.688590,278.037760,572.970250,276.860550,573.387710,272.519970C573.403418,272.357350,573.410831,272.194035,573.409920,272.030660C573.386320,267.896160,567.966610,264.275510,563.967780,262.165540C561.318332,260.779359,558.151404,260.809016,555.528380,262.244570Z" transform="matrix(1 0 0 1 -139.79100000000000 -169.59800000000001)" fill="rgb(230,230,230)" stroke="none" stroke-width="1"/><path id="e60wn84omjzh230" d="M735.312590,218.856690L735.191430,218.922690C732.531989,220.377163,729.317489,220.388450,726.647900,218.952690Q726.534290,218.891420,726.422020,218.831690C723.753099,217.407113,720.547132,217.418181,717.888110,218.861150L717.775050,218.922720C715.115606,220.377193,711.901103,220.388480,709.231510,218.952720Q709.113570,218.889110,708.997060,218.827160C706.359958,217.409283,703.188609,217.403654,700.546490,218.812160C696.572610,220.952230,691.200400,224.611250,691.224060,228.743500C691.224989,228.906912,691.234248,229.070171,691.251800,229.232640C691.713890,233.524010,705.710890,234.617470,713.400080,232.595060C719.131885,233.902913,725.084665,233.902913,730.816470,232.595060C738.472810,234.649840,752.754470,233.472630,753.171920,229.132060C753.187637,228.969440,753.195053,228.806125,753.194140,228.642750C753.170540,224.508250,747.750820,220.887600,743.751990,218.777640C741.102539,217.391465,737.935610,217.421129,735.312590,218.856690Z" transform="matrix(1 0 0 1 -139.79100000000000 -169.59800000000001)" fill="rgb(230,230,230)" stroke="none" stroke-width="1"/><rect id="e60wn84omjzh231" width="919.582000" height="1.672810" rx="0" ry="0" transform="matrix(1 0 0 1 0 559.13000000000000)" fill="rgb(63,61,86)" stroke="none" stroke-width="1"/><script><![CDATA[!function(t,n){"object"==typeof exports&&"undefined"!=typeof module?module.exports=n():"function"==typeof define&&define.amd?define(n):(t=t||self).__SVGATOR_PLAYER__=n()}(this,(function(){"use strict";function t(n){return(t="function"==typeof Symbol&&"symbol"==typeof Symbol.iterator?function(t){return typeof t}:function(t){return t&&"function"==typeof Symbol&&t.constructor===Symbol&&t!==Symbol.prototype?"symbol":typeof t})(n)}function n(t,n){if(!(t instanceof n))throw new TypeError("Cannot call a class as a function")}function r(t,n){for(var r=0;r<n.length;r++){var e=n[r];e.enumerable=e.enumerable||!1,e.configurable=!0,"value"in e&&(e.writable=!0),Object.defineProperty(t,e.key,e)}}function e(t,n,e){return n&&r(t.prototype,n),e&&r(t,e),t}var i=1e-5,u=Math.abs;function o(t){return t}function a(t,n,r){var e=1-r;return 3*r*e*(t*e+n*r)+r*r*r}function l(){var t=arguments.length>0&&void 0!==arguments[0]?arguments[0]:0,n=arguments.length>1&&void 0!==arguments[1]?arguments[1]:0,r=arguments.length>2&&void 0!==arguments[2]?arguments[2]:1,e=arguments.length>3&&void 0!==arguments[3]?arguments[3]:1;return t<0||t>1||r<0||r>1?null:u(t-n)<=i&&u(r-e)<=i?o:function(o){if(o<=0)return t>0?o*n/t:0===n&&r>0?o*e/r:0;if(o>=1)return r<1?1+(o-1)*(e-1)/(r-1):1===r&&t<1?1+(o-1)*(n-1)/(t-1):1;for(var l,f=0,s=1;f<s;){var c=a(t,r,l=(f+s)/2);if(u(o-c)<i)break;c<o?f=l:s=l}return a(n,e,l)}}function f(){return 1}function s(t){return 1===t?1:0}function c(){var t=arguments.length>0&&void 0!==arguments[0]?arguments[0]:1,n=arguments.length>1&&void 0!==arguments[1]?arguments[1]:0;if(1===t){if(0===n)return s;if(1===n)return f}var r=1/t;return function(t){return t>=1?1:(t+=n*r)-t%r}}function v(t){var n=arguments.length>1&&void 0!==arguments[1]?arguments[1]:2;if(Number.isInteger(t))return t;var r=Math.pow(10,n);return Math.round(t*r)/r}var h=Math.PI/180;function y(t,n,r){return t>=.5?r:n}function d(t,n,r){return 0===t||n===r?n:t*(r-n)+n}function g(t,n,r){var e=d(t,n,r);return e<=0?0:e}function m(t,n,r){return 0===t?n:1===t?r:{x:d(t,n.x,r.x),y:d(t,n.y,r.y)}}function p(t,n,r){return 0===t?n:1===t?r:{x:g(t,n.x,r.x),y:g(t,n.y,r.y)}}function b(t,n,r){var e=function(t,n,r){return Math.round(d(t,n,r))}(t,n,r);return e<=0?0:e>=255?255:e}function w(t,n,r){return 0===t?n:1===t?r:{r:b(t,n.r,r.r),g:b(t,n.g,r.g),b:b(t,n.b,r.b),a:d(t,null==n.a?1:n.a,null==r.a?1:r.a)}}function A(t,n,r){if(0===t)return n;if(1===t)return r;var e=n.length;if(e!==r.length)return y(t,n,r);for(var i=[],u=0;u<e;u++)i.push(w(t,n[u],r[u]));return i}function x(t,n,r){var e=n.length;if(e!==r.length)return y(t,n,r);for(var i=new Array(e),u=0;u<e;u++)i[u]=d(t,n[u],r[u]);return i}function k(t,n){for(var r=[],e=0;e<t;e++)r.push(n);return r}function S(t,n){if(--n<=0)return t;var r=(t=Object.assign([],t)).length;do{for(var e=0;e<r;e++)t.push(t[e])}while(--n>0);return t}var _=6,M=/\.0+$/g;function I(t){return Number.isInteger(t)?t+"":t.toFixed(_).replace(M,"")}function E(t){var n=arguments.length>1&&void 0!==arguments[1]?arguments[1]:" ";return t&&t.length?t.map(I).join(n):""}function F(t){return I(t.x)+","+I(t.y)}function B(t){return t?null==t.a||t.a>=1?"rgb("+t.r+","+t.g+","+t.b+")":"rgba("+t.r+","+t.g+","+t.b+","+t.a+")":"transparent"}var j={f:null,i:p,u:function(t,n){return function(r){var e=n(r);t.setAttribute("rx",I(e.x)),t.setAttribute("ry",I(e.y))}}},q={f:null,i:function(t,n,r){return 0===t?n:1===t?r:{width:g(t,n.width,r.width),height:g(t,n.height,r.height)}},u:function(t,n){return function(r){var e=n(r);t.setAttribute("width",I(e.width)),t.setAttribute("height",I(e.height))}}},P=Math.sin,O=Math.cos,z=Math.acos,L=Math.asin,C=Math.tan,R=Math.atan2,T=Math.PI/180,V=180/Math.PI,D=Math.sqrt,N=function(){function t(){var r=arguments.length>0&&void 0!==arguments[0]?arguments[0]:1,e=arguments.length>1&&void 0!==arguments[1]?arguments[1]:0,i=arguments.length>2&&void 0!==arguments[2]?arguments[2]:0,u=arguments.length>3&&void 0!==arguments[3]?arguments[3]:1,o=arguments.length>4&&void 0!==arguments[4]?arguments[4]:0,a=arguments.length>5&&void 0!==arguments[5]?arguments[5]:0;n(this,t),this.m=[r,e,i,u,o,a],this.i=null,this.w=null,this.s=null}return e(t,[{key:"point",value:function(t,n){var r=this.m;return{x:r[0]*t+r[2]*n+r[4],y:r[1]*t+r[3]*n+r[5]}}},{key:"translateSelf",value:function(){var t=arguments.length>0&&void 0!==arguments[0]?arguments[0]:0,n=arguments.length>1&&void 0!==arguments[1]?arguments[1]:0;if(!t&&!n)return this;var r=this.m;return r[4]+=r[0]*t+r[2]*n,r[5]+=r[1]*t+r[3]*n,this.w=this.s=this.i=null,this}},{key:"rotateSelf",value:function(){var t=arguments.length>0&&void 0!==arguments[0]?arguments[0]:0;if(t%=360){var n=P(t*=T),r=O(t),e=this.m,i=e[0],u=e[1];e[0]=i*r+e[2]*n,e[1]=u*r+e[3]*n,e[2]=e[2]*r-i*n,e[3]=e[3]*r-u*n,this.w=this.s=this.i=null}return this}},{key:"scaleSelf",value:function(){var t=arguments.length>0&&void 0!==arguments[0]?arguments[0]:1,n=arguments.length>1&&void 0!==arguments[1]?arguments[1]:1;if(1!==t||1!==n){var r=this.m;r[0]*=t,r[1]*=t,r[2]*=n,r[3]*=n,this.w=this.s=this.i=null}return this}},{key:"skewSelf",value:function(t,n){if(n%=360,(t%=360)||n){var r=this.m,e=r[0],i=r[1],u=r[2],o=r[3];t&&(t=C(t*T),r[2]+=e*t,r[3]+=i*t),n&&(n=C(n*T),r[0]+=u*n,r[1]+=o*n),this.w=this.s=this.i=null}return this}},{key:"resetSelf",value:function(){var t=arguments.length>0&&void 0!==arguments[0]?arguments[0]:1,n=arguments.length>1&&void 0!==arguments[1]?arguments[1]:0,r=arguments.length>2&&void 0!==arguments[2]?arguments[2]:0,e=arguments.length>3&&void 0!==arguments[3]?arguments[3]:1,i=arguments.length>4&&void 0!==arguments[4]?arguments[4]:0,u=arguments.length>5&&void 0!==arguments[5]?arguments[5]:0,o=this.m;return o[0]=t,o[1]=n,o[2]=r,o[3]=e,o[4]=i,o[5]=u,this.w=this.s=this.i=null,this}},{key:"recomposeSelf",value:function(){var t=arguments.length>0&&void 0!==arguments[0]?arguments[0]:null,n=arguments.length>1&&void 0!==arguments[1]?arguments[1]:null,r=arguments.length>2&&void 0!==arguments[2]?arguments[2]:null,e=arguments.length>3&&void 0!==arguments[3]?arguments[3]:null,i=arguments.length>4&&void 0!==arguments[4]?arguments[4]:null;return this.isIdentity||this.resetSelf(),t&&(t.x||t.y)&&this.translateSelf(t.x,t.y),n&&this.rotateSelf(n),r&&(r.x&&this.skewSelf(r.x,0),r.y&&this.skewSelf(0,r.y)),!e||1===e.x&&1===e.y||this.scaleSelf(e.x,e.y),i&&(i.x||i.y)&&this.translateSelf(i.x,i.y),this}},{key:"decompose",value:function(){var t=arguments.length>0&&void 0!==arguments[0]?arguments[0]:0,n=arguments.length>1&&void 0!==arguments[1]?arguments[1]:0,r=this.m,e=r[0]*r[0]+r[1]*r[1],i=[[r[0],r[1]],[r[2],r[3]]],u=D(e);if(0===u)return{origin:{x:r[4],y:r[5]},translate:{x:t,y:n},scale:{x:0,y:0},skew:{x:0,y:0},rotate:0};i[0][0]/=u,i[0][1]/=u;var o=r[0]*r[3]-r[1]*r[2]<0;o&&(u=-u);var a=i[0][0]*i[1][0]+i[0][1]*i[1][1];i[1][0]-=i[0][0]*a,i[1][1]-=i[0][1]*a;var l=D(i[1][0]*i[1][0]+i[1][1]*i[1][1]);if(0===l)return{origin:{x:r[4],y:r[5]},translate:{x:t,y:n},scale:{x:u,y:0},skew:{x:0,y:0},rotate:0};i[1][0]/=l,i[1][1]/=l,a/=l;var f=0;return i[1][1]<0?(f=z(i[1][1])*V,i[0][1]<0&&(f=360-f)):f=L(i[0][1])*V,o&&(f=-f),a=R(a,D(i[0][0]*i[0][0]+i[0][1]*i[0][1]))*V,{origin:{x:r[4],y:r[5]},translate:{x:t,y:n},scale:{x:u,y:l},skew:{x:a,y:0},rotate:f}}},{key:"toString",value:function(){return null===this.s&&(this.s="matrix("+this.m.map($).join(" ")+")"),this.s}},{key:"determinant",get:function(){var t=this.m;return t[0]*t[3]-t[1]*t[2]}},{key:"isIdentity",get:function(){if(null===this.i){var t=this.m;this.i=1===t[0]&&0===t[1]&&0===t[2]&&1===t[3]&&0===t[4]&&0===t[5]}return this.i}}]),t}(),G=/\.0+$/;function $(t){return Number.isInteger(t)?t:t.toFixed(14).replace(G,"")}Object.freeze({M:2,L:2,Z:0,H:1,V:1,C:6,Q:4,T:2,S:4,A:7});function H(t,n,r){return t+(n-t)*r}function Q(t,n,r){var e=arguments.length>3&&void 0!==arguments[3]&&arguments[3],i={x:H(t.x,n.x,r),y:H(t.y,n.y,r)};return e&&(i.a=function(t,n){return Math.atan2(n.y-t.y,n.x-t.x)}(t,n)),i}function U(t,n,r,e){var i=1-e;return i*i*t+2*i*e*n+e*e*r}function Y(t,n,r,e){return 2*(1-e)*(n-t)+2*e*(r-n)}function Z(t,n,r,e){var i=arguments.length>4&&void 0!==arguments[4]&&arguments[4],u={x:U(t.x,n.x,r.x,e),y:U(t.y,n.y,r.y,e)};return i&&(u.a=function(t,n,r,e){return Math.atan2(Y(t.y,n.y,r.y,e),Y(t.x,n.x,r.x,e))}(t,n,r,e)),u}function J(t,n,r,e,i){var u=i*i;return i*u*(e-t+3*(n-r))+3*u*(t+r-2*n)+3*i*(n-t)+t}function K(t,n,r,e,i){var u=1-i;return 3*(u*u*(n-t)+2*u*i*(r-n)+i*i*(e-r))}function W(t,n,r,e,i){var u=arguments.length>5&&void 0!==arguments[5]&&arguments[5],o={x:J(t.x,n.x,r.x,e.x,i),y:J(t.y,n.y,r.y,e.y,i)};return u&&(o.a=function(t,n,r,e,i){return Math.atan2(K(t.y,n.y,r.y,e.y,i),K(t.x,n.x,r.x,e.x,i))}(t,n,r,e,i)),o}function X(t,n,r){var e,i=arguments.length>3&&void 0!==arguments[3]&&arguments[3];if(nt(n)){if(null!=(e=r).start&&!nt(e))return Z(n,r.start,r,t,i)}else if(nt(r)){if(n.end)return Z(n,n.end,r,t,i)}else{if(n.end)return r.start?W(n,n.end,r.start,r,t,i):Z(n,n.end,r,t,i);if(r.start)return Z(n,r.start,r,t,i)}return Q(n,r,t,i)}function tt(t,n,r){var e=X(t,n,r,!0);return e.a=function(t){return arguments.length>1&&void 0!==arguments[1]&&arguments[1]?t+Math.PI:t}(e.a)/h,e}function nt(t){return!t.type||"corner"===t.type}var rt=new N;var et={f:function(t){return t?t.join(" "):""},i:function(n,r,e){if(0===n)return r;if(1===n)return e;var i=r.length;if(i!==e.length)return y(n,r,e);for(var u,o=new Array(i),a=0;a<i;a++){if((u=t(r[a]))!==t(e[a]))return y(n,r,e);if("number"===u)o[a]=d(n,r[a],e[a]);else{if(r[a]!==e[a])return y(n,r,e);o[a]=r[a]}}return o}},it={f:null,i:x,u:function(t,n){return function(r){var e=n(r);t.setAttribute("x1",I(e[0])),t.setAttribute("y1",I(e[1])),t.setAttribute("x2",I(e[2])),t.setAttribute("y2",I(e[3]))}}},ut={f:I,i:d},ot={f:I,i:function(t,n,r){var e=d(t,n,r);return e<=0?0:e>=1?1:e}},at={f:E,i:function(t,n,r){var e,i,u,o=n.length,a=r.length;if(o!==a)if(0===o)n=k(o=a,0);else if(0===a)a=o,r=k(o,0);else{var l=(u=(e=o)*(i=a)/function(t,n){for(var r;n;)r=n,n=t%n,t=r;return t||1}(e,i))<0?-u:u;n=S(n,Math.floor(l/o)),r=S(r,Math.floor(l/a)),o=a=l}for(var f=[],s=0;s<o;s++)f.push(v(g(t,n[s],r[s]),6));return f}};function lt(t,n,r,e,i,u,o,a){return n=function(t,n,r){for(var e,i,u,o=t.length-1,a={},l=0;l<=o;l++)(e=t[l]).e&&(e.e=n(e.e)),e.v&&"g"===(i=e.v).t&&i.r&&(u=r.getElementById(i.r))&&(a[i.r]=u.querySelectorAll("stop"));return a}(t,e,a),function(e){var i,u=r(e,t,ft);return u?"c"===u.t?B(u.v):"g"===u.t?(n[u.r]&&function(t,n){for(var r=0,e=t.length;r<e;r++)t[r].setAttribute("stop-color",B(n[r]))}(n[u.r],u.v),(i=u.r)?"url(#"+i+")":"none"):"none":"none"}}function ft(t,n,r){if(0===t)return n;if(1===t)return r;if(n&&r){var e=n.t;if(e===r.t)switch(n.t){case"c":return{t:e,v:w(t,n.v,r.v)};case"g":if(n.r===r.r)return{t:e,v:A(t,n.v,r.v),r:n.r}}}return y(t,n,r)}var st={blur:p,brightness:g,contrast:g,"drop-shadow":function(t,n,r){return 0===t?n:1===t?r:{blur:p(t,n.blur,r.blur),offset:m(t,n.offset,r.offset),color:w(t,n.color,r.color)}},grayscale:g,"hue-rotate":d,invert:g,opacity:g,saturate:g,sepia:g};function ct(t,n,r){if(0===t)return n;if(1===t)return r;var e=n.length;if(e!==r.length)return y(t,n,r);for(var i,u=[],o=0;o<e;o++){if(n[o].type!==r[o].type)return n;if(!(i=st[n[o].type]))return y(t,n,r);u.push({type:n.type,value:i(t,n[o].value,r[o].value)})}return u}var vt={blur:function(t){return t?function(n){t.setAttribute("stdDeviation",F(n))}:null},brightness:function(t,n,r){return(t=yt(r,n))?function(n){n=I(n),t.map((function(t){return t.setAttribute("slope",n)}))}:null},contrast:function(t,n,r){return(t=yt(r,n))?function(n){var r=I((1-n)/2);n=I(n),t.map((function(t){t.setAttribute("slope",n),t.setAttribute("intercept",r)}))}:null},"drop-shadow":function(t,n,r){var e=r.getElementById(n+"-blur");if(!e)return null;var i=r.getElementById(n+"-offset");if(!i)return null;var u=r.getElementById(n+"-flood");return u?function(t){e.setAttribute("stdDeviation",F(t.blur)),i.setAttribute("dx",I(t.offset.x)),i.setAttribute("dy",I(t.offset.y)),u.setAttribute("flood-color",B(t.color))}:null},grayscale:function(t){return t?function(n){t.setAttribute("values",E(function(t){return[.2126+.7874*(t=1-t),.7152-.7152*t,.0722-.0722*t,0,0,.2126-.2126*t,.7152+.2848*t,.0722-.0722*t,0,0,.2126-.2126*t,.7152-.7152*t,.0722+.9278*t,0,0,0,0,0,1,0]}(n)))}:null},"hue-rotate":function(t){return t?function(n){return t.setAttribute("values",I(n))}:null},invert:function(t,n,r){return(t=yt(r,n))?function(n){n=I(n)+" "+I(1-n),t.map((function(t){return t.setAttribute("tableValues",n)}))}:null},opacity:function(t,n,r){return(t=r.getElementById(n+"-A"))?function(n){return t.setAttribute("tableValues","0 "+I(n))}:null},saturate:function(t){return t?function(n){return t.setAttribute("values",I(n))}:null},sepia:function(t){return t?function(n){return t.setAttribute("values",E(function(t){return[.393+.607*(t=1-t),.769-.769*t,.189-.189*t,0,0,.349-.349*t,.686+.314*t,.168-.168*t,0,0,.272-.272*t,.534-.534*t,.131+.869*t,0,0,0,0,0,1,0]}(n)))}:null}};var ht=["R","G","B"];function yt(t,n){var r=ht.map((function(r){return t.getElementById(n+"-"+r)||null}));return-1!==r.indexOf(null)?null:r}var dt={fill:lt,"fill-opacity":ot,stroke:lt,"stroke-opacity":ot,"stroke-width":ut,"stroke-dashoffset":{f:I,i:d},"stroke-dasharray":at,opacity:ot,transform:function(n,r,e,i){if(!(n=function(n,r){if(!n||"object"!==t(n))return null;var e=!1;for(var i in n)n.hasOwnProperty(i)&&(n[i]&&n[i].length?(n[i].forEach((function(t){t.e&&(t.e=r(t.e))})),e=!0):delete n[i]);return e?n:null}(n,i)))return null;var u=function(t,i,u){var o=arguments.length>3&&void 0!==arguments[3]?arguments[3]:null;return n[t]?e(i,n[t],u):r&&r[t]?r[t]:o};return r&&r.a&&n.o?function(t){var r=e(t,n.o,tt);return rt.recomposeSelf(r,u("r",t,d,0)+r.a,u("k",t,m),u("s",t,m),u("t",t,m)).toString()}:function(t){return rt.recomposeSelf(u("o",t,X,null),u("r",t,d,0),u("k",t,m),u("s",t,m),u("t",t,m)).toString()}},"#filter":function(t,n,r,e,i,u,o,a){if(!n.items||!t||!t.length)return null;var l=function(t,n){var r=(t=t.map((function(t){return t&&vt[t[0]]?(n.getElementById(t[1]),vt[t[0]](n.getElementById(t[1]),t[1],n)):null}))).length;return function(n){for(var e=0;e<r;e++)t[e]&&t[e](n[e].value)}}(n.items,a);return l?(t=function(t,n){return t.map((function(t){return t.e=n(t.e),t}))}(t,e),function(n){l(r(n,t,ct))}):null},"#line":it,points:{f:E,i:x},d:et,r:ut,"#size":q,"#radius":j,_:function(t,n){if(Array.isArray(t))for(var r=0;r<t.length;r++)this[t[r]]=n;else this[t]=n}},gt=function(){function t(r){n(this,t),this.list=r,this.length=r.length}return e(t,[{key:"setAttribute",value:function(t,n){for(var r=this.list,e=0;e<this.length;e++)r[e].setAttribute(t,n)}},{key:"removeAttribute",value:function(t){for(var n=this.list,r=0;r<this.length;r++)n[r].removeAttribute(t)}},{key:"style",value:function(t,n){for(var r=this.list,e=0;e<this.length;e++)r[e].style[t]=n}}]),t}(),mt=/-./g,pt=function(t,n){return n.toUpperCase()};function bt(t){return"function"==typeof t?t:y}function wt(t){return t?"function"==typeof t?t:Array.isArray(t)?function(t){var n=arguments.length>1&&void 0!==arguments[1]?arguments[1]:o;if(!Array.isArray(t))return n;switch(t.length){case 1:return c(t[0])||n;case 2:return c(t[0],t[1])||n;case 4:return l(t[0],t[1],t[2],t[3])||n}return n}(t,null):function(t,n){var r=arguments.length>2&&void 0!==arguments[2]?arguments[2]:o;switch(t){case"linear":return o;case"steps":return c(n.steps||1,n.jump||0)||r;case"bezier":case"cubic-bezier":return l(n.x1||0,n.y1||0,n.x2||0,n.y2||0)||r}return r}(t.type,t.value,null):null}function At(t,n,r){var e=arguments.length>3&&void 0!==arguments[3]&&arguments[3],i=n.length-1;if(t<=n[0].t)return e?[0,0,n[0].v]:n[0].v;if(t>=n[i].t)return e?[i,1,n[i].v]:n[i].v;var u,o=n[0],a=null;for(u=1;u<=i;u++){if(!(t>n[u].t)){a=n[u];break}o=n[u]}return null==a?e?[i,1,n[i].v]:n[i].v:o.t===a.t?e?[u,1,a.v]:a.v:(t=(t-o.t)/(a.t-o.t),o.e&&(t=o.e(t)),e?[u,t,r(t,o.v,a.v)]:r(t,o.v,a.v))}function xt(t,n){var r=arguments.length>2&&void 0!==arguments[2]?arguments[2]:null;return t&&t.length?"function"!=typeof n?null:("function"!=typeof r&&(r=null),function(e){var i=At(e,t,n);return null!=i&&r&&(i=r(i)),i}):null}function kt(t,n){return t.t-n.t}function St(n,r,e,i,u){var o,a="@"===e[0],l="#"===e[0],f=dt[e],s=y;switch(a?(o=e.substr(1),e=o.replace(mt,pt)):l&&(e=e.substr(1)),t(f)){case"function":if(s=f(i,u,At,wt,e,a,r,n),l)return s;break;case"string":s=xt(i,bt(f));break;case"object":if((s=xt(i,bt(f.i),f.f))&&"function"==typeof f.u)return f.u(r,s,e,a,n)}return s?function(t,n,r){if(arguments.length>3&&void 0!==arguments[3]&&arguments[3])return t instanceof gt?function(e){return t.style(n,r(e))}:function(e){return t.style[n]=r(e)};if(Array.isArray(n)){var e=n.length;return function(i){var u=r(i);if(null==u)for(var o=0;o<e;o++)t[o].removeAttribute(n);else for(var a=0;a<e;a++)t[a].setAttribute(n,u)}}return function(e){var i=r(e);null==i?t.removeAttribute(n):t.setAttribute(n,i)}}(r,e,s,a):null}function _t(n,r,e,i){if(!i||"object"!==t(i))return null;var u=null,o=null;return Array.isArray(i)?o=function(t){if(!t||!t.length)return null;for(var n=0;n<t.length;n++)t[n].e&&(t[n].e=wt(t[n].e));return t.sort(kt)}(i):(o=i.keys,u=i.data||null),o?St(n,r,e,o,u):null}function Mt(t,n,r){if(!r)return null;var e=[];for(var i in r)if(r.hasOwnProperty(i)){var u=_t(t,n,i,r[i]);u&&e.push(u)}return e.length?e:null}function It(t,n){if(!n.duration||n.duration<0)return null;var r=function(t,n){if(!n)return null;var r=[];if(Array.isArray(n))for(var e=n.length,i=0;i<e;i++){var u=n[i];if(2===u.length){var o=null;if("string"==typeof u[0])o=t.getElementById(u[0]);else if(Array.isArray(u[0])){o=[];for(var a=0;a<u[0].length;a++)if("string"==typeof u[0][a]){var l=t.getElementById(u[0][a]);l&&o.push(l)}o=o.length?1===o.length?o[0]:new gt(o):null}if(o){var f=Mt(t,o,u[1]);f&&(r=r.concat(f))}}}else for(var s in n)if(n.hasOwnProperty(s)){var c=t.getElementById(s);if(c){var v=Mt(t,c,n[s]);v&&(r=r.concat(v))}}return r.length?r:null}(t,n.elements);return r?function(t,n){var r=arguments.length>2&&void 0!==arguments[2]?arguments[2]:1/0,e=arguments.length>3&&void 0!==arguments[3]?arguments[3]:1,i=arguments.length>4&&void 0!==arguments[4]&&arguments[4],u=arguments.length>5&&void 0!==arguments[5]?arguments[5]:1,o=t.length,a=e>0?n:0;i&&r%2==0&&(a=n-a);var l=null;return function(f,s){var c=f%n,v=1+(f-c)/n;s*=e,i&&v%2==0&&(s=-s);var h=!1;if(v>r)c=a,h=!0,-1===u&&(c=e>0?0:n);else if(s<0&&(c=n-c),c===l)return!1;l=c;for(var y=0;y<o;y++)t[y](c);return h}}(r,n.duration,n.iterations||1/0,n.direction||1,!!n.alternate,n.fill||1):null}var Et=function(){function t(r){var e=arguments.length>1&&void 0!==arguments[1]?arguments[1]:{};n(this,t),this._id=0,this._running=!1,this._animations=r,this.direction=e.direction||1,this.speed=e.speed||1,this.fps=e.fps||100,this.offset=e.offset||0}return e(t,[{key:"_start",value:function(){var t=this,n=arguments.length>0&&void 0!==arguments[0]?arguments[0]:0,r=-1/0,e=null,i={},u=function u(o){t._running=!0,null==e&&(e=o);var a=Math.round((o-e+n)*t.speed),l=t.fps?1e3/t.fps:0;if(a>r+l){t.offset=a,r=a;for(var f=t._animations,s=f.length,c=0,v=0;v<s;v++)i[v]?c++:(i[v]=f[v](a,t.direction),i[v]&&c++);if(c===s)return void t._stop()}t._id=window.requestAnimationFrame(u)};this._id=window.requestAnimationFrame(u)}},{key:"_stop",value:function(){this._id&&window.cancelAnimationFrame(this._id),this._running=!1}},{key:"play",value:function(){this._running||this._start(this.offset)}},{key:"stop",value:function(){this._stop(),this.offset=0;var t=this.direction,n=this._animations;requestAnimationFrame((function(){for(var r=0;r<n.length;r++)n[r](0,t)}))}},{key:"restart",value:function(){this._stop(),this.offset=0,this._start()}},{key:"pause",value:function(){this._stop()}},{key:"reverse",value:function(){this.direction=-this.direction}}],[{key:"build",value:function(n){if(!(n=function(t){if(!t||!t.root||!Array.isArray(t.animations))return null;var n=window.document.getElementById(t.root);if(!n)return null;var r=t.animations.map((function(t){return It(n,t)})).filter((function(t){return!!t}));return r.length?{element:n,animations:r,options:t.options||void 0}:null}(n)))return null;var r=n.element,e=n.options||{},i=new t(n.animations,n.options);return function(t,n,r){var e=arguments.length>3&&void 0!==arguments[3]?arguments[3]:null;if("click"===r){return void n.addEventListener("click",(function r(){n.removeEventListener("click",r),t.play()}))}if("hover"===r)return n.addEventListener("mouseenter",(function(){return t.play()})),void n.addEventListener("mouseleave","freeze"===e?function(){return t.pause()}:function(){return t.stop()});t.play()}(i,r,e.start,e.hover),i}}]),t}();return function(){for(var t=0,n=["ms","moz","webkit","o"],r=0;r<n.length&&!window.requestAnimationFrame;++r)window.requestAnimationFrame=window[n[r]+"RequestAnimationFrame"],window.cancelAnimationFrame=window[n[r]+"CancelAnimationFrame"]||window[n[r]+"CancelRequestAnimationFrame"];window.requestAnimationFrame||(window.requestAnimationFrame=function(n){var r=Date.now(),e=Math.max(0,16-(r-t)),i=window.setTimeout((function(){n(r+e)}),e);return t=r+e,i},window.cancelAnimationFrame=window.clearTimeout)}(),Et}));
__SVGATOR_PLAYER__.build({"root":"e60wn84omjzh1","animations":[{"duration":6000,"direction":1,"iterations":0,"fill":1,"alternate":false,"elements":{"e60wn84omjzh3":{"transform":{"data":{"t":{"x":-446.7455749549996,"y":-376.32495117}},"keys":{"o":[{"t":0,"v":{"x":-71.65495808499998,"y":392.40200000000004,"type":"corner"}},{"t":3000,"v":{"x":1426.040387425,"y":390.6362243999997,"type":"corner"}}]}}},"e60wn84omjzh21":{"transform":{"data":{"t":{"x":-4.9999187012872426e-9,"y":-1.4210854715202004e-14}},"keys":{"o":[{"t":0,"v":{"x":65.222,"y":164.224,"type":"cusp","end":{"x":31.380103371933863,"y":158.28856108173852}}},{"t":3000,"v":{"x":119.13500000500031,"y":33.37073306499999,"type":"cusp","start":{"x":79.37668788251699,"y":26.397630000189302}}}]}}},"e60wn84omjzh87":{"transform":{"data":{"t":{"x":-305.27508545,"y":-227.77738189500002}},"keys":{"o":[{"t":0,"v":{"x":402.7785060600001,"y":232.60294310500007,"type":"cusp","end":{"x":439.57132805163417,"y":155.95947085547874}}},{"t":3000,"v":{"x":287.25960577000023,"y":234.58633,"type":"cusp","start":{"x":298.04044264497935,"y":212.1286676863579}}}],"s":[{"t":0,"v":{"x":0.6265421638432114,"y":0.6265421638432114}},{"t":3000,"v":{"x":0.973501944558038,"y":0.973501944558038}}]}}},"e60wn84omjzh176":{"transform":{"data":{"t":{"x":-626.3879394549999,"y":-331.43156433000036}},"keys":{"o":[{"t":0,"v":{"x":993.377654295,"y":353.97513090999996,"type":"corner"}},{"t":3000,"v":{"x":-317.95943303500013,"y":346.2193874349996,"type":"corner"}}]}}},"e60wn84omjzh225":{"transform":{"keys":{"o":[{"t":0,"v":{"x":-134.06683756000004,"y":-145.04604,"type":"corner"}},{"t":3000,"v":{"x":-132.18004396,"y":-168.45300000000003,"type":"corner"}}]}}},"e60wn84omjzh226":{"transform":{"keys":{"o":[{"t":0,"v":{"x":-141.39274447500003,"y":-146.71936999999997,"type":"corner"}},{"t":3000,"v":{"x":-143.35009467500083,"y":-173.65276999999986,"type":"corner"}}]}}},"e60wn84omjzh227":{"transform":{"keys":{"o":[{"t":0,"v":{"x":-137.86237804500007,"y":-146.71936999999997,"type":"corner"}},{"t":3000,"v":{"x":-140.4459864899996,"y":-172.03819292999975,"type":"corner"}}]}}},"e60wn84omjzh228":{"transform":{"keys":{"o":[{"t":0,"v":{"x":-139.791,"y":-169.598,"type":"corner"}},{"t":3000,"v":{"x":-302.2781448449999,"y":-161.68877876500002,"type":"corner"}}]}}},"e60wn84omjzh229":{"transform":{"keys":{"o":[{"t":0,"v":{"x":-139.791,"y":-169.598,"type":"corner"}},{"t":3000,"v":{"x":-476.20826218999974,"y":-160.92055100000005,"type":"corner"}}]}}},"e60wn84omjzh230":{"transform":{"keys":{"o":[{"t":0,"v":{"x":-139.791,"y":-169.598,"type":"corner"}},{"t":3000,"v":{"x":-455.43323499999997,"y":-163.65630389000006,"type":"corner"}}]}}}}}],"options":{"start":"load","hover":"freeze"}})]]></script></svg>