<svg id="eqwhxw9vfwq1" xmlns="http://www.w3.org/2000/svg" xmlns:xlink="http://www.w3.org/1999/xlink" viewBox="0 0 704 745.194330" shape-rendering="geometricPrecision" text-rendering="geometricPrecision"><g id="eqwhxw9vfwq2" transform="matrix(0.95510892264485 0 0 0.95510892264485 4.13155402230285 44.77977182385689)"><path id="eqwhxw9vfwq3" d="M344.693910,661.251250L336.306690,628.178250C321.437855,621.877839,306.225492,616.421090,290.742080,611.834000L289.684160,627.204620L285.390000,610.271200C266.188000,604.789200,253.125000,602.374720,253.125000,602.374720C253.125000,602.374720,270.773720,669.472030,307.785600,720.767440L350.909600,728.339930L317.408350,733.172120C322.066020,738.774478,327.071451,744.078335,332.395000,749.052280C386.235430,799.022070,446.201690,821.946500,466.333430,800.255370C486.465170,778.564240,459.138830,720.471610,405.298430,670.501820C388.607370,655.010690,367.640250,642.579610,346.652430,632.796360Z" transform="matrix(0.99990160051374 -0.01402816060879 0.01402816060879 0.99990160051374 -282.59261160934886 -75.51383914253131)" fill="rgb(108,99,255)" stroke="none" stroke-width="1"/><path id="eqwhxw9vfwq4" d="M424.443170,625.329760L434.358800,592.682440C424.887091,579.603278,414.685223,567.068755,403.801800,555.138590L394.951100,567.749700L400.027980,551.034250C386.423900,536.415880,376.489410,527.596700,376.489410,527.596700C376.489410,527.596700,356.914820,594.157700,362.083980,657.200320L395.085840,685.973580L363.909500,672.793310C365.000799,679.996724,366.544089,687.124368,368.530230,694.134030C388.790610,764.740620,428.274760,815.361600,456.720610,807.199140C485.166460,799.036680,491.802040,735.181760,471.541610,664.575140C465.260690,642.686400,453.737540,621.206920,440.827990,601.983380Z" transform="matrix(0.72299753560048 0.69085060868153 -0.69085060868153 0.72299753560048 419.77984420076410 -160.71988990466923)" fill="rgb(108,99,255)" stroke="none" stroke-width="1"/></g><ellipse id="eqwhxw9vfwq5" rx="352" ry="18" transform="matrix(1 0 0 1 410.96010398500073 735.30415957499235)" fill="rgb(63,61,86)" stroke="none" stroke-width="1"/><g id="eqwhxw9vfwq6" transform="matrix(0.99065326243408 0 0 0.99065326243408 64.88762273542255 2.11543255532598)"><path id="eqwhxw9vfwq7" d="M805.653540,250.350090L801.654760,250.350090L801.654760,140.804760C801.654779,123.989496,794.974941,107.862938,783.084743,95.972762C771.194544,84.082587,755.067974,77.402780,738.252710,77.402830L506.166270,77.402830C489.351015,77.402793,473.224457,84.082606,461.334270,95.972780C449.444082,107.862954,442.764251,123.989505,442.764270,140.804760L442.764270,741.778940C442.764251,758.594195,449.444082,774.720746,461.334270,786.610920C473.224457,798.501094,489.351015,805.180907,506.166270,805.180870L738.252710,805.180870C755.067974,805.180920,771.194544,798.501113,783.084743,786.610938C794.974941,774.720762,801.654779,758.594204,801.654760,741.778940L801.654760,328.326310L805.653540,328.326310Z" transform="matrix(1 0 0 1 -248 -77.40280000000000)" fill="rgb(63,61,86)" stroke="none" stroke-width="1"/><path id="eqwhxw9vfwq8" d="M788.160000,141.247130L788.160000,741.337130C788.159558,767.487630,766.960500,788.686688,740.810000,788.687130L507.610000,788.687130C481.459509,788.686666,460.260464,767.487621,460.260000,741.337130L460.260000,141.247130C460.260492,115.096651,481.459521,93.897622,507.610000,93.897130L535.900000,93.897130C533.077144,100.833840,533.889591,108.720278,538.067366,114.935796C542.245140,121.151314,549.240912,124.881616,556.730000,124.887130L689.690000,124.887130C697.179065,124.881557,704.174794,121.151242,708.352556,114.935744C712.530317,108.720245,713.342792,100.833841,710.520000,93.897130L740.810000,93.897130C766.960491,93.897594,788.159536,115.096639,788.160000,141.247130Z" transform="matrix(1 0 0 1 -248 -77.40280000000000)" fill="rgb(255,255,255)" stroke="none" stroke-width="1"/><path id="eqwhxw9vfwq9" d="M788.160000,612.407160L788.160000,741.337160C788.159558,767.487660,766.960500,788.686718,740.810000,788.687160L507.610000,788.687160C481.459509,788.686696,460.260464,767.487651,460.260000,741.337160L460.260000,624.977160C500.691840,577.514770,559.149169,549.149188,621.452521,546.760798C683.755874,544.372408,744.213232,568.179412,788.160000,612.407160Z" transform="matrix(1 0 0 1 -248.25675385591018 -85.19916822274547)" fill="rgb(230,230,230)" stroke="none" stroke-width="1"/><polygon id="eqwhxw9vfwq10" points="322.174000,511.167000 312.750000,511.167000 315.891000,327.064000 319.033000,327.064000 322.174000,511.167000" transform="matrix(-0.99976635093939 -0.02161581664732 0.02161581664732 -0.99976635093939 659.26536893319030 845.44486375422821)" fill="rgb(230,230,230)" stroke="none" stroke-width="1" stroke-dashoffset="380.830000" stroke-dasharray="380.830000"/><path id="eqwhxw9vfwq11" d="M578.027790,288.558600L593.241460,265.046600C588.729772,252.583696,583.518740,240.385180,577.633190,228.509170L567.795550,236.454900L575.585010,224.416750C568.161580,209.804000,562.320390,200.597190,562.320390,200.597190C562.320390,200.597190,531.808890,248.678370,521.615180,299.585430L541.137840,329.756880L519.525400,312.300600C518.755628,318.230712,518.359606,324.203369,518.339680,330.183200C518.339680,390.474200,538.030490,439.349620,562.320390,439.349620C586.610290,439.349620,606.301110,390.474150,606.301110,330.183200C606.301110,311.492410,602.072650,291.937740,596.239710,273.849020Z" transform="matrix(0.99991393758859 -0.01311935273096 0.01311935273096 0.99991393758859 -223.33888768432087 -90.03515739868530)" fill="rgb(230,230,230)" stroke="none" stroke-width="1" stroke-dashoffset="380.830000" stroke-dasharray="380.830000"/><polygon id="eqwhxw9vfwq12" points="267.479000,524.167000 262.908000,524.167000 264.432000,434.879000 265.955000,434.879000 267.479000,524.167000" transform="matrix(1 0 0 1 -9.76256298418447 -11.03211838534415)" fill="rgb(230,230,230)" stroke="none" stroke-width="1"/><path id="eqwhxw9vfwq13" d="M519.287750,456.067730L526.666210,444.664660C524.478094,438.620289,521.950803,432.704144,519.096380,426.944410L514.325230,430.798000L518.103030,424.959630C514.502750,417.872630,511.669840,413.407400,511.669840,413.407400C511.669840,413.407400,496.872090,436.726250,491.928260,461.415610L501.396530,476.048430L490.914740,467.582340C490.541412,470.458378,490.349346,473.355049,490.339680,476.255200C490.339680,505.495640,499.889500,529.199710,511.669840,529.199710C523.450180,529.199710,533,505.495640,533,476.255200C533,467.190370,530.949240,457.706570,528.120330,448.933740Z" transform="matrix(1 0 0 1 -257.76256298418451 -88.43491838534413)" fill="rgb(230,230,230)" stroke="none" stroke-width="1" stroke-dashoffset="380.830000" stroke-dasharray="380.830000"/><polygon id="eqwhxw9vfwq14" points="386.479000,524.167000 381.908000,524.167000 383.432000,434.879000 384.955000,434.879000 386.479000,524.167000" fill="rgb(230,230,230)" stroke="none" stroke-width="1"/><path id="eqwhxw9vfwq15" d="M638.287750,456.067730L645.666210,444.664660C643.478094,438.620289,640.950803,432.704144,638.096380,426.944410L633.325230,430.798000L637.103030,424.959630C633.502750,417.872630,630.669840,413.407400,630.669840,413.407400C630.669840,413.407400,615.872090,436.726250,610.928260,461.415610L620.396530,476.048430L609.914740,467.582340C609.541412,470.458378,609.349346,473.355049,609.339680,476.255200C609.339680,505.495640,618.889500,529.199710,630.669840,529.199710C642.450180,529.199710,652,505.495640,652,476.255200C652,467.190370,649.949240,457.706570,647.120330,448.933740Z" transform="matrix(1 0 0 1 -248 -77.40280000000000)" fill="rgb(230,230,230)" stroke="none" stroke-width="1" stroke-dashoffset="380.830000" stroke-dasharray="380.830000"/><circle id="eqwhxw9vfwq16" r="42" transform="matrix(1 0 0 1 289.66895663122204 186.47481441867680)" fill="rgb(230,230,230)" stroke="none" stroke-width="1" stroke-dashoffset="380.830000" stroke-dasharray="380.830000"/></g><polygon id="eqwhxw9vfwq17" points="415.872000,234.173000 492.533000,236.077000 502.852000,144.666000 415.872000,144.666000 415.872000,234.173000" transform="matrix(0.99999390765779 0.00349065141522 -0.00349065141522 0.99999390765779 0 0)" fill="rgb(47,46,65)" stroke="none" stroke-width="1"/><g id="eqwhxw9vfwq18" transform="matrix(0.99939082701910 -0.03489949670250 0.03489949670250 0.99939082701910 -5.75821128416896 15.46403027972823)"><path id="eqwhxw9vfwq19" d="M644.769930,239.961200L623.623220,158.883200C623.623220,158.883200,629.465330,119.962970,643.597310,120.605060C657.729290,121.247150,639.928660,158.654060,639.928660,158.654060L663.871770,228.691720Z" transform="matrix(0.99999732408998 -0.00231339855733 0.00231339855733 0.99999732408998 -248 -77.40280000000000)" fill="rgb(255,184,184)" stroke="none" stroke-width="1"/><path id="eqwhxw9vfwq20" d="M704.437150,289.125860C704.437150,289.125860,701.125690,282.502940,696.158500,280.847210C691.191310,279.191480,666.355360,244.421160,666.355360,244.421160L669.666820,226.208160L636.552220,221.240970C636.552220,221.240970,638.207950,239.453970,644.830870,251.044110C651.453790,262.634250,687.879870,322.240490,687.879870,322.240490L706.092870,289.125890Z" transform="matrix(0.99999390765779 0.00349065141522 -0.00349065141522 0.99999390765779 -248 -77.40280000000000)" fill="rgb(108,99,255)" stroke="none" stroke-width="1"/></g><g id="eqwhxw9vfwq21" transform="matrix(0.99987663248166 0.01570731731182 -0.01545196566123 0.98362177855441 0 0)"><path id="eqwhxw9vfwq22" d="M583.568870,694.779690L580.257410,716.304180L558.732920,767.631810C558.732920,767.631810,522.306860,785.844810,548.798540,789.156300C575.290220,792.467790,585.224600,785.844840,590.191790,777.566190C595.158980,769.287540,605.093360,756.041700,605.093360,756.041700L603.437630,790.812000L611.716280,790.812000L625.285400,743.320060C627.979260,734.097081,626.084959,724.141624,620.192130,716.552500Q620.094270,716.428330,619.994930,716.304150C613.372010,708.025500,616.683470,696.435390,616.683470,696.435390Z" transform="matrix(1 0 0 1 -248 -77.40280000000000)" fill="rgb(47,46,65)" stroke="none" stroke-width="1"/><path id="eqwhxw9vfwq23" d="M666.355360,694.779690L663.043900,716.304180L641.519410,767.631810C641.519410,767.631810,605.093360,785.844810,631.585040,789.156300C658.076720,792.467790,668.011040,785.844840,672.978280,777.566190C677.945520,769.287540,687.879850,756.041700,687.879850,756.041700L686.224120,790.812000L694.502770,790.812000L708.071900,743.320060C710.765758,734.097079,708.871452,724.141622,702.978620,716.552500Q702.880760,716.428330,702.781420,716.304150C696.158500,708.025500,699.469960,696.435390,699.469960,696.435390Z" transform="matrix(1 0 0 1 -248 -77.40280000000000)" fill="rgb(47,46,65)" stroke="none" stroke-width="1"/><path id="eqwhxw9vfwq24" d="M686.224120,443.108750L689.535580,476.223340C689.535580,476.223340,585.224580,547.419730,585.224580,577.222870C585.224580,607.026010,581.913120,701.402610,581.913120,701.402610L619.994910,703.058340L623.306370,658.353630C623.306370,658.353630,631.585020,608.681740,626.617830,590.468710L681.256910,549.075460C681.256910,549.075460,664.699610,568.944220,668.011070,603.714550C671.322530,638.484880,663.043900,706.369800,663.043900,706.369800L702.781420,709.681260C702.781420,709.681260,707.748610,673.255200,709.404340,669.943740C711.060070,666.632280,719.338720,607.026010,711.060070,590.468740L778.945000,510.993740C778.945000,510.993740,802.125220,481.190600,778.945000,451.387470L765.699160,444.764550Z" transform="matrix(1 0 0 1 -248 -77.40280000000000)" fill="rgb(47,46,65)" stroke="none" stroke-width="1"/></g><circle id="eqwhxw9vfwq25" r="33.114600" transform="matrix(0.99999390765779 0.00349065141522 -0.00349065141522 0.99999390765779 457.52454558819176 163.64905570860665)" fill="rgb(255,184,184)" stroke="none" stroke-width="1"/><path id="eqwhxw9vfwq26" d="M704.437150,267.601380L719.338720,302.371700L749.141860,279.191480C749.141860,279.191480,730.928860,254.355540,730.928860,251.044080Z" transform="matrix(0.99999390765779 0.00349065141522 -0.00349065141522 0.99999390765779 -248 -77.40280000000000)" fill="rgb(255,184,184)" stroke="none" stroke-width="1"/><path id="eqwhxw9vfwq27" d="M707.748610,287.470130L714.812550,291.810640C714.812550,291.810640,737.635280,279.709700,743.388550,271.171940C743.388550,271.171940,764.043410,264.289940,772.322060,280.847210C780.600710,297.404480,767.354870,411.649880,767.354870,411.649880C767.354870,411.649880,775.633520,423.239990,773.977790,428.207180C772.322060,433.174370,778.945000,441.453000,778.945000,441.453000L778.945000,451.387380C778.945000,451.387380,684.568390,453.043110,684.568390,444.764460L684.568390,418.272800L674.634010,414.961340C674.634010,414.961340,664.699630,436.485830,661.388170,434.830100C658.076710,433.174370,641.519410,419.928530,641.519410,419.928530C641.519410,419.928530,668.011090,332.174840,682.912660,317.273270L701.125660,285.814400Z" transform="matrix(0.99999390765779 0.00349065141522 -0.00349065141522 0.99999390765779 -248 -77.40280000000000)" fill="rgb(108,99,255)" stroke="none" stroke-width="1"/><path id="eqwhxw9vfwq28" d="M730.101000,420.756390L710.232250,480.362670C710.232250,480.362670,668.839000,526.723110,692.019250,526.723110C715.199500,526.723110,726.789570,485.329860,726.789570,485.329860L754.936980,425.723580Z" transform="matrix(0.99999390765779 0.00349065141522 -0.00349065141522 0.99999390765779 -248 -77.40280000000000)" fill="rgb(255,184,184)" stroke="none" stroke-width="1"/><path id="eqwhxw9vfwq29" d="M666.404650,239.938000C692.927100,229.307820,719.074140,227.040210,744.539850,239.938000L744.539850,218.511380C744.539858,214.810184,743.069569,211.260577,740.452430,208.643434C737.835291,206.026292,734.285686,204.555997,730.584490,204.556000L677.429540,204.556000C674.505557,204.556000,671.701333,205.717548,669.633766,207.785116C667.566198,209.852683,666.404650,212.656907,666.404650,215.580890Z" transform="matrix(0.99999390765779 0.00349065141522 -0.00349065141522 0.99999390765779 -248 -77.40280000000000)" fill="rgb(47,46,65)" stroke="none" stroke-width="1"/><path id="eqwhxw9vfwq30" d="M750.797590,285.814400C750.797590,285.814400,765.904300,273.018540,774.080380,287.695120C782.256460,302.371700,777.289270,365.289440,775.633540,373.568120C773.977810,381.846800,762.387700,433.174400,762.387700,433.174400L722.650180,424.895750C722.650180,424.895750,719.338720,401.715530,729.273100,403.371260Z" transform="matrix(0.99999390765779 0.00349065141522 -0.00349065141522 0.99999390765779 -248 -77.40280000000000)" fill="rgb(108,99,255)" stroke="none" stroke-width="1"/><path id="eqwhxw9vfwq31" d="M767.278130,271.586570C759.803050,267.481720,756.324290,258.268270,756.076400,249.743870C755.828180,241.219470,757.895680,232.783090,758.058140,224.256600C758.141768,222.512199,757.993075,220.764424,757.615970,219.059220C756.996003,216.942584,756.030048,214.943128,754.757250,213.141880C745.036520,198.247040,728.139100,187.769530,710.340780,187.604670C707.769425,187.570965,705.216287,188.040340,702.825050,188.986380C700.984910,189.723380,700.383220,189.633140,700.030590,191.892520C695.814414,190.501563,691.242099,190.646953,687.122810,192.302960C683.042736,193.961735,679.237076,196.228194,675.835000,199.025410C673.813010,200.528982,671.905434,202.180591,670.128000,203.966620C660.722100,213.710760,658.556120,228.728490,661.281000,241.994780C662.166860,246.307780,657.916300,250.471620,654.399340,253.120720C650.882380,255.769820,646.821100,258.202450,645.093940,262.252720C643.432770,266.148790,644.345090,270.604600,644.010610,274.826860C643.244733,282.968614,637.927494,289.971482,630.290680,292.896170C631.846568,294.758953,634.297185,295.620786,636.676570,295.141960C639.114432,294.628300,641.395259,293.542449,643.330940,291.973960C650.610580,286.579732,655.819255,278.851325,658.087140,270.079350C659.120210,274.777770,658.719580,279.623840,658.681560,284.434350C658.771943,289.802738,657.783240,295.134603,655.774100,300.113670C653.730315,305.116555,649.987193,309.238106,645.203650,311.752790C649.817150,314.011900,654.901480,312.374510,658.811030,309.042050C662.720410,305.709590,665.028920,300.872310,666.641520,295.995050C669.264553,288.046822,670.328487,279.666949,669.774920,271.315410C674.066285,278.540166,675.634610,287.060637,674.197000,295.339900C672.695413,303.781088,668.288170,311.431028,661.738930,316.964190C673.158071,316.867454,684.388237,314.039222,694.491080,308.715810C697.099926,307.533455,699.399296,305.762633,701.208760,303.542300C704.459760,299.032390,703.690630,292.881400,702.778820,287.397110C702.057600,283.060710,707.476570,276.791650,704.373320,273.677930C703.451410,272.766919,702.219593,272.237477,700.924180,272.195470C691.471590,271.285410,682.718910,266.538010,677.673830,258.492720C674.138450,252.854910,671.797540,246.416800,671.797540,240.395340C671.804206,227.444405,679.401120,215.699804,691.210552,210.383406C703.019983,205.067008,716.849045,207.166014,726.549076,215.747164C736.249107,224.328315,740.018914,237.798182,736.182370,250.167810C735.062920,253.811752,734.260876,257.545725,733.785210,261.327950C733.223111,265.716744,732.329625,270.056697,731.112410,274.310620C728.764540,282.485970,724.786990,290.827810,717.427150,295.092020C719.900300,296.445500,722.762710,296.506470,725.564810,296.815240C734.799870,297.832820,744.512610,297.608130,752.871360,293.552120C761.230400,289.496000,767.873720,280.858390,767.278130,271.586570Z" transform="matrix(0.99999390765779 0.00349065141522 -0.00349065141522 0.99999390765779 -248 -77.40280000000000)" fill="rgb(47,46,65)" stroke="none" stroke-width="1"/><polygon id="eqwhxw9vfwq32" points="490.380000,252.288000 481.739000,323.422000 482.101000,255.600000 490.380000,252.288000" transform="matrix(0.99999390765779 0.00349065141522 -0.00349065141522 0.99999390765779 0 0)" opacity="0.2" fill="rgb(0,0,0)" stroke="none" stroke-width="1"/><polygon id="eqwhxw9vfwq33" points="518.772000,336.291000 515.216000,358.255000 523.494000,361.567000 518.772000,336.291000" transform="matrix(0.99999390765779 0.00349065141522 -0.00349065141522 0.99999390765779 0 0)" opacity="0.2" fill="rgb(0,0,0)" stroke="none" stroke-width="1"/><script><![CDATA[!function(t,n){"object"==typeof exports&&"undefined"!=typeof module?module.exports=n():"function"==typeof define&&define.amd?define(n):(t=t||self).__SVGATOR_PLAYER__=n()}(this,(function(){"use strict";function t(n){return(t="function"==typeof Symbol&&"symbol"==typeof Symbol.iterator?function(t){return typeof t}:function(t){return t&&"function"==typeof Symbol&&t.constructor===Symbol&&t!==Symbol.prototype?"symbol":typeof t})(n)}function n(t,n){if(!(t instanceof n))throw new TypeError("Cannot call a class as a function")}function r(t,n){for(var r=0;r<n.length;r++){var e=n[r];e.enumerable=e.enumerable||!1,e.configurable=!0,"value"in e&&(e.writable=!0),Object.defineProperty(t,e.key,e)}}function e(t,n,e){return n&&r(t.prototype,n),e&&r(t,e),t}var i=1e-5,u=Math.abs;function o(t){return t}function a(t,n,r){var e=1-r;return 3*r*e*(t*e+n*r)+r*r*r}function l(){var t=arguments.length>0&&void 0!==arguments[0]?arguments[0]:0,n=arguments.length>1&&void 0!==arguments[1]?arguments[1]:0,r=arguments.length>2&&void 0!==arguments[2]?arguments[2]:1,e=arguments.length>3&&void 0!==arguments[3]?arguments[3]:1;return t<0||t>1||r<0||r>1?null:u(t-n)<=i&&u(r-e)<=i?o:function(o){if(o<=0)return t>0?o*n/t:0===n&&r>0?o*e/r:0;if(o>=1)return r<1?1+(o-1)*(e-1)/(r-1):1===r&&t<1?1+(o-1)*(n-1)/(t-1):1;for(var l,f=0,s=1;f<s;){var c=a(t,r,l=(f+s)/2);if(u(o-c)<i)break;c<o?f=l:s=l}return a(n,e,l)}}function f(){return 1}function s(t){return 1===t?1:0}function c(){var t=arguments.length>0&&void 0!==arguments[0]?arguments[0]:1,n=arguments.length>1&&void 0!==arguments[1]?arguments[1]:0;if(1===t){if(0===n)return s;if(1===n)return f}var r=1/t;return function(t){return t>=1?1:(t+=n*r)-t%r}}function v(t){var n=arguments.length>1&&void 0!==arguments[1]?arguments[1]:2;if(Number.isInteger(t))return t;var r=Math.pow(10,n);return Math.round(t*r)/r}var h=Math.PI/180;function y(t,n,r){return t>=.5?r:n}function d(t,n,r){return 0===t||n===r?n:t*(r-n)+n}function g(t,n,r){var e=d(t,n,r);return e<=0?0:e}function m(t,n,r){return 0===t?n:1===t?r:{x:d(t,n.x,r.x),y:d(t,n.y,r.y)}}function p(t,n,r){return 0===t?n:1===t?r:{x:g(t,n.x,r.x),y:g(t,n.y,r.y)}}function b(t,n,r){var e=function(t,n,r){return Math.round(d(t,n,r))}(t,n,r);return e<=0?0:e>=255?255:e}function w(t,n,r){return 0===t?n:1===t?r:{r:b(t,n.r,r.r),g:b(t,n.g,r.g),b:b(t,n.b,r.b),a:d(t,null==n.a?1:n.a,null==r.a?1:r.a)}}function A(t,n,r){if(0===t)return n;if(1===t)return r;var e=n.length;if(e!==r.length)return y(t,n,r);for(var i=[],u=0;u<e;u++)i.push(w(t,n[u],r[u]));return i}function x(t,n,r){var e=n.length;if(e!==r.length)return y(t,n,r);for(var i=new Array(e),u=0;u<e;u++)i[u]=d(t,n[u],r[u]);return i}function k(t,n){for(var r=[],e=0;e<t;e++)r.push(n);return r}function S(t,n){if(--n<=0)return t;var r=(t=Object.assign([],t)).length;do{for(var e=0;e<r;e++)t.push(t[e])}while(--n>0);return t}var _=6,M=/\.0+$/g;function I(t){return Number.isInteger(t)?t+"":t.toFixed(_).replace(M,"")}function E(t){var n=arguments.length>1&&void 0!==arguments[1]?arguments[1]:" ";return t&&t.length?t.map(I).join(n):""}function F(t){return I(t.x)+","+I(t.y)}function B(t){return t?null==t.a||t.a>=1?"rgb("+t.r+","+t.g+","+t.b+")":"rgba("+t.r+","+t.g+","+t.b+","+t.a+")":"transparent"}var j={f:null,i:p,u:function(t,n){return function(r){var e=n(r);t.setAttribute("rx",I(e.x)),t.setAttribute("ry",I(e.y))}}},q={f:null,i:function(t,n,r){return 0===t?n:1===t?r:{width:g(t,n.width,r.width),height:g(t,n.height,r.height)}},u:function(t,n){return function(r){var e=n(r);t.setAttribute("width",I(e.width)),t.setAttribute("height",I(e.height))}}},P=Math.sin,O=Math.cos,z=Math.acos,L=Math.asin,C=Math.tan,R=Math.atan2,T=Math.PI/180,V=180/Math.PI,D=Math.sqrt,N=function(){function t(){var r=arguments.length>0&&void 0!==arguments[0]?arguments[0]:1,e=arguments.length>1&&void 0!==arguments[1]?arguments[1]:0,i=arguments.length>2&&void 0!==arguments[2]?arguments[2]:0,u=arguments.length>3&&void 0!==arguments[3]?arguments[3]:1,o=arguments.length>4&&void 0!==arguments[4]?arguments[4]:0,a=arguments.length>5&&void 0!==arguments[5]?arguments[5]:0;n(this,t),this.m=[r,e,i,u,o,a],this.i=null,this.w=null,this.s=null}return e(t,[{key:"point",value:function(t,n){var r=this.m;return{x:r[0]*t+r[2]*n+r[4],y:r[1]*t+r[3]*n+r[5]}}},{key:"translateSelf",value:function(){var t=arguments.length>0&&void 0!==arguments[0]?arguments[0]:0,n=arguments.length>1&&void 0!==arguments[1]?arguments[1]:0;if(!t&&!n)return this;var r=this.m;return r[4]+=r[0]*t+r[2]*n,r[5]+=r[1]*t+r[3]*n,this.w=this.s=this.i=null,this}},{key:"rotateSelf",value:function(){var t=arguments.length>0&&void 0!==arguments[0]?arguments[0]:0;if(t%=360){var n=P(t*=T),r=O(t),e=this.m,i=e[0],u=e[1];e[0]=i*r+e[2]*n,e[1]=u*r+e[3]*n,e[2]=e[2]*r-i*n,e[3]=e[3]*r-u*n,this.w=this.s=this.i=null}return this}},{key:"scaleSelf",value:function(){var t=arguments.length>0&&void 0!==arguments[0]?arguments[0]:1,n=arguments.length>1&&void 0!==arguments[1]?arguments[1]:1;if(1!==t||1!==n){var r=this.m;r[0]*=t,r[1]*=t,r[2]*=n,r[3]*=n,this.w=this.s=this.i=null}return this}},{key:"skewSelf",value:function(t,n){if(n%=360,(t%=360)||n){var r=this.m,e=r[0],i=r[1],u=r[2],o=r[3];t&&(t=C(t*T),r[2]+=e*t,r[3]+=i*t),n&&(n=C(n*T),r[0]+=u*n,r[1]+=o*n),this.w=this.s=this.i=null}return this}},{key:"resetSelf",value:function(){var t=arguments.length>0&&void 0!==arguments[0]?arguments[0]:1,n=arguments.length>1&&void 0!==arguments[1]?arguments[1]:0,r=arguments.length>2&&void 0!==arguments[2]?arguments[2]:0,e=arguments.length>3&&void 0!==arguments[3]?arguments[3]:1,i=arguments.length>4&&void 0!==arguments[4]?arguments[4]:0,u=arguments.length>5&&void 0!==arguments[5]?arguments[5]:0,o=this.m;return o[0]=t,o[1]=n,o[2]=r,o[3]=e,o[4]=i,o[5]=u,this.w=this.s=this.i=null,this}},{key:"recomposeSelf",value:function(){var t=arguments.length>0&&void 0!==arguments[0]?arguments[0]:null,n=arguments.length>1&&void 0!==arguments[1]?arguments[1]:null,r=arguments.length>2&&void 0!==arguments[2]?arguments[2]:null,e=arguments.length>3&&void 0!==arguments[3]?arguments[3]:null,i=arguments.length>4&&void 0!==arguments[4]?arguments[4]:null;return this.isIdentity||this.resetSelf(),t&&(t.x||t.y)&&this.translateSelf(t.x,t.y),n&&this.rotateSelf(n),r&&(r.x&&this.skewSelf(r.x,0),r.y&&this.skewSelf(0,r.y)),!e||1===e.x&&1===e.y||this.scaleSelf(e.x,e.y),i&&(i.x||i.y)&&this.translateSelf(i.x,i.y),this}},{key:"decompose",value:function(){var t=arguments.length>0&&void 0!==arguments[0]?arguments[0]:0,n=arguments.length>1&&void 0!==arguments[1]?arguments[1]:0,r=this.m,e=r[0]*r[0]+r[1]*r[1],i=[[r[0],r[1]],[r[2],r[3]]],u=D(e);if(0===u)return{origin:{x:r[4],y:r[5]},translate:{x:t,y:n},scale:{x:0,y:0},skew:{x:0,y:0},rotate:0};i[0][0]/=u,i[0][1]/=u;var o=r[0]*r[3]-r[1]*r[2]<0;o&&(u=-u);var a=i[0][0]*i[1][0]+i[0][1]*i[1][1];i[1][0]-=i[0][0]*a,i[1][1]-=i[0][1]*a;var l=D(i[1][0]*i[1][0]+i[1][1]*i[1][1]);if(0===l)return{origin:{x:r[4],y:r[5]},translate:{x:t,y:n},scale:{x:u,y:0},skew:{x:0,y:0},rotate:0};i[1][0]/=l,i[1][1]/=l,a/=l;var f=0;return i[1][1]<0?(f=z(i[1][1])*V,i[0][1]<0&&(f=360-f)):f=L(i[0][1])*V,o&&(f=-f),a=R(a,D(i[0][0]*i[0][0]+i[0][1]*i[0][1]))*V,{origin:{x:r[4],y:r[5]},translate:{x:t,y:n},scale:{x:u,y:l},skew:{x:a,y:0},rotate:f}}},{key:"toString",value:function(){return null===this.s&&(this.s="matrix("+this.m.map($).join(" ")+")"),this.s}},{key:"determinant",get:function(){var t=this.m;return t[0]*t[3]-t[1]*t[2]}},{key:"isIdentity",get:function(){if(null===this.i){var t=this.m;this.i=1===t[0]&&0===t[1]&&0===t[2]&&1===t[3]&&0===t[4]&&0===t[5]}return this.i}}]),t}(),G=/\.0+$/;function $(t){return Number.isInteger(t)?t:t.toFixed(14).replace(G,"")}Object.freeze({M:2,L:2,Z:0,H:1,V:1,C:6,Q:4,T:2,S:4,A:7});function H(t,n,r){return t+(n-t)*r}function Q(t,n,r){var e=arguments.length>3&&void 0!==arguments[3]&&arguments[3],i={x:H(t.x,n.x,r),y:H(t.y,n.y,r)};return e&&(i.a=function(t,n){return Math.atan2(n.y-t.y,n.x-t.x)}(t,n)),i}function U(t,n,r,e){var i=1-e;return i*i*t+2*i*e*n+e*e*r}function Y(t,n,r,e){return 2*(1-e)*(n-t)+2*e*(r-n)}function Z(t,n,r,e){var i=arguments.length>4&&void 0!==arguments[4]&&arguments[4],u={x:U(t.x,n.x,r.x,e),y:U(t.y,n.y,r.y,e)};return i&&(u.a=function(t,n,r,e){return Math.atan2(Y(t.y,n.y,r.y,e),Y(t.x,n.x,r.x,e))}(t,n,r,e)),u}function J(t,n,r,e,i){var u=i*i;return i*u*(e-t+3*(n-r))+3*u*(t+r-2*n)+3*i*(n-t)+t}function K(t,n,r,e,i){var u=1-i;return 3*(u*u*(n-t)+2*u*i*(r-n)+i*i*(e-r))}function W(t,n,r,e,i){var u=arguments.length>5&&void 0!==arguments[5]&&arguments[5],o={x:J(t.x,n.x,r.x,e.x,i),y:J(t.y,n.y,r.y,e.y,i)};return u&&(o.a=function(t,n,r,e,i){return Math.atan2(K(t.y,n.y,r.y,e.y,i),K(t.x,n.x,r.x,e.x,i))}(t,n,r,e,i)),o}function X(t,n,r){var e,i=arguments.length>3&&void 0!==arguments[3]&&arguments[3];if(nt(n)){if(null!=(e=r).start&&!nt(e))return Z(n,r.start,r,t,i)}else if(nt(r)){if(n.end)return Z(n,n.end,r,t,i)}else{if(n.end)return r.start?W(n,n.end,r.start,r,t,i):Z(n,n.end,r,t,i);if(r.start)return Z(n,r.start,r,t,i)}return Q(n,r,t,i)}function tt(t,n,r){var e=X(t,n,r,!0);return e.a=function(t){return arguments.length>1&&void 0!==arguments[1]&&arguments[1]?t+Math.PI:t}(e.a)/h,e}function nt(t){return!t.type||"corner"===t.type}var rt=new N;var et={f:function(t){return t?t.join(" "):""},i:function(n,r,e){if(0===n)return r;if(1===n)return e;var i=r.length;if(i!==e.length)return y(n,r,e);for(var u,o=new Array(i),a=0;a<i;a++){if((u=t(r[a]))!==t(e[a]))return y(n,r,e);if("number"===u)o[a]=d(n,r[a],e[a]);else{if(r[a]!==e[a])return y(n,r,e);o[a]=r[a]}}return o}},it={f:null,i:x,u:function(t,n){return function(r){var e=n(r);t.setAttribute("x1",I(e[0])),t.setAttribute("y1",I(e[1])),t.setAttribute("x2",I(e[2])),t.setAttribute("y2",I(e[3]))}}},ut={f:I,i:d},ot={f:I,i:function(t,n,r){var e=d(t,n,r);return e<=0?0:e>=1?1:e}},at={f:E,i:function(t,n,r){var e,i,u,o=n.length,a=r.length;if(o!==a)if(0===o)n=k(o=a,0);else if(0===a)a=o,r=k(o,0);else{var l=(u=(e=o)*(i=a)/function(t,n){for(var r;n;)r=n,n=t%n,t=r;return t||1}(e,i))<0?-u:u;n=S(n,Math.floor(l/o)),r=S(r,Math.floor(l/a)),o=a=l}for(var f=[],s=0;s<o;s++)f.push(v(g(t,n[s],r[s]),6));return f}};function lt(t,n,r,e,i,u,o,a){return n=function(t,n,r){for(var e,i,u,o=t.length-1,a={},l=0;l<=o;l++)(e=t[l]).e&&(e.e=n(e.e)),e.v&&"g"===(i=e.v).t&&i.r&&(u=r.getElementById(i.r))&&(a[i.r]=u.querySelectorAll("stop"));return a}(t,e,a),function(e){var i,u=r(e,t,ft);return u?"c"===u.t?B(u.v):"g"===u.t?(n[u.r]&&function(t,n){for(var r=0,e=t.length;r<e;r++)t[r].setAttribute("stop-color",B(n[r]))}(n[u.r],u.v),(i=u.r)?"url(#"+i+")":"none"):"none":"none"}}function ft(t,n,r){if(0===t)return n;if(1===t)return r;if(n&&r){var e=n.t;if(e===r.t)switch(n.t){case"c":return{t:e,v:w(t,n.v,r.v)};case"g":if(n.r===r.r)return{t:e,v:A(t,n.v,r.v),r:n.r}}}return y(t,n,r)}var st={blur:p,brightness:g,contrast:g,"drop-shadow":function(t,n,r){return 0===t?n:1===t?r:{blur:p(t,n.blur,r.blur),offset:m(t,n.offset,r.offset),color:w(t,n.color,r.color)}},grayscale:g,"hue-rotate":d,invert:g,opacity:g,saturate:g,sepia:g};function ct(t,n,r){if(0===t)return n;if(1===t)return r;var e=n.length;if(e!==r.length)return y(t,n,r);for(var i,u=[],o=0;o<e;o++){if(n[o].type!==r[o].type)return n;if(!(i=st[n[o].type]))return y(t,n,r);u.push({type:n.type,value:i(t,n[o].value,r[o].value)})}return u}var vt={blur:function(t){return t?function(n){t.setAttribute("stdDeviation",F(n))}:null},brightness:function(t,n,r){return(t=yt(r,n))?function(n){n=I(n),t.map((function(t){return t.setAttribute("slope",n)}))}:null},contrast:function(t,n,r){return(t=yt(r,n))?function(n){var r=I((1-n)/2);n=I(n),t.map((function(t){t.setAttribute("slope",n),t.setAttribute("intercept",r)}))}:null},"drop-shadow":function(t,n,r){var e=r.getElementById(n+"-blur");if(!e)return null;var i=r.getElementById(n+"-offset");if(!i)return null;var u=r.getElementById(n+"-flood");return u?function(t){e.setAttribute("stdDeviation",F(t.blur)),i.setAttribute("dx",I(t.offset.x)),i.setAttribute("dy",I(t.offset.y)),u.setAttribute("flood-color",B(t.color))}:null},grayscale:function(t){return t?function(n){t.setAttribute("values",E(function(t){return[.2126+.7874*(t=1-t),.7152-.7152*t,.0722-.0722*t,0,0,.2126-.2126*t,.7152+.2848*t,.0722-.0722*t,0,0,.2126-.2126*t,.7152-.7152*t,.0722+.9278*t,0,0,0,0,0,1,0]}(n)))}:null},"hue-rotate":function(t){return t?function(n){return t.setAttribute("values",I(n))}:null},invert:function(t,n,r){return(t=yt(r,n))?function(n){n=I(n)+" "+I(1-n),t.map((function(t){return t.setAttribute("tableValues",n)}))}:null},opacity:function(t,n,r){return(t=r.getElementById(n+"-A"))?function(n){return t.setAttribute("tableValues","0 "+I(n))}:null},saturate:function(t){return t?function(n){return t.setAttribute("values",I(n))}:null},sepia:function(t){return t?function(n){return t.setAttribute("values",E(function(t){return[.393+.607*(t=1-t),.769-.769*t,.189-.189*t,0,0,.349-.349*t,.686+.314*t,.168-.168*t,0,0,.272-.272*t,.534-.534*t,.131+.869*t,0,0,0,0,0,1,0]}(n)))}:null}};var ht=["R","G","B"];function yt(t,n){var r=ht.map((function(r){return t.getElementById(n+"-"+r)||null}));return-1!==r.indexOf(null)?null:r}var dt={fill:lt,"fill-opacity":ot,stroke:lt,"stroke-opacity":ot,"stroke-width":ut,"stroke-dashoffset":{f:I,i:d},"stroke-dasharray":at,opacity:ot,transform:function(n,r,e,i){if(!(n=function(n,r){if(!n||"object"!==t(n))return null;var e=!1;for(var i in n)n.hasOwnProperty(i)&&(n[i]&&n[i].length?(n[i].forEach((function(t){t.e&&(t.e=r(t.e))})),e=!0):delete n[i]);return e?n:null}(n,i)))return null;var u=function(t,i,u){var o=arguments.length>3&&void 0!==arguments[3]?arguments[3]:null;return n[t]?e(i,n[t],u):r&&r[t]?r[t]:o};return r&&r.a&&n.o?function(t){var r=e(t,n.o,tt);return rt.recomposeSelf(r,u("r",t,d,0)+r.a,u("k",t,m),u("s",t,m),u("t",t,m)).toString()}:function(t){return rt.recomposeSelf(u("o",t,X,null),u("r",t,d,0),u("k",t,m),u("s",t,m),u("t",t,m)).toString()}},"#filter":function(t,n,r,e,i,u,o,a){if(!n.items||!t||!t.length)return null;var l=function(t,n){var r=(t=t.map((function(t){return t&&vt[t[0]]?(n.getElementById(t[1]),vt[t[0]](n.getElementById(t[1]),t[1],n)):null}))).length;return function(n){for(var e=0;e<r;e++)t[e]&&t[e](n[e].value)}}(n.items,a);return l?(t=function(t,n){return t.map((function(t){return t.e=n(t.e),t}))}(t,e),function(n){l(r(n,t,ct))}):null},"#line":it,points:{f:E,i:x},d:et,r:ut,"#size":q,"#radius":j,_:function(t,n){if(Array.isArray(t))for(var r=0;r<t.length;r++)this[t[r]]=n;else this[t]=n}},gt=function(){function t(r){n(this,t),this.list=r,this.length=r.length}return e(t,[{key:"setAttribute",value:function(t,n){for(var r=this.list,e=0;e<this.length;e++)r[e].setAttribute(t,n)}},{key:"removeAttribute",value:function(t){for(var n=this.list,r=0;r<this.length;r++)n[r].removeAttribute(t)}},{key:"style",value:function(t,n){for(var r=this.list,e=0;e<this.length;e++)r[e].style[t]=n}}]),t}(),mt=/-./g,pt=function(t,n){return n.toUpperCase()};function bt(t){return"function"==typeof t?t:y}function wt(t){return t?"function"==typeof t?t:Array.isArray(t)?function(t){var n=arguments.length>1&&void 0!==arguments[1]?arguments[1]:o;if(!Array.isArray(t))return n;switch(t.length){case 1:return c(t[0])||n;case 2:return c(t[0],t[1])||n;case 4:return l(t[0],t[1],t[2],t[3])||n}return n}(t,null):function(t,n){var r=arguments.length>2&&void 0!==arguments[2]?arguments[2]:o;switch(t){case"linear":return o;case"steps":return c(n.steps||1,n.jump||0)||r;case"bezier":case"cubic-bezier":return l(n.x1||0,n.y1||0,n.x2||0,n.y2||0)||r}return r}(t.type,t.value,null):null}function At(t,n,r){var e=arguments.length>3&&void 0!==arguments[3]&&arguments[3],i=n.length-1;if(t<=n[0].t)return e?[0,0,n[0].v]:n[0].v;if(t>=n[i].t)return e?[i,1,n[i].v]:n[i].v;var u,o=n[0],a=null;for(u=1;u<=i;u++){if(!(t>n[u].t)){a=n[u];break}o=n[u]}return null==a?e?[i,1,n[i].v]:n[i].v:o.t===a.t?e?[u,1,a.v]:a.v:(t=(t-o.t)/(a.t-o.t),o.e&&(t=o.e(t)),e?[u,t,r(t,o.v,a.v)]:r(t,o.v,a.v))}function xt(t,n){var r=arguments.length>2&&void 0!==arguments[2]?arguments[2]:null;return t&&t.length?"function"!=typeof n?null:("function"!=typeof r&&(r=null),function(e){var i=At(e,t,n);return null!=i&&r&&(i=r(i)),i}):null}function kt(t,n){return t.t-n.t}function St(n,r,e,i,u){var o,a="@"===e[0],l="#"===e[0],f=dt[e],s=y;switch(a?(o=e.substr(1),e=o.replace(mt,pt)):l&&(e=e.substr(1)),t(f)){case"function":if(s=f(i,u,At,wt,e,a,r,n),l)return s;break;case"string":s=xt(i,bt(f));break;case"object":if((s=xt(i,bt(f.i),f.f))&&"function"==typeof f.u)return f.u(r,s,e,a,n)}return s?function(t,n,r){if(arguments.length>3&&void 0!==arguments[3]&&arguments[3])return t instanceof gt?function(e){return t.style(n,r(e))}:function(e){return t.style[n]=r(e)};if(Array.isArray(n)){var e=n.length;return function(i){var u=r(i);if(null==u)for(var o=0;o<e;o++)t[o].removeAttribute(n);else for(var a=0;a<e;a++)t[a].setAttribute(n,u)}}return function(e){var i=r(e);null==i?t.removeAttribute(n):t.setAttribute(n,i)}}(r,e,s,a):null}function _t(n,r,e,i){if(!i||"object"!==t(i))return null;var u=null,o=null;return Array.isArray(i)?o=function(t){if(!t||!t.length)return null;for(var n=0;n<t.length;n++)t[n].e&&(t[n].e=wt(t[n].e));return t.sort(kt)}(i):(o=i.keys,u=i.data||null),o?St(n,r,e,o,u):null}function Mt(t,n,r){if(!r)return null;var e=[];for(var i in r)if(r.hasOwnProperty(i)){var u=_t(t,n,i,r[i]);u&&e.push(u)}return e.length?e:null}function It(t,n){if(!n.duration||n.duration<0)return null;var r=function(t,n){if(!n)return null;var r=[];if(Array.isArray(n))for(var e=n.length,i=0;i<e;i++){var u=n[i];if(2===u.length){var o=null;if("string"==typeof u[0])o=t.getElementById(u[0]);else if(Array.isArray(u[0])){o=[];for(var a=0;a<u[0].length;a++)if("string"==typeof u[0][a]){var l=t.getElementById(u[0][a]);l&&o.push(l)}o=o.length?1===o.length?o[0]:new gt(o):null}if(o){var f=Mt(t,o,u[1]);f&&(r=r.concat(f))}}}else for(var s in n)if(n.hasOwnProperty(s)){var c=t.getElementById(s);if(c){var v=Mt(t,c,n[s]);v&&(r=r.concat(v))}}return r.length?r:null}(t,n.elements);return r?function(t,n){var r=arguments.length>2&&void 0!==arguments[2]?arguments[2]:1/0,e=arguments.length>3&&void 0!==arguments[3]?arguments[3]:1,i=arguments.length>4&&void 0!==arguments[4]&&arguments[4],u=arguments.length>5&&void 0!==arguments[5]?arguments[5]:1,o=t.length,a=e>0?n:0;i&&r%2==0&&(a=n-a);var l=null;return function(f,s){var c=f%n,v=1+(f-c)/n;s*=e,i&&v%2==0&&(s=-s);var h=!1;if(v>r)c=a,h=!0,-1===u&&(c=e>0?0:n);else if(s<0&&(c=n-c),c===l)return!1;l=c;for(var y=0;y<o;y++)t[y](c);return h}}(r,n.duration,n.iterations||1/0,n.direction||1,!!n.alternate,n.fill||1):null}var Et=function(){function t(r){var e=arguments.length>1&&void 0!==arguments[1]?arguments[1]:{};n(this,t),this._id=0,this._running=!1,this._animations=r,this.direction=e.direction||1,this.speed=e.speed||1,this.fps=e.fps||100,this.offset=e.offset||0}return e(t,[{key:"_start",value:function(){var t=this,n=arguments.length>0&&void 0!==arguments[0]?arguments[0]:0,r=-1/0,e=null,i={},u=function u(o){t._running=!0,null==e&&(e=o);var a=Math.round((o-e+n)*t.speed),l=t.fps?1e3/t.fps:0;if(a>r+l){t.offset=a,r=a;for(var f=t._animations,s=f.length,c=0,v=0;v<s;v++)i[v]?c++:(i[v]=f[v](a,t.direction),i[v]&&c++);if(c===s)return void t._stop()}t._id=window.requestAnimationFrame(u)};this._id=window.requestAnimationFrame(u)}},{key:"_stop",value:function(){this._id&&window.cancelAnimationFrame(this._id),this._running=!1}},{key:"play",value:function(){this._running||this._start(this.offset)}},{key:"stop",value:function(){this._stop(),this.offset=0;var t=this.direction,n=this._animations;requestAnimationFrame((function(){for(var r=0;r<n.length;r++)n[r](0,t)}))}},{key:"restart",value:function(){this._stop(),this.offset=0,this._start()}},{key:"pause",value:function(){this._stop()}},{key:"reverse",value:function(){this.direction=-this.direction}}],[{key:"build",value:function(n){if(!(n=function(t){if(!t||!t.root||!Array.isArray(t.animations))return null;var n=window.document.getElementById(t.root);if(!n)return null;var r=t.animations.map((function(t){return It(n,t)})).filter((function(t){return!!t}));return r.length?{element:n,animations:r,options:t.options||void 0}:null}(n)))return null;var r=n.element,e=n.options||{},i=new t(n.animations,n.options);return function(t,n,r){var e=arguments.length>3&&void 0!==arguments[3]?arguments[3]:null;if("click"===r){return void n.addEventListener("click",(function r(){n.removeEventListener("click",r),t.play()}))}if("hover"===r)return n.addEventListener("mouseenter",(function(){return t.play()})),void n.addEventListener("mouseleave","freeze"===e?function(){return t.pause()}:function(){return t.stop()});t.play()}(i,r,e.start,e.hover),i}}]),t}();return function(){for(var t=0,n=["ms","moz","webkit","o"],r=0;r<n.length&&!window.requestAnimationFrame;++r)window.requestAnimationFrame=window[n[r]+"RequestAnimationFrame"],window.cancelAnimationFrame=window[n[r]+"CancelAnimationFrame"]||window[n[r]+"CancelRequestAnimationFrame"];window.requestAnimationFrame||(window.requestAnimationFrame=function(n){var r=Date.now(),e=Math.max(0,16-(r-t)),i=window.setTimeout((function(){n(r+e)}),e);return t=r+e,i},window.cancelAnimationFrame=window.clearTimeout)}(),Et}));
__SVGATOR_PLAYER__.build({"root":"eqwhxw9vfwq1","animations":[{"duration":7000,"direction":-1,"iterations":0,"fill":1,"alternate":true,"elements":{"eqwhxw9vfwq2":{"transform":{"data":{"t":{"x":-177.38591093729653,"y":-616.3504667362826}},"keys":{"o":[{"t":0,"v":{"x":-509.70095791499995,"y":648.2148268399999,"type":"cusp","end":{"x":-332.0528619536756,"y":365.54072410463766}}},{"t":3000,"v":{"x":173.55442030999998,"y":633.46160208,"type":"cusp","start":{"x":206.44082371641363,"y":457.4960658562064}}}],"s":[{"t":0,"v":{"x":0.5813463507902428,"y":0.5813463507902428}},{"t":1500,"v":{"x":0.8061832904470236,"y":0.8061832904470236}},{"t":2600,"v":{"x":0.955108922644853,"y":0.955108922644853}}]}}},"eqwhxw9vfwq3":{"transform":{"data":{"t":{"x":-373.0844491199645,"y":-713.5617761713119}},"keys":{"o":[{"t":0,"v":{"x":115.03934821999997,"y":628.003140435,"type":"cusp","end":{"x":112.90706599020622,"y":638.3287388829432}}},{"t":2900,"v":{"x":99.351395,"y":615.1582244149992,"type":"cusp","start":{"x":100.93807577435598,"y":618.426312462397}}},{"t":5800,"v":{"x":100.2985672153077,"y":636.9470674283602,"type":"corner"}},{"t":6000,"v":{"x":100.46508539291342,"y":632.7440343436924,"type":"cusp","start":{"x":102.0517661672694,"y":636.0121223910903}}}],"r":[{"t":0,"v":0},{"t":2000,"v":5.162324283644374},{"t":5800,"v":-0.8037807612595391}]}}},"eqwhxw9vfwq4":{"transform":{"data":{"t":{"x":-390.34299393528767,"y":-698.3133068042214}},"keys":{"o":[{"t":0,"v":{"x":192.125557,"y":574.821066,"type":"cusp","end":{"x":192.68250746489002,"y":579.0415769206162}}},{"t":1000,"v":{"x":163.92336232,"y":589.0018298199991,"type":"cusp","start":{"x":166.02026798735108,"y":604.8919561893233}}},{"t":5800,"v":{"x":212.74533535789328,"y":611.660094601838,"type":"corner"}},{"t":5900,"v":{"x":219.75491082095678,"y":610.9119715327427,"type":"cusp","start":{"x":221.8518164883079,"y":626.8020979020669}}},{"t":6000,"v":{"x":219.56669379878178,"y":613.8276049465657,"type":"cusp","start":{"x":221.6635994661329,"y":629.7177313158899}}}],"r":[{"t":500,"v":21.156510366069835},{"t":700,"v":30.430369435542044},{"t":900,"v":29.16},{"t":5800,"v":44.746214886551144},{"t":6000,"v":43.69747968528715}]}}},"eqwhxw9vfwq5":{"transform":{"data":{"t":{"x":352,"y":727.194}},"keys":{"o":[{"t":0,"v":{"x":-539.6597670649999,"y":3.840360874999419,"type":"corner"}},{"t":3000,"v":{"x":58.96010398500073,"y":8.110159574992394,"type":"corner"}}]}}},"eqwhxw9vfwq6":{"transform":{"data":{"t":{"x":-376.208923341001,"y":-363.88906861209705}},"keys":{"o":[{"t":0,"v":{"x":965.38341958,"y":637.16030773,"type":"cusp","end":{"x":717.665222250649,"y":837.6571856465746}}},{"t":1500,"v":{"x":406.51577870999995,"y":617.37689,"type":"cusp","start":{"x":487.7101953841761,"y":820.3347964614521}}},{"t":3000,"v":{"x":437.5802199999993,"y":362.60332554000007,"type":"cusp","start":{"x":518.7746366741756,"y":565.5612320014523}}}],"r":[{"t":1500,"v":-89.55810151471248},{"t":3000,"v":0}],"s":[{"t":0,"v":{"x":0.5863583139327445,"y":0.5863583139327445}},{"t":700,"v":{"x":0.7740925419652659,"y":0.7740925419652659}},{"t":3000,"v":{"x":0.9906532624340837,"y":0.9906532624340837}}]}}},"eqwhxw9vfwq10":{"transform":{"data":{"r":181.23859153137172,"t":{"x":-325.26993511880033,"y":-419.1155}},"keys":{"o":[{"t":3000,"v":{"x":338.44314166066385,"y":594.998066721548,"type":"corner"}},{"t":6000,"v":{"x":343.13095663122203,"y":419.396314418677,"type":"corner"}}],"s":[{"t":3000,"v":{"x":0,"y":1}},{"t":5000,"v":{"x":1,"y":1}}]}}},"eqwhxw9vfwq11":{"transform":{"data":{"r":-0.7517051060690958,"t":{"x":-562.3203950000003,"y":-319.9734050000003}},"keys":{"o":[{"t":3000,"v":{"x":340.00928033713586,"y":574.014288741895,"type":"corner"}},{"t":6000,"v":{"x":343.13095663122203,"y":222.5334303086772,"type":"corner"}}]}}},"eqwhxw9vfwq12":{"transform":{"keys":{"o":[{"t":3000,"v":{"x":0.6080844810623971,"y":161.3847482692127,"type":"corner"}},{"t":6000,"v":{"x":-9.762562984184472,"y":-11.03211838534415,"type":"corner"}}]}}},"eqwhxw9vfwq13":{"transform":{"keys":{"o":[{"t":3000,"v":{"x":-247.66983999608868,"y":120.36667780761536,"type":"corner"}},{"t":6000,"v":{"x":-257.7625629841845,"y":-88.43491838534413,"type":"corner"}}]}}},"eqwhxw9vfwq16":{"transform":{"data":{"t":{"x":264,"y":186.194}},"keys":{"o":[{"t":3000,"v":{"x":23.754936436768933,"y":408.80406672253514,"type":"corner"}},{"t":6000,"v":{"x":25.66895663122203,"y":0.2808144186768131,"type":"corner"}}]}}},"eqwhxw9vfwq17":{"transform":{"keys":{"r":[{"t":0,"v":0},{"t":200,"v":0.2}]}}},"eqwhxw9vfwq18":{"transform":{"data":{"t":{"x":-407.1925741542897,"y":-149.397164335189}},"keys":{"o":[{"t":0,"v":{"x":403.85753091000004,"y":151.851984,"type":"cusp","end":{"x":401.3779699482792,"y":158.48353218749358}}},{"t":3000,"v":{"x":406.400198,"y":150.55937,"type":"cusp","start":{"x":405.5744597331582,"y":152.31481446272213}}}],"r":[{"t":1500,"v":0},{"t":3000,"v":-2}]}}},"eqwhxw9vfwq19":{"transform":{"data":{"o":{"x":-248,"y":-77.4028,"type":"corner"}},"keys":{"r":[{"t":0,"v":0},{"t":200,"v":0.2},{"t":1500,"v":0.5550596000331062},{"t":3000,"v":-0.1325480918958656}]}}},"eqwhxw9vfwq20":{"transform":{"data":{"o":{"x":-248,"y":-77.4028,"type":"corner"}},"keys":{"r":[{"t":0,"v":0},{"t":200,"v":0.2}]}}},"eqwhxw9vfwq21":{"transform":{"data":{"s":{"x":1,"y":0.983743140504342}},"keys":{"r":[{"t":0,"v":0.45339802429925835},{"t":200,"v":0.9}]}}},"eqwhxw9vfwq25":{"transform":{"data":{"t":{"x":458.093,"y":162.051}},"keys":{"r":[{"t":0,"v":0},{"t":200,"v":0.2}]}}},"eqwhxw9vfwq26":{"transform":{"data":{"o":{"x":-248,"y":-77.4028,"type":"corner"}},"keys":{"r":[{"t":0,"v":0},{"t":200,"v":0.2}]}}},"eqwhxw9vfwq27":{"transform":{"data":{"o":{"x":-248,"y":-77.4028,"type":"corner"}},"keys":{"r":[{"t":0,"v":0},{"t":200,"v":0.2}]}}},"eqwhxw9vfwq28":{"transform":{"data":{"o":{"x":-248,"y":-77.4028,"type":"corner"}},"keys":{"r":[{"t":0,"v":0},{"t":200,"v":0.2}]}}},"eqwhxw9vfwq29":{"transform":{"data":{"o":{"x":-248,"y":-77.4028,"type":"corner"}},"keys":{"r":[{"t":0,"v":0},{"t":200,"v":0.2}]}}},"eqwhxw9vfwq30":{"transform":{"data":{"o":{"x":-248,"y":-77.4028,"type":"corner"}},"keys":{"r":[{"t":0,"v":0},{"t":200,"v":0.2}]}}},"eqwhxw9vfwq31":{"transform":{"data":{"o":{"x":-248,"y":-77.4028,"type":"corner"}},"keys":{"r":[{"t":0,"v":0},{"t":200,"v":0.2}]}}},"eqwhxw9vfwq32":{"transform":{"keys":{"r":[{"t":0,"v":0},{"t":200,"v":0.2}]}}},"eqwhxw9vfwq33":{"transform":{"keys":{"r":[{"t":0,"v":0},{"t":200,"v":0.2}]}}}}}],"options":{"start":"load","hover":"freeze"}})]]></script></svg>